<?xml version="1.0" encoding="UTF-8"?>
<svg id="Layer_1" data-name="Layer 1" xmlns="http://www.w3.org/2000/svg" viewBox="0 0 36.85 36.85">
  <defs>
    <style>
      .cls-1 {
        fill: #81c45c;
        stroke-width: 0px;
      }
    </style>
  </defs>
  <path class="cls-1" d="M24.62,4.51h.43c.66.23.93.7.87,1.38-.02.24,0,.48,0,.76.32,0,.62,0,.92,0,3.2-.02,5.49,2.52,5.5,5.34,0,5.01.01,10.02,0,15.03,0,2.92-2.39,5.31-5.32,5.32-5.73.02-11.47.01-17.2,0-2.45,0-4.59-1.73-5.16-4.12-.06-.24-.1-.47-.15-.71,0-5.35,0-10.69,0-16.04.02-.06.04-.12.05-.18.32-2.46,2.42-4.45,4.89-4.61.48-.03.97,0,1.48,0,0-.31.02-.55,0-.79-.05-.68.22-1.15.87-1.38h.43c.67.24.93.72.87,1.41-.02.23,0,.47,0,.71h10.66c0-.25.02-.48,0-.71-.06-.69.2-1.17.87-1.41ZM30.17,15.25H6.68c0,.12,0,.22,0,.32,0,3.75,0,7.5,0,11.25,0,1.95,1.38,3.34,3.33,3.34,5.61,0,11.22,0,16.83,0,1.95,0,3.33-1.39,3.33-3.34,0-3.75,0-7.5,0-11.25,0-.1,0-.2,0-.32ZM6.7,13.04h23.45c.34-3.11-1.67-4.52-4.22-4.18,0,.09,0,.19,0,.29,0,.61,0,1.21,0,1.82,0,.55-.42,1-.94,1.05-.67.07-1.21-.4-1.22-1.08-.01-.7,0-1.39,0-2.1h-10.66c0,.11,0,.21,0,.31,0,.61.01,1.21,0,1.82-.01.61-.49,1.06-1.09,1.06-.6,0-1.07-.46-1.08-1.06,0-.37,0-.74,0-1.11,0-.33,0-.66,0-.99-2.59-.33-4.56,1.12-4.22,4.19Z"/>
  <path class="cls-1" d="M11.99,27.01c-.34,0-.69,0-1.03,0-.63-.01-1.12-.5-1.11-1.1,0-.6.48-1.07,1.1-1.07.71,0,1.41,0,2.12,0,.62,0,1.09.48,1.1,1.08,0,.6-.47,1.08-1.09,1.09-.36,0-.72,0-1.09,0Z"/>
  <path class="cls-1" d="M24.83,27.01c-.35,0-.71,0-1.06,0-.62-.01-1.09-.49-1.09-1.09,0-.6.48-1.07,1.09-1.08.71,0,1.41,0,2.12,0,.62,0,1.1.48,1.1,1.07,0,.6-.48,1.09-1.11,1.1-.35,0-.71,0-1.06,0Z"/>
  <path class="cls-1" d="M24.85,18.42c.35,0,.71,0,1.06,0,.61.01,1.09.49,1.09,1.09,0,.59-.48,1.08-1.09,1.08-.71,0-1.41,0-2.12,0-.63,0-1.11-.5-1.1-1.1.01-.6.48-1.06,1.11-1.07.35,0,.71,0,1.06,0Z"/>
  <path class="cls-1" d="M12.01,18.42c.35,0,.71,0,1.06,0,.61.01,1.09.49,1.09,1.09,0,.59-.47,1.07-1.07,1.08-.72.01-1.45.01-2.17,0-.6,0-1.07-.49-1.07-1.08,0-.59.47-1.08,1.08-1.09.36,0,.72,0,1.09,0Z"/>
  <path class="cls-1" d="M18.41,20.6c-.35,0-.71,0-1.06,0-.62-.01-1.09-.49-1.09-1.09,0-.6.48-1.08,1.09-1.08.71,0,1.41,0,2.12,0,.62,0,1.09.47,1.1,1.07,0,.61-.47,1.09-1.1,1.1-.35,0-.71,0-1.06,0Z"/>
  <path class="cls-1" d="M18.43,24.84c.35,0,.71,0,1.06,0,.6.01,1.07.48,1.08,1.07.01.6-.46,1.09-1.07,1.1-.72.01-1.45.01-2.17,0-.6-.01-1.07-.5-1.07-1.08,0-.6.47-1.07,1.09-1.09.36,0,.72,0,1.09,0Z"/>
</svg>