<?xml version="1.0" encoding="UTF-8"?>
<svg id="Layer_1" data-name="Layer 1" xmlns="http://www.w3.org/2000/svg" viewBox="0 0 74.49 74.48">
  <defs>
    <style>
      .cls-1 {
        fill: #14b14b;
      }
    </style>
  </defs>
  <path class="cls-1" d="M25.43,26.11h2.16c.49,0,.89-.4,.89-.89s-.4-.89-.89-.89h-2.16c-.49,0-.89,.4-.89,.89s.4,.89,.89,.89Zm14.92,0h2.16c.49,0,.89-.4,.89-.89s-.4-.89-.89-.89h-2.16c-.49,0-.89,.4-.89,.89s.4,.89,.89,.89Zm13.61,18.42l-8.72,12.02c-1.93,2.66-4.71,4.12-7.85,4.12h-15.84c-1.16,0-2.13,.44-2.89,1.31l-.38,.44c.22,.38,.34,.82,.34,1.28,0,.7-.27,1.35-.76,1.84l-2.06,2.06c-.51,.5-1.17,.76-1.84,.76s-1.33-.25-1.83-.76q-.34-.34,0,0L.76,56.22c-.49-.49-.76-1.14-.76-1.83s.27-1.35,.76-1.83l2.05-2.06c.49-.49,1.14-.76,1.84-.76h0c.43,0,.84,.1,1.21,.3l5.48-5.35c1.82-1.77,3.99-2.67,6.45-2.67h4.67c1.67,0,3.12,.39,4.57,1.22l1.23,.71h10.09c1.68,0,3.14,.95,3.83,2.49,.12,.27,.21,.56,.28,.84l6.43-6.95c1.32-1.43,3.21-1.19,4.4-.21,1.2,.99,1.82,2.82,.66,4.42h0ZM16.85,63.7c0-.22-.08-.42-.24-.58l-11.38-11.38c-.15-.16-.36-.24-.58-.24h0c-.22,0-.43,.09-.58,.24l-2.06,2.06c-.16,.16-.24,.36-.24,.58s.08,.42,.24,.58l11.38,11.38c.32,.32,.84,.32,1.16,0l2.05-2.06c.16-.16,.24-.36,.24-.58h0Zm35.32-22.22c-.51-.41-1.33-.65-1.97,.05l-8.72,9.42s0,0,0,0c-.8,.88-1.93,1.39-3.11,1.39h-9.68c-.49,0-.89-.4-.89-.89s.4-.89,.89-.89h9.68c.69,0,1.35-.3,1.81-.81h0c.65-.73,.8-1.7,.4-2.6-.31-.7-1.06-1.44-2.21-1.44h-10.33c-.16,0-.31-.04-.44-.12l-1.43-.83c-1.18-.68-2.32-.99-3.68-.99h-4.67c-2.01,0-3.72,.71-5.22,2.17l-5.39,5.26,9.89,9.89,.24-.28c1.09-1.26,2.56-1.92,4.23-1.92h15.84c2.59,0,4.81-1.17,6.41-3.39l8.72-12.02c.58-.8,.17-1.58-.35-2h0Zm20.51,26.28h0c-2.49,4.31-7.02,6.72-11.67,6.72-2.28,0-4.59-.58-6.7-1.8-6.42-3.71-8.63-11.95-4.92-18.38,1.8-3.11,4.7-5.34,8.17-6.27,3.47-.93,7.1-.45,10.21,1.35,3.11,1.8,5.34,4.7,6.27,8.17,.93,3.47,.45,7.09-1.34,10.21h0Zm-.37-9.75c-.81-3.01-2.74-5.53-5.44-7.09-1.8-1.04-3.8-1.57-5.82-1.57-1.01,0-2.03,.13-3.04,.4-3.01,.81-5.53,2.74-7.09,5.44-3.22,5.58-1.3,12.74,4.28,15.96,5.58,3.22,12.73,1.3,15.95-4.28,1.56-2.7,1.97-5.85,1.17-8.86Zm-1.43,.38c.71,2.63,.34,5.38-1.02,7.74-1.36,2.36-3.56,4.05-6.19,4.75-.88,.24-1.77,.35-2.65,.35-1.77,0-3.51-.46-5.08-1.37-4.87-2.81-6.54-9.05-3.73-13.92,1.36-2.36,3.56-4.05,6.19-4.75,2.63-.7,5.38-.34,7.74,1.02,2.36,1.36,4.04,3.56,4.75,6.19h0Zm-1.71,.46c-.58-2.17-1.98-3.99-3.92-5.11-1.3-.75-2.74-1.13-4.2-1.13-.73,0-1.47,.1-2.19,.29-2.17,.58-3.99,1.98-5.12,3.92-2.32,4.02-.94,9.18,3.09,11.5,1.95,1.13,4.22,1.43,6.39,.84,2.17-.58,3.99-1.98,5.12-3.92,1.13-1.95,1.42-4.22,.84-6.39h0Zm-5.18,3.89c.24-.42,.1-.97-.32-1.21l-1.75-1.01v-2.53c0-.49-.4-.89-.89-.89s-.89,.4-.89,.89v3.04c0,.32,.17,.61,.44,.77l2.19,1.27c.14,.08,.29,.12,.44,.12,.31,0,.6-.16,.77-.44h0Zm-2.96-7.42c.49,0,.89-.4,.89-.89h0c0-.5-.4-.89-.89-.89s-.89,.4-.89,.89,.4,.89,.89,.89Zm3.7-.8c-.44-.22-.97-.04-1.19,.4-.22,.44-.04,.97,.4,1.19,.13,.06,.26,.09,.4,.09,.32,0,.64-.18,.79-.49h0c.22-.45,.04-.97-.4-1.19h0Zm2.02,4.1c.23,0,.45-.09,.63-.26h0c.35-.35,.34-.91,0-1.26-.35-.35-.91-.34-1.26,0-.35,.35-.35,.91,0,1.25,.17,.17,.4,.26,.63,.26h0Zm.88,1.52c-.49,0-.89,.4-.89,.89s.4,.89,.89,.89h0c.49,0,.88-.4,.88-.89s-.4-.89-.89-.89h0Zm-.49,3.39c-.44-.22-.97-.04-1.19,.4s-.04,.97,.4,1.19h0c.13,.07,.26,.1,.39,.1,.32,0,.64-.18,.79-.49,.22-.44,.04-.97-.4-1.19h0Zm-3.09,2.36c-.46,.15-.72,.66-.56,1.12h0c.12,.38,.47,.61,.83,.61,.09,0,.19-.02,.28-.05,.46-.15,.71-.66,.56-1.13-.15-.46-.66-.72-1.12-.56h0Zm-3.02,.84c-.49,0-.89,.4-.89,.89h0c0,.5,.4,.89,.89,.89s.89-.4,.89-.89-.4-.89-.89-.89Zm-3.02-.84c-.46-.15-.97,.1-1.12,.56h0c-.15,.48,.1,.97,.56,1.13,.09,.03,.18,.05,.28,.05,.37,0,.72-.24,.85-.61,.15-.46-.1-.97-.56-1.12h0Zm-2.97-2.41h-.01c-.46,.16-.71,.66-.56,1.12,.12,.37,.47,.61,.85,.61,.09,0,.19-.01,.28-.05,.46-.15,.72-.66,.56-1.12-.15-.46-.66-.72-1.12-.56h0Zm.28-2.46c0-.49-.4-.89-.89-.89h-.01c-.49,0-.88,.4-.88,.89s.4,.89,.89,.89,.89-.4,.89-.89Zm-.5-2.57h.01c.15,.11,.32,.16,.49,.16,.29,0,.57-.14,.74-.4,.27-.41,.16-.96-.25-1.23h-.01c-.41-.28-.96-.17-1.23,.24-.27,.41-.16,.96,.25,1.23h0Zm2.92-2.26c.13,0,.27-.03,.4-.09,.44-.22,.62-.75,.4-1.19h0c-.22-.45-.75-.62-1.19-.4-.44,.22-.61,.76-.39,1.19,.16,.31,.47,.49,.79,.49h0ZM.46,16.94C-.47,13.47,.01,9.84,1.81,6.73,3.6,3.62,6.5,1.39,9.98,.46,13.45-.47,17.07,.01,20.18,1.81c4.33,2.5,6.74,7.05,6.72,11.73h14.23c2-2.3,7.25-7.64,9.97-7.39,.04,0,.08,.01,.12,.02l13.4,3.09c.39-1.02,1.37-1.76,2.53-1.76h4.63c1.49,0,2.7,1.21,2.7,2.7v15.61c0,1.49-1.21,2.7-2.7,2.7h-4.65c-1.1,0-2.04-.66-2.47-1.6l-5.6,2.21c-.86,.34-1.47,.48-2.1,.48-.17,0-.35-.01-.53-.03v6.44c0,.49-.4,.89-.89,.89H12.39c-.49,0-.89-.4-.89-.89v-9.25c-1.63-.24-3.25-.78-4.77-1.66-3.11-1.8-5.34-4.7-6.27-8.17h0Zm54.21,18.19v-5.91l-1.92-.44v.82c0,.49-.4,.89-.89,.89-1.01,0-1.84,.82-1.84,1.83,0,.49-.4,.89-.89,.89H18.8c-.49,0-.89-.4-.89-.89,0-1.01-.82-1.83-1.84-1.83-.49,0-.89-.4-.89-.89v-2.81c-.58,.08-1.17,.12-1.76,.12-.05,0-.11,0-.16,0v8.22H54.67ZM16.97,26.43v2.39c1.28,.32,2.29,1.33,2.61,2.61h28.78c.32-1.28,1.33-2.29,2.61-2.61v-.44l-.53-.12c-1.83-.42-2.99-2.14-2.7-4.01,.19-1.23,1.05-2.42,2.57-2.87-.96-.46-1.69-1.32-1.95-2.37H25.71c-.18,.4-.38,.79-.6,1.18-1.85,3.2-4.82,5.36-8.14,6.25h0ZM66.22,10.2v.15h0c0,3.07,0,6.14,0,9.2,0,2.08,0,4.17,0,6.25,0,.51,.42,.93,.93,.93h4.65c.51,0,.93-.42,.93-.93V10.2c0-.51-.42-.93-.93-.93h-4.63c-.51,0-.93,.42-.93,.93h0Zm-22.71,3.34h12.04c.49,0,.89,.4,.89,.89v3.56c1.29,.25,2.31,.15,3.29-.32,.38-.18,.83-.07,1.09,.27,.25,.34,.24,.8-.04,1.12-.16,.18-.32,.39-.5,.61-1.21,1.56-2.86,3.69-8.16,3.31-1.74-.15-2.49,.7-2.63,1.55-.13,.82,.29,1.77,1.34,2.01l4.87,1.11s.05,.01,.08,.02c1.13,.26,1.49,.27,2.63-.18l6.02-2.38c0-1.85,0-3.7,0-5.55,0-2.84,0-5.67,0-8.52l-13.56-3.13h-.02c-1.19,0-4.52,2.58-7.37,5.63h0Zm12.93,7.16c.51-.22,.92-.5,1.27-.8h-.01c-.44,0-.86-.04-1.26-.11v.91h0Zm-29.66-5.39c-.09,.65-.23,1.29-.41,1.92h22.77c.49,0,.89,.4,.89,.89,0,1.01,.82,1.84,1.84,1.84,.49,0,.89,.4,.89,.89v.39c.73,.03,1.37,0,1.92-.07v-5.86H26.78Zm-24.6,1.17c.81,3.01,2.74,5.53,5.44,7.09,5.58,3.22,12.73,1.3,15.95-4.27,.28-.49,.53-1,.74-1.52,0,0,0,0,0-.01,.93-2.32,1.08-4.87,.43-7.33-.81-3.01-2.74-5.53-5.44-7.09-1.8-1.04-3.8-1.57-5.82-1.57-1.01,0-2.03,.13-3.04,.4-3.01,.81-5.53,2.74-7.09,5.44-1.56,2.7-1.97,5.85-1.17,8.86h0Zm2.45-8.12C7.44,3.49,13.69,1.82,18.56,4.63c4.87,2.81,6.54,9.06,3.73,13.92-1.89,3.27-5.32,5.1-8.85,5.1-1.73,0-3.48-.44-5.08-1.36-4.87-2.81-6.54-9.06-3.73-13.93h0Zm4.62,12.39c4.02,2.32,9.18,.94,11.5-3.09,2.32-4.02,.94-9.18-3.08-11.5-1.3-.75-2.74-1.13-4.2-1.13-.73,0-1.47,.1-2.19,.29-2.17,.58-3.99,1.98-5.12,3.92-2.32,4.02-.94,9.19,3.09,11.51Zm1.71-3.97c.14,.24,.38,.4,.65,.44,.04,0,.08,0,.12,0,.23,0,.46-.09,.63-.26l5.76-5.76c.35-.35,.35-.91,0-1.25-.35-.35-.91-.35-1.25,0l-4.95,4.94-1.72-2.98c-.24-.42-.79-.57-1.21-.32-.42,.24-.57,.79-.32,1.21l2.3,3.98h0Zm26.57,5.43h-2.3c.23,.14,.4,.3,.53,.48,.13,.18,.22,.38,.27,.59h1.5v1.25h-1.51c-.1,.41-.31,.77-.62,1.08-.31,.32-.72,.56-1.23,.74,.14,.06,.27,.14,.39,.24,.12,.1,.23,.22,.32,.36l2.45,3.51h-1.65c-.31,0-.53-.12-.68-.35l-2.06-3.04c-.08-.11-.16-.19-.25-.24-.09-.05-.23-.07-.41-.07h-1.27v-1.2h1.34c.51,0,.93-.09,1.24-.28,.31-.19,.53-.44,.65-.74h-3.24v-1.25h3.28c-.11-.32-.32-.57-.63-.75-.31-.18-.74-.27-1.27-.27h-1.37v-1.29h6.51v1.24Z"/>
</svg>