<?xml version="1.0" encoding="UTF-8"?>
<svg id="Layer_1" data-name="Layer 1" xmlns="http://www.w3.org/2000/svg" viewBox="0 0 82.79 64.42">
  <defs>
    <style>
      .cls-1 {
        fill: #14b14b;
      }
    </style>
  </defs>
  <path class="cls-1" d="M13.57,60.08c-.48,1.7-1.11,2.18-2.77,2.18-2.74,0-5.47,0-8.21,0-1.77,0-2.59-.84-2.59-2.62,0-7.12,0-14.23,0-21.35,0-1.68,.83-2.56,2.49-2.57,2.82-.03,5.64-.02,8.46,0,1.37,0,1.87,.39,2.57,1.82,2.74-.36,5.47-.71,8.2-1.09,5.06-.7,9.95-.02,14.77,1.59,4.84,1.61,9.73,3.08,14.59,4.63,.56,.18,1.01,.12,1.54-.13,3.8-1.8,7.58-3.63,11.44-5.29,1.4-.61,2.98-.88,4.5-1.13,1.52-.25,2.9,.12,3.69,1.74,.43-.22,.84-.42,1.25-.62,1.9-.96,3.9-1.23,5.97-.75,3.12,.73,4.25,3.4,2.46,6.06-.84,1.25-1.95,2.37-3.09,3.37-4.49,3.95-9.47,7.22-14.62,10.24-4.39,2.57-8.9,4.89-13.69,6.64-2.88,1.06-5.85,1.47-8.91,1.59-7.38,.28-14.52-1.07-21.62-2.87-2.11-.54-4.26-.95-6.44-1.44Zm0-20.13c-.05,.16-.08,.21-.08,.26,0,5.67-.02,11.33,0,17,0,.2,.32,.54,.55,.59,1.65,.39,3.31,.7,4.96,1.08,5.9,1.38,11.77,2.93,17.88,3.13,4.78,.16,9.49,.05,14.02-1.83,9.08-3.76,17.41-8.78,25.08-14.9,1.46-1.17,2.8-2.53,3.98-3.99,1-1.24,.53-2.17-1.02-2.55-1.68-.41-3.26-.08-4.74,.76-6.08,3.41-12.16,6.81-18.22,10.24-.65,.37-1.21,.91-1.85,1.31-.69,.43-1.39,.89-2.14,1.14-1.66,.57-3.36,.34-5.03,.01-4.6-.9-9.2-1.83-13.8-2.78-.92-.19-1.29-.8-1.1-1.51,.18-.66,.81-.92,1.68-.74,4.09,.85,8.16,1.75,12.27,2.52,1.55,.29,3.15,.38,4.72,.38,1.42,0,2.38-.92,2.5-2.04,.14-1.32-.67-2.56-2.02-2.96-4.84-1.43-9.64-2.98-14.46-4.5-2.76-.87-5.51-1.77-8.43-1.99-4.99-.38-9.85,.62-14.74,1.37Zm-11.22-1.85v21.79H11.12v-21.79H2.35Zm53.36,9.06s.14-.04,.24-.1c4.56-2.59,9.12-5.17,13.68-7.77,.18-.1,.29-.33,.43-.51-.21-.13-.41-.32-.64-.38-.26-.06-.56-.07-.81,0-1.62,.45-3.31,.77-4.85,1.43-3.18,1.34-6.29,2.86-9.35,4.28,.47,1.1,.87,2.04,1.31,3.04Z"/>
  <path class="cls-1" d="M6.38,16.92c0-5.06,0-10.12,0-15.18C6.38,.27,6.65,0,8.08,0,14.45,0,20.83,0,27.2,0c1.27,0,1.59,.31,1.59,1.61,0,10.2,0,20.41,0,30.61,0,1.24-.38,1.6-1.62,1.6-6.37,0-12.75,0-19.12,0-1.31,0-1.66-.34-1.66-1.64,0-5.09,0-10.18,0-15.26Zm20.02,14.54V2.35H8.76V31.44h4.92c0-2.14,0-4.22,0-6.29,0-1.09,.42-1.48,1.49-1.49,1.59,0,3.17,0,4.76,0,1.17,0,1.55,.39,1.55,1.59,0,1.78,0,3.56,0,5.34,0,.29,.03,.58,.04,.88h4.86Zm-10.36-5.47v5.51c.48,0,.83,0,1.18,0q1.91,0,1.91-1.93c0-1.19,0-2.37,0-3.58h-3.09Z"/>
  <path class="cls-1" d="M30.65,22.08c.13-2.87,1.31-5.44,3.49-7.55,.71-.68,1.38-1.4,2.1-2.08,.32-.3,.31-.55,.25-.98-.1-.69-.07-1.46,.15-2.11,.16-.47,.14-.75-.05-1.17-.33-.73-.72-1.5-.76-2.27-.07-1.7,1.56-2.97,3.25-2.74,.28,.04,.64-.04,.86-.21,1.2-.86,2.44-.87,3.64-.01,.23,.16,.58,.26,.86,.22,2.17-.31,3.9,1.79,3.15,3.84-.1,.28-.25,.55-.41,.8-.4,.59-.57,1.08-.15,1.83,.27,.48,.03,1.25,.06,1.88,.01,.28,.01,.64,.17,.82,.74,.81,1.54,1.55,2.3,2.34,3.05,3.15,4.08,6.89,2.87,11.09-1.21,4.21-4.11,6.8-8.39,7.78-6.96,1.59-13.88-4.27-13.4-11.49Zm11.57-8.98c-1.21,0-2.03-.02-2.85,.01-.27,.01-.6,.12-.79,.3-1.16,1.12-2.33,2.24-3.41,3.43-1.79,1.98-2.5,4.38-2.12,6.99,.53,3.62,2.58,6.12,6.09,7.22,3.43,1.08,6.54,.28,9-2.33,2.51-2.66,3.05-5.82,1.82-9.27-.64-1.79-2.05-2.99-3.25-4.36-1.33-1.52-2.75-2.56-4.48-1.99Zm-.5-5.04c.71,0,1.42,.02,2.13-.01,.23-.01,.54-.13,.67-.3,.31-.41,.57-.87,.77-1.34,.09-.21-.02-.5-.04-.75-.27,.02-.61-.05-.8,.08-1.12,.77-1.58,.65-2.15-.59-.09-.19-.34-.45-.49-.44-.21,.02-.48,.24-.57,.44-.54,1.23-1.01,1.35-2.16,.58-.19-.13-.57-.13-.79-.02-.11,.05-.13,.5-.05,.71,.45,1.11,1.06,2.01,2.51,1.66,.31-.07,.65-.01,.98-.01Zm3.25,2.6c-.74-.41-5.84-.38-6.37,0h6.37Z"/>
  <path class="cls-1" d="M63.84,32.04c.76-1.38,1.53-2.63,2.16-3.95,.5-1.07,1.21-1.48,2.38-1.39,1.36,.1,2.74,0,4.09,.1,.44,.03,1,.36,1.23,.72,.89,1.44,1.68,2.94,2.47,4.43,.52,.98,0,1.84-1.12,1.85-3.34,.02-6.67,.02-10.01,0-.41,0-.81-.23-1.08-.31-.63,.12-1.17,.31-1.71,.32-3.12,.03-6.23,.02-9.35,.01-1.51,0-1.99-.79-1.28-2.1,.74-1.37,1.51-2.72,2.24-4.09,.32-.59,.75-.87,1.44-.86,1.45,.02,2.9,.02,4.34-.06,.93-.05,1.47,.35,1.88,1.13,.72,1.38,1.49,2.72,2.3,4.2Zm-9.39-.6h6.29c-.84-2.32-.91-2.37-3.2-2.37-.46,0-.93-.02-1.39,0-.17,0-.41,.06-.48,.18-.42,.69-.79,1.4-1.22,2.18Zm12.39,.01h6.39c-.36-.68-.64-1.3-1.02-1.85-.18-.26-.56-.49-.87-.51-.9-.07-1.8-.04-2.7-.01-.21,0-.52,.09-.62,.25-.41,.66-.77,1.36-1.19,2.13Z"/>
  <path class="cls-1" d="M63.85,26.65c-1.61,0-3.22,.01-4.84,0-1.41-.01-1.87-.79-1.2-2.03,.74-1.37,1.52-2.72,2.24-4.09,.33-.63,.79-.94,1.49-.93,1.53,.01,3.06,.01,4.59,0,.67,0,1.14,.25,1.46,.85,.76,1.42,1.56,2.82,2.32,4.23,.61,1.13,.13,1.95-1.15,1.97-1.64,.02-3.28,0-4.92,0Zm-3.16-2.39h6.28q-.99-2.29-3.38-2.29c-.41,0-.82-.02-1.23,.01-.19,.02-.47,.1-.55,.24-.39,.64-.73,1.32-1.12,2.05Z"/>
  <path class="cls-1" d="M69.49,18.64c-.28-.22-.75-.4-.85-.7-.13-.38-.13-1,.1-1.27,.91-1.04,1.91-2.02,2.93-2.96,.44-.41,1.02-.37,1.49,.06,.46,.43,.59,1.01,.17,1.46-.99,1.08-2.06,2.1-3.12,3.12-.14,.14-.39,.16-.72,.29Z"/>
  <path class="cls-1" d="M55.27,13.3c.4,.24,.71,.36,.94,.57,.89,.85,1.75,1.72,2.61,2.6,.59,.61,.6,1.22,.1,1.73-.49,.49-1.15,.48-1.74-.09-.9-.87-1.82-1.73-2.63-2.68-.26-.3-.32-.93-.21-1.33,.09-.32,.59-.52,.94-.8Z"/>
  <path class="cls-1" d="M62.7,12.99c0-.65-.02-1.31,0-1.96,.02-.68,.45-1.04,1.08-1.12,.59-.07,1.18,.43,1.2,1.09,.04,1.36,.05,2.73,0,4.09-.03,.68-.51,1.1-1.21,1.06-.66-.04-1.05-.44-1.07-1.11-.02-.68,0-1.36,0-2.04Z"/>
  <path class="cls-1" d="M6.75,43.88c-1.28,0-2.29-.99-2.31-2.26-.01-1.29,1.06-2.36,2.33-2.34,1.25,.02,2.26,1.07,2.26,2.33,0,1.28-1,2.27-2.28,2.28Z"/>
  <path class="cls-1" d="M9.04,5.67q0-2.57,2.59-2.57t2.49,2.49c0,.49,.01,.98,0,1.47-.02,.78-.42,1.25-1.18,1.28-.9,.04-1.8,.04-2.7,0-.76-.03-1.16-.5-1.19-1.28-.02-.46,0-.93,0-1.39Z"/>
  <path class="cls-1" d="M14.12,12.81q0,2.6-2.58,2.6c-2.44,0-2.5-.06-2.5-2.52,0-.44,0-.87,0-1.31,.01-1,.39-1.4,1.36-1.42,.79-.01,1.58-.01,2.37,0,.95,.02,1.32,.4,1.34,1.35,0,.44,0,.87,0,1.31Z"/>
  <path class="cls-1" d="M14.12,19.79c0,.46,.01,.93,0,1.39-.02,.78-.42,1.23-1.2,1.26-.87,.04-1.75,.04-2.62,0-.82-.03-1.24-.48-1.26-1.3-.02-.9-.02-1.8,0-2.7,.02-.79,.42-1.21,1.21-1.24,.84-.03,1.69-.03,2.54,0,.95,.02,1.31,.41,1.33,1.36,0,.41,0,.82,0,1.23Z"/>
  <path class="cls-1" d="M20.05,5.7c0,.46,.01,.93,0,1.39-.03,.78-.44,1.22-1.21,1.25-.87,.03-1.75,.03-2.62,0-.77-.03-1.22-.47-1.24-1.23-.03-.93-.03-1.85,0-2.78,.02-.79,.45-1.2,1.23-1.22,.84-.02,1.69-.02,2.54,0,.91,.02,1.28,.39,1.31,1.29,.01,.44,0,.87,0,1.31Z"/>
  <path class="cls-1" d="M25.97,5.74c0,.44,.01,.87,0,1.31-.03,.84-.43,1.27-1.25,1.3-.84,.03-1.69,.03-2.53,0-.82-.02-1.27-.46-1.3-1.27-.03-.9-.03-1.8,0-2.7,.03-.86,.47-1.26,1.35-1.27,.79-.01,1.58-.01,2.37,0,.97,.01,1.33,.37,1.36,1.33,.01,.44,0,.87,0,1.31Z"/>
  <path class="cls-1" d="M20.05,12.74c0,.46,.01,.93,0,1.39-.03,.78-.43,1.23-1.2,1.26-.9,.04-1.8,.04-2.7,0-.73-.04-1.16-.47-1.18-1.21-.03-.95-.04-1.91,0-2.86,.03-.73,.45-1.15,1.21-1.16,.84-.01,1.69-.02,2.54,0,.95,.02,1.31,.39,1.33,1.36,0,.41,0,.82,0,1.23Z"/>
  <path class="cls-1" d="M20.05,19.82c0,.44,0,.87,0,1.31-.02,.87-.43,1.29-1.31,1.32-.82,.02-1.64,.03-2.45,0-.87-.03-1.29-.47-1.31-1.34-.02-.87-.02-1.74,0-2.62,.02-.87,.44-1.27,1.33-1.29,.79-.02,1.58-.02,2.37,0,1.01,.02,1.36,.38,1.37,1.4,0,.41,0,.82,0,1.23Z"/>
  <path class="cls-1" d="M25.97,12.73c0,.46,.01,.93,0,1.39-.03,.82-.44,1.25-1.27,1.28-.84,.03-1.69,.03-2.53,0-.81-.03-1.25-.48-1.28-1.29-.03-.9-.03-1.8,0-2.7,.03-.82,.46-1.23,1.29-1.25,.82-.02,1.64-.02,2.45,0,.96,.02,1.31,.38,1.34,1.35,.01,.41,0,.82,0,1.23Z"/>
  <path class="cls-1" d="M25.97,19.89q0,2.57-2.6,2.57c-2.39,0-2.49-.1-2.49-2.47,0-.52-.02-1.04,0-1.55,.04-.78,.46-1.2,1.24-1.23,.87-.03,1.74-.03,2.62,0,.82,.03,1.19,.4,1.22,1.21,.02,.49,0,.98,0,1.47Z"/>
  <path class="cls-1" d="M45.9,18.29h-2.95c.29,.18,.52,.39,.68,.62,.16,.23,.28,.49,.35,.76h1.93v1.6h-1.94c-.13,.52-.4,.99-.8,1.39-.4,.4-.92,.72-1.57,.94,.18,.08,.35,.18,.5,.31,.15,.13,.29,.28,.41,.46l3.14,4.5h-2.11c-.39,0-.68-.15-.87-.46l-2.64-3.9c-.1-.15-.21-.25-.33-.31-.12-.06-.29-.09-.53-.09h-1.63v-1.53h1.72c.66,0,1.19-.12,1.59-.36,.4-.24,.68-.56,.84-.95h-4.15v-1.6h4.2c-.14-.41-.41-.73-.81-.97-.4-.23-.95-.35-1.63-.35h-1.75v-1.66h8.36v1.59Z"/>
</svg>