<?xml version="1.0" encoding="UTF-8"?>
<svg id="Layer_1" data-name="Layer 1" xmlns="http://www.w3.org/2000/svg" viewBox="0 0 71.53 66.91">
  <defs>
    <style>
      .cls-1 {
        fill: #14b14b;
      }
    </style>
  </defs>
  <path class="cls-1" d="M55.37,47.3c6.36,0,11.54-5.18,11.54-11.54s-5.18-11.54-11.54-11.54-11.54,5.18-11.54,11.54,5.18,11.54,11.54,11.54Zm0-20.77c5.09,0,9.23,4.14,9.23,9.23s-4.14,9.23-9.23,9.23-9.23-4.14-9.23-9.23,4.14-9.23,9.23-9.23Z"/>
  <path class="cls-1" d="M59.71,31.94h-2.86c.28,.17,.5,.37,.66,.6,.16,.23,.27,.47,.34,.74h1.87v1.55h-1.88c-.13,.51-.39,.96-.77,1.35-.39,.39-.9,.7-1.52,.92,.17,.08,.34,.18,.48,.3,.15,.13,.28,.28,.4,.45l3.05,4.36h-2.05c-.38,0-.66-.15-.84-.44l-2.56-3.78c-.1-.14-.2-.24-.32-.3-.12-.06-.28-.09-.51-.09h-1.58v-1.49h1.67c.64,0,1.15-.12,1.54-.35,.38-.23,.66-.54,.81-.92h-4.03v-1.55h4.08c-.13-.4-.4-.71-.79-.94-.39-.23-.92-.34-1.58-.34h-1.7v-1.61h8.1v1.54Z"/>
  <path class="cls-1" d="M68.42,49.61c-.37,0-.74,.07-1.09,.2l-6.74,2.53c-.22,.08-.44,.16-.66,.23,.04-.21,.06-.42,.06-.64,0-1.91-1.55-3.46-3.46-3.46h-4.39l-.21-.08c-2.27-.91-4.61-1.54-7.01-1.89-.35-3.57-2.88-6.55-6.45-7.37l-8.48-1.96v-2.56c2.8-2.11,4.61-5.44,4.61-9.21,2.54,0,4.61-2.07,4.61-4.61,0-1.16-.44-2.21-1.15-3.02v-7.36c0-2.82-2.03-5.17-4.71-5.67-.21-1.14-.76-2.19-1.59-3.02-1.09-1.09-2.54-1.69-4.08-1.69h-10.38c-5.09,0-9.23,4.14-9.23,9.23v8.52c-.71,.81-1.15,1.86-1.15,3.02,0,2.54,2.07,4.61,4.61,4.61,0,3.76,1.82,7.1,4.61,9.21v2.56l-8.48,1.96c-3.84,.88-6.51,4.25-6.51,8.12L0,65.69c-.02,.32,.09,.63,.31,.86s.52,.36,.84,.36H44.99c.32,0,.62-.13,.84-.36s.33-.54,.31-.86l-.28-4.42,4.29,1.61c1.03,.39,2.11,.58,3.21,.58,1.51,0,3.01-.38,4.33-1.09l11.9-6.41c1.19-.64,1.93-1.88,1.93-3.24,0-1.71-1.39-3.11-3.11-3.11h0Zm-25.84-3.37c-.35-.02-.7-.05-1.05-.06v-1.18c0-.64-.52-1.15-1.15-1.15h-6.92c-.64,0-1.15,.52-1.15,1.15v16.15c0,.64,.52,1.15,1.15,1.15h2.31v2.31h-8.21l-2.12-16.98,1.82-2.42,.87,.7c.21,.17,.47,.25,.72,.25,.32,0,.64-.13,.86-.39l4.65-5.23,3.6,.83c2.41,.56,4.19,2.47,4.62,4.87h0Zm-7.97,13.76v-13.84h4.61v13.84h-4.61Zm-17.4-20.71l3.59,1.44-3.37,2.69-3.09-3.47,2.86-.66Zm11.72,0l2.86,.66-3.09,3.47-3.37-2.69,3.59-1.44Zm-5.86,2.58l2.37,1.9-1.8,2.39h-1.15l-1.8-2.39,2.37-1.9Zm-.13,6.6h.27l2.02,16.15h-4.31l2.02-16.15Zm11.67-25.38v-4.61c1.27,0,2.31,1.03,2.31,2.31s-1.03,2.31-2.31,2.31Zm-25.38-2.31c0-1.27,1.03-2.31,2.31-2.31v4.61c-1.27,0-2.31-1.03-2.31-2.31Zm2.31-4.61c-.4,0-.78,.07-1.15,.16v-7.09c0-3.82,3.1-6.92,6.92-6.92h10.38c1.91,0,3.46,1.55,3.46,3.46,0,.64,.52,1.15,1.15,1.15,1.91,0,3.46,1.55,3.46,3.46v5.93c-.37-.1-.75-.16-1.15-.16,0-.4-.21-.78-.56-.99l-5.77-3.46c-.53-.32-1.21-.16-1.55,.35-1.23,1.84-3.29,2.95-5.51,2.95H12.69c-.64,0-1.15,.52-1.15,1.15Zm2.31,9.23v-8.08h7.38c2.62,0,5.07-1.14,6.76-3.09l4.32,2.59v8.58c0,5.09-4.14,9.23-9.23,9.23s-9.23-4.14-9.23-9.23Zm9.23,11.54c1.64,0,3.2-.35,4.61-.97v1.34l-4.61,1.85-4.61-1.85v-1.34c1.41,.62,2.97,.97,4.61,.97ZM3.46,47.3c0-2.86,1.94-5.3,4.73-5.94l3.6-.83,4.65,5.23c.23,.26,.54,.39,.86,.39,.25,0,.51-.08,.72-.25l.87-.7,1.82,2.42-2.12,16.98H10.38v-12.69h-2.31v12.69H2.38l1.08-17.3Zm34.61,17.3v-2.31h2.31c.64,0,1.15-.52,1.15-1.15v-1.09c.67,.07,1.33,.19,1.97,.37l.26,4.18h-5.69Zm30.43-10.68l-11.9,6.41c-1.72,.92-3.81,1.07-5.64,.38l-5.71-2.14c-1.2-.45-2.45-.73-3.72-.83v-9.23c3.28,.13,6.48,.78,9.54,2.01l.41,.16c.14,.06,.28,.08,.43,.08h4.61c.64,0,1.15,.52,1.15,1.15s-.52,1.15-1.15,1.15h-6.92v2.31h6.92c1.67,0,3.31-.3,4.87-.88l6.74-2.53c.51-.19,1.08,.21,1.08,.75,0,.51-.28,.97-.72,1.21h0Z"/>
</svg>