<?xml version="1.0" encoding="UTF-8"?>
<svg id="Layer_1" data-name="Layer 1" xmlns="http://www.w3.org/2000/svg" xmlns:xlink="http://www.w3.org/1999/xlink" viewBox="0 0 291.92 298.85">
  <defs>
    <style>
      .cls-1 {
        fill: url(#linear-gradient);
      }

      .cls-2 {
        fill: url(#linear-gradient-8);
      }

      .cls-3 {
        fill: url(#linear-gradient-9);
      }

      .cls-4 {
        fill: url(#linear-gradient-3);
      }

      .cls-5 {
        fill: url(#linear-gradient-4);
      }

      .cls-6 {
        fill: url(#linear-gradient-2);
      }

      .cls-7 {
        fill: url(#linear-gradient-6);
      }

      .cls-8 {
        fill: url(#linear-gradient-7);
      }

      .cls-9 {
        fill: url(#linear-gradient-5);
      }

      .cls-10 {
        fill: url(#linear-gradient-14);
      }

      .cls-11 {
        fill: url(#linear-gradient-18);
      }

      .cls-12 {
        fill: url(#linear-gradient-22);
      }

      .cls-13 {
        fill: url(#linear-gradient-20);
      }

      .cls-14 {
        fill: url(#linear-gradient-21);
      }

      .cls-15 {
        fill: url(#linear-gradient-23);
      }

      .cls-16 {
        fill: url(#linear-gradient-15);
      }

      .cls-17 {
        fill: url(#linear-gradient-19);
      }

      .cls-18 {
        fill: url(#linear-gradient-16);
      }

      .cls-19 {
        fill: url(#linear-gradient-17);
      }

      .cls-20 {
        fill: url(#linear-gradient-13);
      }

      .cls-21 {
        fill: url(#linear-gradient-12);
      }

      .cls-22 {
        fill: url(#linear-gradient-10);
      }

      .cls-23 {
        fill: url(#linear-gradient-11);
      }

      .cls-24 {
        fill: url(#linear-gradient-27);
      }

      .cls-25 {
        fill: url(#linear-gradient-24);
      }

      .cls-26 {
        fill: url(#linear-gradient-26);
      }

      .cls-27 {
        fill: url(#linear-gradient-25);
      }

      .cls-28 {
        fill: url(#linear-gradient-28);
      }

      .cls-29 {
        fill: url(#linear-gradient-29);
      }

      .cls-30 {
        fill: url(#linear-gradient-30);
      }

      .cls-31 {
        fill: url(#linear-gradient-31);
      }
    </style>
    <linearGradient id="linear-gradient" x1="-43.67" y1="29.63" x2="410.39" y2="398.75" gradientUnits="userSpaceOnUse">
      <stop offset="0" stop-color="#e4ffd2"/>
      <stop offset="1" stop-color="#81c45c"/>
    </linearGradient>
    <linearGradient id="linear-gradient-2" x1="-89.5" y1="86" x2="364.57" y2="455.12" xlink:href="#linear-gradient"/>
    <linearGradient id="linear-gradient-3" x1="-80.91" y1="75.44" x2="373.16" y2="444.56" xlink:href="#linear-gradient"/>
    <linearGradient id="linear-gradient-4" x1="-68.27" y1="59.89" x2="385.79" y2="429.02" xlink:href="#linear-gradient"/>
    <linearGradient id="linear-gradient-5" x1="-38.43" y1="23.19" x2="415.63" y2="392.31" xlink:href="#linear-gradient"/>
    <linearGradient id="linear-gradient-6" x1="15.85" y1="-43.58" x2="469.91" y2="325.54" xlink:href="#linear-gradient"/>
    <linearGradient id="linear-gradient-7" x1="-8.8" y1="-13.27" x2="445.27" y2="355.86" xlink:href="#linear-gradient"/>
    <linearGradient id="linear-gradient-8" x1="-31.13" y1="14.21" x2="422.93" y2="383.33" xlink:href="#linear-gradient"/>
    <linearGradient id="linear-gradient-9" x1="-7.31" y1="-15.1" x2="446.76" y2="354.02" xlink:href="#linear-gradient"/>
    <linearGradient id="linear-gradient-10" x1="15.65" y1="-43.35" x2="469.72" y2="325.77" xlink:href="#linear-gradient"/>
    <linearGradient id="linear-gradient-11" x1="3.35" y1="-28.22" x2="457.42" y2="340.91" xlink:href="#linear-gradient"/>
    <linearGradient id="linear-gradient-12" x1="4.07" y1="-29.1" x2="458.14" y2="340.02" xlink:href="#linear-gradient"/>
    <linearGradient id="linear-gradient-13" x1="51.91" y1="-87.94" x2="505.97" y2="281.18" xlink:href="#linear-gradient"/>
    <linearGradient id="linear-gradient-14" x1="52.08" y1="-88.15" x2="506.14" y2="280.97" xlink:href="#linear-gradient"/>
    <linearGradient id="linear-gradient-15" x1="3.19" y1="-28.01" x2="457.25" y2="341.11" xlink:href="#linear-gradient"/>
    <linearGradient id="linear-gradient-16" x1="-5.15" y1="-17.76" x2="448.92" y2="351.36" xlink:href="#linear-gradient"/>
    <linearGradient id="linear-gradient-17" x1="-3.58" y1="-19.69" x2="450.49" y2="349.44" xlink:href="#linear-gradient"/>
    <linearGradient id="linear-gradient-18" x1="-2.02" y1="-21.61" x2="452.05" y2="347.51" xlink:href="#linear-gradient"/>
    <linearGradient id="linear-gradient-19" x1="-.45" y1="-23.54" x2="453.61" y2="345.59" xlink:href="#linear-gradient"/>
    <linearGradient id="linear-gradient-20" x1="1.11" y1="-25.46" x2="455.18" y2="343.66" xlink:href="#linear-gradient"/>
    <linearGradient id="linear-gradient-21" x1="2.68" y1="-27.39" x2="456.74" y2="341.74" xlink:href="#linear-gradient"/>
    <linearGradient id="linear-gradient-22" x1="4.24" y1="-29.31" x2="458.31" y2="339.81" xlink:href="#linear-gradient"/>
    <linearGradient id="linear-gradient-23" x1="5.81" y1="-31.23" x2="459.87" y2="337.89" xlink:href="#linear-gradient"/>
    <linearGradient id="linear-gradient-24" x1="46.65" y1="-81.48" x2="500.72" y2="287.64" xlink:href="#linear-gradient"/>
    <linearGradient id="linear-gradient-25" x1="67.25" y1="-106.81" x2="521.31" y2="262.31" xlink:href="#linear-gradient"/>
    <linearGradient id="linear-gradient-26" x1="66.14" y1="-105.45" x2="520.21" y2="263.67" xlink:href="#linear-gradient"/>
    <linearGradient id="linear-gradient-27" x1="81.39" y1="-124.2" x2="535.45" y2="244.92" xlink:href="#linear-gradient"/>
    <linearGradient id="linear-gradient-28" x1="83.31" y1="-126.57" x2="537.38" y2="242.55" xlink:href="#linear-gradient"/>
    <linearGradient id="linear-gradient-29" x1="77.88" y1="-119.9" x2="531.95" y2="249.23" xlink:href="#linear-gradient"/>
    <linearGradient id="linear-gradient-30" x1="84.03" y1="-127.45" x2="538.09" y2="241.67" xlink:href="#linear-gradient"/>
    <linearGradient id="linear-gradient-31" x1="74.58" y1="-115.83" x2="528.65" y2="253.29" xlink:href="#linear-gradient"/>
  </defs>
  <g>
    <path class="cls-1" d="M146.7,217.87c-2.64,0-5.4-.42-8.32-1.35-9.39-2.96-16.94-9.21-24.24-15.26-10.35-8.57-20.12-16.66-34.94-16.66-13.49,0-22.47,8.82-31.16,17.34-7.67,7.53-14.92,14.65-24.57,14.65-8.69,0-13.99-8.4-18.43-17.49l-.11-.29c-2.76-10.71-4.3-20.83-4.71-30.94l-.06-1.58H291.92l-.07,1.59c-.49,11.47-3.21,24.98-5.59,33.78-2.23,8.25-8.97,14.52-16.77,15.59-3.29,.45-6.38,0-9.17-1.34-7.57-3.6-14.45-9.78-21.1-15.76-12.94-11.62-25.15-22.6-40.83-13.63-8.34,4.75-15.37,10.54-21.56,15.65-10.08,8.31-19.05,15.7-30.13,15.7Zm-67.51-36.32c15.92,0,26.58,8.82,36.89,17.36,7.4,6.13,14.39,11.92,23.21,14.7,13.61,4.32,23.31-3.68,35.6-13.8,6.29-5.18,13.42-11.06,21.99-15.94,17.59-10.06,31.21,2.18,44.38,14.01,6.49,5.83,13.2,11.86,20.38,15.28,2.25,1.08,4.75,1.45,7.44,1.07,6.6-.91,12.32-6.28,14.24-13.37,2.23-8.24,4.76-20.66,5.41-31.52H3.35c.48,9.32,1.96,18.68,4.5,28.56,4.6,9.39,9.02,15.64,15.62,15.64,8.4,0,15.21-6.69,22.43-13.78,8.7-8.54,18.56-18.22,33.29-18.22Z"/>
    <path class="cls-6" d="M183.89,298.85c-.27,0-.53,0-.8,0-4.69-.08-8.33-.68-11.15-1.85l-.64-.26c-15.53-6.44-21.34-8.85-40.44-2.25-9.03,3.14-16.6,4.91-26.47,3.98-8.38-.79-17.09-3.57-25.88-8.27-5.29-2.82-12.53-6.85-16.94-10l-3.87-2.76H234.27l-3.86,2.76c-6.51,4.66-13.6,8.84-21.09,12.44-8.59,4.13-17.14,6.22-25.42,6.22Zm-34.45-11.35c7.58,0,13.69,2.53,23.04,6.41l.64,.27c2.42,1,5.8,1.55,10.03,1.62,8.03,.1,16.42-1.86,24.85-5.91,5.82-2.79,11.39-5.95,16.62-9.41H67.55c3.95,2.44,8.66,5.03,12.4,7.03,8.43,4.5,16.76,7.17,24.73,7.92,9.31,.89,16.53-.81,25.18-3.82,8.3-2.87,14.29-4.1,19.58-4.1Z"/>
    <path class="cls-4" d="M165.6,271.37c-.8,0-1.61-.04-2.44-.11-15.41-1.35-21.5-10.01-26.87-17.66-5.28-7.52-9.83-14.01-22.04-14.01s-16.8,7.37-21.4,15.18c-4.71,8-9.58,16.27-23.07,16.5-.22,0-.43,0-.65,0-18.79,0-34.79-16.86-42.71-27-2.42-3.1-4.65-6.47-6.83-10.31-1.65-2.93-2.88-5.16-3.64-6.64l-1.14-2.22H207.63l-.72,2.03c-4.8,13.55-18.24,44.24-41.3,44.24Zm-51.34-34.83c13.8,0,19.26,7.78,24.54,15.3,5.23,7.45,10.64,15.15,24.64,16.38,21.38,1.95,34.55-25.88,39.85-40.07H19.86c.65,1.2,1.45,2.64,2.4,4.31,2.1,3.71,4.25,6.96,6.58,9.94,7.66,9.8,23.15,26.09,40.89,25.82,11.78-.2,16.02-7.38,20.5-15,4.83-8.2,9.83-16.68,24.03-16.68Z"/>
  </g>
  <path class="cls-5" d="M67.25,152.07c.35,2.41,1.29,4.58,3.28,6.12,1.16,.9,2.52,.47,2.94-.92,.32-1.05,.6-2.12,.81-3.2,.42-2.21,.28-4.37-.64-6.47-.44-1-.82-2.05-1.06-3.11-.87-3.82-1.65-7.67-2.51-11.49-.87-3.88-3.31-6.14-7.22-6.84-.61-.11-1.2-.29-1.8-.42-1.61-.34-3.2-.87-4.82-.96-4.38-.25-8.62,.78-12.81,1.93-3.45,.95-6.81,1.21-10.23-.07-1.05-.39-2.21-.61-3.33-.66-2.2-.09-4.4,0-6.6,0-.76,0-1.52-.07-2.46-.12,1.09-1.45,1.61-2.76,.5-4.16-1.08-1.36-2.61-1.09-4.14-.93,.29-1.36-.04-2.47-.78-3.5-.2-.27-.35-.61-.42-.94-.19-.86-.59-1.48-1.55-1.51-.96-.03-1.49,.63-1.69,1.4-.21,.81-.21,1.68-.21,2.53,0,.9-.55,1.68-1.09,1.34-.98-.63-2.27-.89-2.57-2.43-.16-.83-.91-1.7-1.62-2.24-1.02-.78-2.26,.01-2.28,1.31,0,.55,.06,1.12-.07,1.64-.43,1.72,.1,3.12,1.31,4.32,.29,.29,.64,.52,.88,.71-.56,.89-1.17,1.56-1.44,2.34-.74,2.14-2.3,3.53-4.03,4.79-1.03,.75-1.77,1.63-1.6,3.02,.17,1.36,2.17,3.59,3.52,3.85,.33,.06,.73,.15,1.02,.04,1.23-.49,2.42-.22,3.63,.03,.74,.15,1.5,.19,2.26,.22,2.06,.07,2.03,.07,2.83,2.04,1.81,4.46,4.09,8.58,8.31,11.28,.24,.15,.32,.63,.39,.97,.3,1.44,.57,2.89,.84,4.33,.06,.33,.16,.67,.15,1.01-.03,2.2-.48,4.15-2.31,5.7-1.58,1.34-1.34,2.33,.45,3.48-2.26,0-4.53-.01-6.79,0l-.25,2.32c19.14,0,38.28,0,57.43,0,.62,0,1.28,.1,1.84-.08,.39-.12,.9-.64,.91-1,.02-.38-.43-.86-.79-1.14-.22-.18-.66-.09-1-.09-2.76,0-5.51,0-8.27,0-.36,0-.72-.03-1.15-.06,.13-.6,.07-1.24,.37-1.54,.68-.67,.67-1.44,.72-2.27,.21-3.46,.51-6.92,.69-10.38,.03-.59-.3-1.22-.53-1.81-.39-1.02-1.01-1.98-1.21-3.03-.77-4.04,.54-7.82,1.69-11.66,.12,.14,.2,.21,.24,.3,.12,.25,.24,.5,.34,.75,1.36,3.46,1.72,7.06,1.68,10.74-.01,1.51,0,3.04,.22,4.53Zm-39.41,12.76c-.88,1.49-1.81,1.87-3.29,1.68-.2-.02-.41,0-.68-.15,.24-.12,.48-.23,.71-.36,.86-.51,1.4-1.25,2.01-2.07,1.45-1.96,.89-4.22,1.39-6.29,.1-.03,.2-.05,.31-.08,.19,.63,.43,1.24,.55,1.88,.36,1.91,.05,3.6-1,5.38Zm19.77-.09c-.32,.5-.62,1.01-1.06,1.73h-13.55c.41-1.1,.83-2.15,1.17-3.22,.11-.34,.05-.74,.02-1.11-.21-2.57-.46-5.14-.64-7.71-.04-.64,.11-1.29,.18-1.94,1.61-.09,3.15-.12,4.68-.26,2.29-.2,4.44-.88,6.45-2.03,.22-.13,.54-.1,.81-.14,.03,.28,.11,.56,.07,.83-.09,.58-.31,1.14-.35,1.71-.06,.94,.19,1.79,1.11,2.26,.93,.47,1.83,.32,2.59-.36,.4-.36,.68-.86,1.06-1.25,.16-.16,.42-.22,.64-.33,.08,.2,.26,.41,.24,.6-.29,3.42-.96,6.74-2.5,9.84-.24,.49-.62,.9-.92,1.37Zm11.36-6.2c-.44,2.25-.81,4.52-1.31,6.75-.19,.86-.79,1.37-1.83,1.24-.88-.11-1.78-.02-2.99-.02,.62-.96,1.18-1.69,1.58-2.5,.3-.6,.42-1.29,.56-1.96,.51-2.46,.98-4.92,1.5-7.37,.13-.63,.42-1.23,.64-1.84,.1,0,.19,0,.29,0,.73,1.84,1.99,3.51,1.57,5.7Zm6.52-25.51c-1.48-1.08-2.49-.49-2.87,1.28-.5,2.35-1.22,4.66-1.7,7.01-.5,2.44-.58,4.92,.04,7.37,.06,.23,.08,.5,.21,.69,1.43,2.01,1.08,4.21,.86,6.46-.21,2.15-.12,4.33-.22,6.5-.02,.4-.26,.8-.4,1.2-.2,.54-.38,1.08-.6,1.61-.19,.45-.42,.88-.63,1.32-.12-.07-.24-.14-.37-.21,1.06-2.59,1.4-5.32,1.48-8.07,.04-1.16-.21-2.38-.58-3.5-.45-1.36-1.16-2.64-1.75-3.96-.36-.81-.94-.98-1.77-.76-1.12,.29-1.93,.83-2.21,2.02-.74,3.1-1.51,6.2-2.22,9.31-.17,.74-.25,1.44-.93,1.97-.31,.24-.4,.77-.62,1.15-.25,.43-.53,.84-.87,1.38-.18-.31-.26-.39-.24-.42,2.03-3.61,2.8-7.57,3.25-11.63,.33-3.02-.04-2.63-2.33-3.13-.27-.06-.54-.11-.8-.19-.87-.25-1.47,.01-1.79,.89-.13,.36-.33,.7-.64,.99,.02-.13,0-.27,.05-.39,1.21-2.77,.6-2.24-1.41-4.36-.49-.52-1.12-.47-1.7-.06-3.27,2.31-6.94,2.84-10.82,2.51-1.79-.15-2.28,.08-2.4,1.94-.17,2.6-.21,5.23,.07,7.81,.18,1.68,.09,3.24-.37,4.81-.11,.36-.53,.64-.91,.89,1.44-2.32,1.07-4.77,.68-7.21-.07-.46-.24-.95-.51-1.34-1.08-1.58-1.58-3.35-1.75-5.22-.06-.71-.38-1.22-1.1-1.27-.8-.06-1.2,.49-1.29,1.2-.32,2.56-.75,5.12-.82,7.69-.04,1.58-.82,2.78-1.36,4.12-.13,.32-.67,.48-1.03,.65,2.19-2.89,2.65-5.98,1.58-9.43-.39-1.26-.3-2.66-.5-3.98-.07-.43-.28-1.02-.61-1.2-3.64-1.94-5.71-5.19-7.38-8.76-.55-1.18-.97-2.42-1.43-3.65-.51-1.39-1.15-1.73-2.64-1.78-1.78-.05-3.55-.3-5.33-.43-.57-.04-1.2-.12-1.7,.07-.94,.36-1.57,.22-2.04-.7-.18-.36-.51-.64-.85-1.03,.22-.23,.41-.46,.62-.66,1.01-.92,2.12-1.76,3.01-2.78,.72-.83,1.19-1.88,1.79-2.82,.37-.57,.72-1.17,1.18-1.66,1.24-1.34,1.27-2.05-.01-3.29-.47-.45-1-.83-1.5-1.25,.09-.1,.17-.2,.26-.29,.79,.58,1.61,1.12,2.37,1.74,.64,.53,2.82,.5,3.43-.18,.56-.63,1.02-1.35,1.66-2.21-.3,.78-.51,1.42-.8,2.01-.33,.67-.5,1.29,.12,1.88,.59,.57,1.16,.31,1.8,.05,.75-.32,1.55-.55,2.35-.74,.32-.07,.69,.08,1.04,.12,.05,.1,.11,.2,.16,.31-.53,.54-1.01,1.14-1.58,1.62-1.12,.94-1.04,1.77,.3,2.42,1.6,.78,3.32,.83,5.05,.8,1.79-.03,3.58-.16,5.36-.06,1.36,.08,2.76,.3,4.04,.74,3.42,1.17,6.78,1.07,10.26,.23,3.44-.83,6.92-1.49,10.41-2.05,2.4-.38,4.8-.18,7.06,.93,.5,.25,1.13,.25,1.7,.34,3.03,.47,4.88,2.19,5.53,5.2,.81,3.77,1.6,7.54,2.46,11.29,.29,1.26,.73,2.51,1.24,3.7,1.02,2.4,.71,4.73-.11,7.22-1.22-1.3-1.75-2.77-1.94-4.34-.15-1.26-.2-2.54-.17-3.81,.08-4.28-.34-8.47-2.13-12.41-.38-.84-.97-1.71-1.7-2.25Z"/>
  <path class="cls-9" d="M33.83,98.34c.61,.01,1.23,0,1.84,0,2.44,0,4.88,0,7.16,0,.63,1.49,1.18,2.77,1.74,4.09-.15,.16-.33,.35-.51,.54-1.95,1.96-3.9,3.91-5.85,5.87-.71,.71-.76,1.54-.07,2.22,.65,.64,1.44,.54,2.12-.1,.26-.24,.5-.49,.75-.74,1.91-1.92,3.83-3.84,5.66-5.68,1.15,.48,2.13,1.01,3.17,1.29,.78,.21,.94,.56,.93,1.27-.03,2.41-.01,4.83-.01,7.24,0,.26,0,.53,0,.79-.01,1.04,.46,1.76,1.52,1.75,1-.01,1.43-.72,1.42-1.7,0-2.68-.03-5.35,.03-8.03,0-.41,.3-1.02,.63-1.18,1.08-.54,2.25-.91,3.46-1.38,.22,.21,.51,.47,.79,.75,1.71,1.7,3.41,3.41,5.12,5.12,1.13,1.13,2,1.32,2.67,.53,.89-1.05,.26-1.85-.54-2.59-.23-.21-.43-.44-.65-.65-1.8-1.78-3.61-3.56-5.32-5.25,.5-1.2,1.01-2.17,1.3-3.22,.21-.75,.52-.97,1.26-.96,2.63,.04,5.27,0,7.9,.02,1.06,0,1.91-.31,1.88-1.49-.03-1.16-.88-1.46-1.94-1.44-2.46,.03-4.91-.02-7.37,.03-.98,.02-1.61-.09-1.82-1.27-.16-.92-.73-1.77-1.25-2.94,.28-.23,.64-.48,.95-.79,1.84-1.82,3.67-3.65,5.49-5.5,.69-.7,.77-1.5,.06-2.21-.68-.67-1.43-.54-2.1,.08-.35,.33-.7,.67-1.04,1.01-1.81,1.84-3.62,3.69-5.39,5.5-1.46-.71-3.33-1.02-3.93-2.07-.67-1.16-.18-2.98-.19-4.52,0-.26,0-.53,0-.79,0-1.18,.01-2.37-.02-3.55-.02-.86-.45-1.43-1.35-1.47-.97-.04-1.44,.53-1.56,1.43-.05,.39-.02,.79-.02,1.18,0,2.71,0,5.42,0,7.99-1.45,.6-2.73,1.14-4.23,1.76-.21-.26-.44-.64-.75-.95-1.82-1.84-3.65-3.67-5.5-5.48-.69-.68-1.51-.79-2.2-.04-.63,.68-.53,1.44,.11,2.11,.21,.22,.43,.44,.65,.65,1.98,1.92,3.95,3.83,5.78,5.61-.65,1.58-1.18,2.87-1.75,4.24-.64,0-1.34,0-2.04,0-2.33,0-4.65,0-6.98,0-.98,0-1.62,.49-1.59,1.51,.02,.96,.65,1.38,1.57,1.4Zm18.46-7.76c3.46,.02,6.28,2.83,6.3,6.27,.02,3.48-2.85,6.38-6.33,6.41-3.43,.03-6.35-2.9-6.35-6.38,0-3.52,2.84-6.33,6.38-6.3Z"/>
  <g>
    <path class="cls-7" d="M279.3,166.57l-9.91-9.91c-1.16-1.16-2.6-1.89-4.11-2.18v-19.99c.32,.03,.65,.04,.97,.04,3.06,0,6.01-1.2,8.23-3.42,2.85-2.85,4.02-6.9,3.13-10.84-.13-.58-.58-1.03-1.17-1.17-3.94-.89-7.99,.28-10.84,3.13-.11,.11-.22,.23-.33,.34v-8.08c2.37-1.81,3.76-4.6,3.76-7.62,0-3.31-1.67-6.35-4.48-8.12-.5-.32-1.15-.32-1.65,0-2.8,1.77-4.48,4.81-4.48,8.12,0,3.02,1.39,5.81,3.76,7.62v2.03c-2.54-2.51-6.13-3.54-9.63-2.76-.58,.13-1.04,.59-1.17,1.17-.79,3.51,.25,7.12,2.79,9.66,1.98,1.98,4.61,3.05,7.34,3.05,.22,0,.44,0,.66-.02v6.2c-.2-.23-.41-.46-.63-.68-3.07-3.06-7.41-4.34-11.65-3.43-.34-2.39-2.41-4.24-4.89-4.24h-9.92l-4.62-6.35c-.65-.9-1.47-1.65-2.38-2.24,2.69-1.12,4.59-3.79,4.59-6.88v-3.69h2.38c.85,0,1.54-.69,1.54-1.54s-.69-1.54-1.54-1.54h-1.95v-2.47c0-2.43-1.97-4.4-4.4-4.4h-7.3c-2.43,0-4.4,1.97-4.4,4.4v2.47h-1.95c-.85,0-1.54,.69-1.54,1.54s.69,1.54,1.54,1.54h2.72v3.69c0,2.4,1.14,4.54,2.92,5.91-3.55,1.13-6.13,4.46-6.13,8.39v16.8c0,3.61,1.97,6.77,4.9,8.46v9.91h-13.87c-2.68,0-4.86,2.18-4.86,4.86s2.18,4.86,4.86,4.86h1.99c.85,0,1.54-.69,1.54-1.54s-.69-1.54-1.54-1.54h-1.99c-.98,0-1.77-.8-1.77-1.77s.8-1.77,1.77-1.77h15.41c.85,0,1.54-.69,1.54-1.54v-10.32c.58,.11,1.17,.17,1.78,.17h3.06v9.98c0,2.9-2.36,5.27-5.27,5.27h-2.19c-.85,0-1.54,.69-1.54,1.54s.69,1.54,1.54,1.54h2.19c4.61,0,8.35-3.75,8.35-8.35v-9.98h5.64v13.47c0,2.68,2.18,4.86,4.86,4.86s4.86-2.18,4.86-4.86v-16.74c0-4.61-3.75-8.35-8.35-8.35h-7.43v-3.95c.15,.05,.31,.07,.47,.07h14.5c1.26,0,2.41-.47,3.28-1.25,.09,3.19,1.39,6.25,3.71,8.58,2.41,2.41,5.62,3.72,8.95,3.72,.41,0,.81-.02,1.22-.06v8.13c-1.5,.3-2.93,1.02-4.08,2.18l-9.86,9.86c-.6,.6-.6,1.58,0,2.18,.6,.6,1.58,.6,2.18,0l9.86-9.86c1.91-1.91,5.01-1.91,6.91,0l9.91,9.91c.3,.3,.7,.45,1.09,.45s.79-.15,1.09-.45c.6-.6,.6-1.58,0-2.18Zm-17.13-42.03c-2.14,.18-4.25-.58-5.79-2.12-1.54-1.54-2.3-3.65-2.12-5.79,2.14-.18,4.25,.58,5.79,2.12,1.54,1.54,2.3,3.65,2.12,5.79Zm5.62-.12c1.85-1.85,4.4-2.74,6.97-2.47,.27,2.57-.61,5.12-2.47,6.97-1.85,1.85-4.4,2.74-6.97,2.47-.03-.26-.04-.52-.04-.78v-.3c.04-2.19,.92-4.3,2.51-5.89Zm-4.06-22.43c1.4,1.23,2.22,3,2.22,4.9s-.81,3.67-2.22,4.9c-1.4-1.23-2.22-2.99-2.22-4.9s.81-3.67,2.22-4.9Zm-34.13,8.03c0,2.41-1.96,4.37-4.37,4.37s-4.37-1.96-4.37-4.37v-3.69h8.73v3.69Zm-9.5-9.25c0-.73,.59-1.32,1.32-1.32h7.3c.73,0,1.32,.59,1.32,1.32v2.47h-9.93v-2.47Zm17.38,41.57c2.9,0,5.27,2.36,5.27,5.27v16.74c0,.98-.8,1.77-1.77,1.77s-1.77-.8-1.77-1.77v-15.02c0-.85-.69-1.54-1.54-1.54h-13.33c-3.26,0-5.98-2.35-6.56-5.45h19.72Zm7.54-10.05h-13.81l-3-3.37c-.57-.64-1.54-.69-2.18-.13-.64,.57-.69,1.54-.13,2.18l1.05,1.18v7.1h-9.31v-14.94c0-3.15,2.56-5.71,5.71-5.71,1.82,0,3.55,.88,4.62,2.35l5.08,6.99c.29,.4,.75,.64,1.25,.64h10.7c1.02,0,1.86,.83,1.86,1.86s-.83,1.86-1.86,1.86Zm17.11,10.98c-2.92,.35-5.82-.64-7.92-2.75s-3.1-5.01-2.75-7.93c2.92-.35,5.82,.64,7.93,2.75,1.81,1.81,2.79,4.21,2.81,6.7v.22c0,.33-.03,.67-.07,1.01Z"/>
    <path class="cls-8" d="M213.76,166.11c-.41,0-.8,.17-1.09,.45-.29,.29-.45,.69-.45,1.09s.16,.8,.45,1.09c.29,.29,.68,.45,1.09,.45s.8-.17,1.09-.45c.29-.29,.45-.69,.45-1.09s-.17-.8-.45-1.09c-.29-.29-.69-.45-1.09-.45Z"/>
  </g>
  <g id="outline">
    <path class="cls-2" d="M163.98,131.64h-14.73v-5.41c.02-.69,.31-1.35,.8-1.85l2.35-2.34c.54-.54,.54-1.41,0-1.95,0,0,0,0,0,0-.54-.53-1.4-.53-1.94,0l-2.37,2.35c-1.02,1.03-1.59,2.41-1.6,3.86v5.41h-4.43l-2.93-14.64c2.31-.87,3.48-3.46,2.6-5.77-.66-1.74-2.33-2.89-4.19-2.89h-26.27c-2.47,0-4.47,2.01-4.47,4.48,0,1.82,1.1,3.45,2.79,4.14l-2.19,9.54c-3.78,.49-7.37,1.91-10.46,4.13-1.09,.77-1.79,1.99-1.9,3.32-.11,1.36,.4,2.7,1.38,3.65l.29,.29c-6.64,7.51-5.94,18.98,1.57,25.62,7.51,6.64,18.98,5.94,25.62-1.57,1.14-1.29,2.09-2.72,2.82-4.28h11.57c2.11,7.43,9.83,11.74,17.26,9.63,4.7-1.33,8.36-5.02,9.66-9.73,3.8-.62,6.6-3.89,6.62-7.74v-10.37c.03-4.33-3.45-7.86-7.78-7.89-.02,0-.04,0-.06,0Zm-52.71-20.47h26.27c.95,0,1.72,.77,1.72,1.72s-.77,1.72-1.72,1.72h-26.27c-.95,0-1.72-.77-1.72-1.72s.77-1.72,1.72-1.72h0Zm1.07,6.2h24.03l3.1,15.41-.59,1.05-4.21-4.21,1.5-1.54c.54-.54,.54-1.42,0-1.96-.54-.54-1.42-.54-1.96,0l-4.89,4.9c-.53,.54-.53,1.4,0,1.94,.26,.26,.61,.4,.98,.4,.36,0,.71-.14,.96-.4l1.38-1.38,4.74,4.75-1.79,3.15h-4.27c-3.91-8.03-12.06-13.11-20.98-13.08h-.14l2.15-9.03Zm-13.77,15.53c9.34-6.55,22.22-4.28,28.77,5.06,1.75,2.49,2.92,5.34,3.44,8.34,.09,.49-.05,1-.39,1.38-.34,.41-.84,.66-1.38,.67h-.41c-.75-9.99-9.45-17.48-19.44-16.73-3.86,.29-7.53,1.81-10.47,4.33l-.28-.29c-.39-.38-.6-.92-.55-1.47,.03-.51,.27-.97,.66-1.29h.04Zm23.7,26.71l-1.25-1.2c-.54-.54-1.41-.54-1.95,0-.54,.54-.54,1.41,0,1.95l1.21,1.21c-2.41,2.01-5.37,3.24-8.5,3.51v-1.71c0-.76-.62-1.38-1.38-1.38s-1.38,.62-1.38,1.38v1.71c-3.12-.28-6.07-1.5-8.47-3.51l1.2-1.2c.53-.54,.53-1.4,0-1.94-.54-.53-1.4-.53-1.94,0l-1.21,1.2c-2.01-2.41-3.24-5.37-3.52-8.5h1.72c.76,0,1.38-.62,1.38-1.38s-.62-1.38-1.38-1.38h-1.72c.28-3.12,1.51-6.08,3.52-8.48l1.21,1.2c.54,.53,1.4,.53,1.94,0,.53-.54,.53-1.4,0-1.94l-1.2-1.21c2.4-2.01,5.36-3.23,8.48-3.51v1.71c0,.76,.62,1.38,1.38,1.38s1.38-.62,1.38-1.38v-1.72c3.12,.28,6.09,1.5,8.5,3.51l-1.21,1.21c-.58,.49-.64,1.36-.15,1.94,.49,.58,1.36,.64,1.94,.15,.05-.05,.1-.1,.15-.15l1.2-1.2c2.02,2.4,3.25,5.36,3.52,8.48h-1.69c-.76,0-1.38,.62-1.38,1.38s.62,1.38,1.38,1.38h1.71c-.27,3.13-1.51,6.09-3.52,8.5h.04Zm29.48,5.51c-6.21,0-11.25-5.04-11.25-11.25,0-6.21,5.04-11.25,11.25-11.25,6.21,0,11.25,5.04,11.25,11.25,0,0,0,0,0,.01,0,6.21-5.02,11.26-11.24,11.26-.02,0-.04,0-.06,0l.04-.03Zm17.35-15.24c0,2.17-1.38,4.1-3.43,4.81v-.76c.24-7.73-5.83-14.19-13.56-14.44-7.73-.24-14.19,5.83-14.44,13.56,0,.29,0,.59,0,.88v1.07h-9.87c.38-1.26,.61-2.56,.7-3.87h.41c1.37,0,2.66-.61,3.54-1.65,.84-1.02,1.18-2.35,.95-3.65-.22-1.23-.53-2.44-.94-3.62h3.94c.49,0,.95-.26,1.2-.69l4.06-7.12h22.31c2.81,0,5.08,2.27,5.08,5.08,0,.02,0,.04,0,.06l.04,10.34Zm-58.68-8.48c-4.62,0-8.36,3.74-8.36,8.36,0,4.62,3.74,8.36,8.36,8.36,4.62,0,8.36-3.74,8.36-8.36,0,0,0,0,0-.01,0-4.61-3.75-8.34-8.36-8.34Zm0,13.95c-3.1,0-5.6-2.51-5.6-5.6s2.51-5.6,5.6-5.6,5.6,2.51,5.6,5.6h0c0,3.1-2.51,5.6-5.6,5.6Zm41.31-7.78c-3.51,0-6.34,2.86-6.33,6.36,0,3.51,2.86,6.34,6.36,6.33,3.5,0,6.33-2.85,6.33-6.35,0-3.51-2.84-6.35-6.35-6.35,0,0-.02,0-.03,0h.01Zm0,9.94c-1.98,0-3.59-1.62-3.58-3.61,0-1.98,1.62-3.59,3.61-3.58,1.98,0,3.58,1.61,3.58,3.59,0,1.98-1.61,3.59-3.59,3.59,0,0-.02,0-.03,0h.01Z"/>
  </g>
  <g id="Outline-2">
    <circle class="cls-3" cx="138.98" cy="103.82" r="1.76"/>
    <path class="cls-22" d="M191.56,73.47h-5.56c-1.2-2.64-4.32-3.81-6.96-2.61-1.16,.53-2.08,1.45-2.61,2.61h-3.34c-7.17,0-12.98-5.81-12.98-12.98s5.81-12.98,12.98-12.98h2.85c.97,0,1.76-.79,1.76-1.76s-.79-1.76-1.76-1.76h-2.85c-9.11,0-16.5,7.39-16.5,16.5s7.39,16.5,16.5,16.5h3.04c.71,2.81,3.57,4.51,6.38,3.8,1.87-.47,3.32-1.93,3.8-3.8h5.26c6.92,0,12.54,5.61,12.54,12.54s-5.61,12.54-12.54,12.54h-45.54c-.97,0-1.76,.79-1.76,1.76s.79,1.76,1.76,1.76h45.54c8.87,0,16.06-7.19,16.06-16.06s-7.19-16.06-16.06-16.06h0Zm-10.35,3.96c-.97,0-1.76-.79-1.76-1.76s.79-1.76,1.76-1.76,1.76,.79,1.76,1.76-.79,1.76-1.76,1.76Z"/>
    <path class="cls-23" d="M153.06,71.28c0-14.09-11.42-25.52-25.51-25.52-14.09,0-25.52,11.42-25.52,25.51,0,10.02,5.86,19.11,14.98,23.24l6.22,8.82c1.71,2.38,5.03,2.92,7.42,1.21,.46-.33,.87-.74,1.21-1.21l6.22-8.82c9.13-4.13,14.99-13.22,14.99-23.24h0Zm-16.83,20.21c-.3,.13-.56,.34-.74,.6l-6.51,9.22c-.6,.79-1.74,.95-2.53,.34-.13-.1-.24-.21-.34-.34l-6.51-9.22c-.19-.27-.44-.47-.74-.6-11.16-4.8-16.32-17.73-11.53-28.89,4.8-11.16,17.73-16.32,28.89-11.53,11.16,4.8,16.32,17.73,11.53,28.89-2.22,5.18-6.35,9.3-11.53,11.53h.01Z"/>
    <path class="cls-21" d="M127.54,55.43c-8.75,0-15.84,7.09-15.84,15.84s7.09,15.84,15.84,15.84,15.84-7.09,15.84-15.84c0-8.74-7.09-15.83-15.84-15.84Zm0,28.16c-6.8,0-12.32-5.52-12.32-12.32s5.52-12.32,12.32-12.32,12.32,5.52,12.32,12.32c0,6.8-5.52,12.31-12.32,12.32Z"/>
    <path class="cls-20" d="M186.49,0c-11.66,.02-21.1,9.49-21.08,21.16,.02,8.79,5.48,16.65,13.71,19.73l3.11,4.42c1.69,2.35,4.97,2.88,7.32,1.19,.46-.33,.86-.73,1.19-1.19l3.11-4.42c10.92-4.09,16.46-16.26,12.36-27.18C203.14,5.48,195.28,.02,186.49,0Zm5.68,37.76c-.35,.12-.66,.35-.87,.65l-3.44,4.88c-.58,.76-1.67,.9-2.44,.32-.12-.09-.23-.2-.32-.32l-3.44-4.87c-.21-.3-.52-.53-.87-.65-9.2-3.14-14.11-13.14-10.97-22.34,3.14-9.2,13.14-14.11,22.34-10.97,9.2,3.14,14.11,13.14,10.97,22.34-1.76,5.16-5.81,9.21-10.97,10.97h0Z"/>
    <path class="cls-10" d="M186.49,8.8c-6.8,0-12.32,5.52-12.32,12.32s5.52,12.32,12.32,12.32,12.32-5.52,12.32-12.32c0-6.8-5.52-12.31-12.32-12.32Zm0,21.12c-4.86,0-8.8-3.94-8.8-8.8s3.94-8.8,8.8-8.8,8.8,3.94,8.8,8.8c0,4.86-3.94,8.79-8.8,8.8Z"/>
  </g>
  <g id="Layer_21" data-name="Layer 21">
    <path class="cls-16" d="M50.03,45.17v.12c0,1.27,.81,2.4,2.02,2.8l2.13,.71c1.7,.57,3.49,.86,5.29,.86h17.43s12.85,9.64,12.85,9.64c.17,.13,.38,.2,.59,.2h5.9c.25,0,.48-.09,.66-.26,.4-.37,.43-.99,.06-1.39l-7.5-8.18h4.12c3.21,0,6.34-.92,9.04-2.65l.63-.4h0c.46-.29,.59-.9,.29-1.36s-.9-.59-1.36-.29l-.63,.4c-2.38,1.53-5.15,2.34-7.97,2.34h-5.93s-1.51-1.65-1.51-1.65c-.19-.2-.45-.32-.72-.32h-10.82c-.31,0-.6,.15-.79,.39-.33,.43-.24,1.05,.2,1.38l.26,.2h-14.81c-1.59,0-3.16-.25-4.67-.76l-2.13-.71c-.4-.13-.67-.51-.67-.93v-.12c0-.42,.27-.8,.67-.93l1.47-.49s.02,0,.04,0h7.15c1.36,0,2.46-1.1,2.46-2.46,0-1.36-1.1-2.46-2.46-2.46h-.25c1.07-.64,2.29-.98,3.54-.98h45.44c.31,0,.6,.16,.77,.42,.28,.43,.16,1-.27,1.28l-1.52,.98-.18-.28c-.18-.27-.49-.44-.82-.44h-5.9c-.31,0-.6,.15-.79,.39-.33,.43-.24,1.05,.2,1.38l7.87,5.9c.17,.13,.38,.2,.59,.2h1.97c.19,0,.38-.06,.54-.17,.45-.3,.57-.91,.27-1.36l-2.65-3.99,1.49-.96c.83-.53,1.33-1.45,1.33-2.43,0-1.6-1.29-2.89-2.89-2.89h-.66s3.5-10.5,3.5-10.5c.03-.1,.05-.21,.05-.31,0-.54-.44-.98-.98-.98h-3.93c-.33,0-.64,.16-.82,.44l-7.57,11.36h-11.85s7.17-7.17,7.17-7.17c.18-.18,.29-.43,.29-.69,0-.54-.44-.98-.98-.98h-4.92c-.18,0-.35,.05-.51,.14l-14.51,8.71h-9.71c-2.69,0-5.23,1.22-6.91,3.32l-.12,.15c-.83,1.04-1.94,1.81-3.2,2.23l-2.35,.79c-1.2,.4-2.01,1.53-2.02,2.79Zm59.91,.25l-4.85-3.64h2.42s2.42,3.64,2.42,3.64Zm-7.93-9.54l6.55-9.83h2.04s-3.28,9.83-3.28,9.83h-5.32Zm-23.85,0l11.47-6.88h2.27s-6.88,6.88-6.88,6.88h-6.86Zm-16.82,5.9h-3.4c.36-.3,.69-.63,.99-.98h2.4c.27,0,.49,.22,.49,.49s-.22,.49-.49,.49Zm16.22,5.9h7.43s9.01,9.83,9.01,9.83h-3.34s-13.11-9.83-13.11-9.83Z"/>
    <path class="cls-18" d="M68.71,43.75c.54,0,.98-.44,.98-.98v-.98c0-.54-.44-.98-.98-.98s-.98,.44-.98,.98v.98c0,.54,.44,.98,.98,.98Z"/>
    <path class="cls-19" d="M73.63,42.77v-.98c0-.54-.44-.98-.98-.98s-.98,.44-.98,.98v.98c0,.54,.44,.98,.98,.98s.98-.44,.98-.98Z"/>
    <path class="cls-11" d="M76.57,43.75c.54,0,.98-.44,.98-.98v-.98c0-.54-.44-.98-.98-.98s-.98,.44-.98,.98v.98c0,.54,.44,.98,.98,.98Z"/>
    <path class="cls-17" d="M80.51,43.75c.54,0,.98-.44,.98-.98v-.98c0-.54-.44-.98-.98-.98s-.98,.44-.98,.98v.98c0,.54,.44,.98,.98,.98Z"/>
    <path class="cls-13" d="M84.44,43.75c.54,0,.98-.44,.98-.98v-.98c0-.54-.44-.98-.98-.98s-.98,.44-.98,.98v.98c0,.54,.44,.98,.98,.98Z"/>
    <path class="cls-14" d="M88.37,43.75c.54,0,.98-.44,.98-.98v-.98c0-.54-.44-.98-.98-.98s-.98,.44-.98,.98v.98c0,.54,.44,.98,.98,.98Z"/>
    <path class="cls-12" d="M92.31,43.75c.54,0,.98-.44,.98-.98v-.98c0-.54-.44-.98-.98-.98s-.98,.44-.98,.98v.98c0,.54,.44,.98,.98,.98Z"/>
    <path class="cls-15" d="M96.24,43.75c.54,0,.98-.44,.98-.98v-.98c0-.54-.44-.98-.98-.98s-.98,.44-.98,.98v.98c0,.54,.44,.98,.98,.98Z"/>
  </g>
  <g>
    <path class="cls-25" d="M222.4,70.32c-.1-.58-.65-.97-1.23-.86l-9.47,1.66c-.58,.1-.97,.65-.86,1.23l3.63,20.78c.05,.28,.21,.53,.44,.69,.23,.16,.52,.23,.79,.18l9.47-1.66c.58-.1,.96-.65,.86-1.23l-.2-1.11,2.25-1.83c.88-.74,2.02-1.1,3.17-1.01l15.44,1.13s.05,0,.07,0c3.42,.01,6.75-1.07,9.51-3.08,.04-.03,.08-.06,.11-.1l18.39-18.01c.4-.39,.43-1.03,.06-1.46-2.09-2.41-5.7-2.76-8.21-.78l-8.52,6.37c-1.73-2.16-4.5-3.2-7.22-2.73l-8.64,1.51c-1.39,.24-2.82,.17-4.17-.22l-.97-.27c-4.99-1.43-10.36-.29-14.34,3.06l-.39-2.25Zm-6.02,21.39l-3.27-18.69,7.38-1.29,3.27,18.69-7.38,1.29Zm20.16-20.16l.97,.27c1.67,.47,3.42,.56,5.12,.27l8.64-1.51c2.56-.44,5.09,.98,6.03,3.4l-13.05,2.28c-.58,.1-.96,.65-.86,1.23s.65,.97,1.23,.86l14.2-2.48c.58-.1,.97-.65,.86-1.23-.1-.55-.25-1.08-.46-1.59l8.72-6.52s.01-.01,.02-.02c1.32-1.04,3.16-1.11,4.55-.17l-17.53,17.17c-2.37,1.71-5.22,2.63-8.15,2.63l-15.41-1.13c-1.69-.13-3.37,.41-4.67,1.49l-1.32,1.07-2.19-12.54c3.46-3.52,8.57-4.86,13.32-3.5Z"/>
    <path class="cls-27" d="M253.99,39.25c.59,0,1.06-.48,1.06-1.06s-.48-1.06-1.06-1.06h-7.73c-.59,0-1.06,.48-1.06,1.06s.48,1.06,1.06,1.06h2.21c.84,.02,1.6,.5,1.99,1.24h-4.2c-.59,0-1.06,.48-1.06,1.06s.48,1.06,1.06,1.06h4.2c-.38,.71-1.13,1.06-1.99,1.06h-2.21c-.44,.01-.83,.29-.99,.69-.16,.41-.06,.87,.26,1.18l5.53,5.23c.27,.27,.67,.38,1.04,.27s.66-.41,.74-.78c.09-.38-.04-.77-.33-1.03l-3.61-3.37c1.83-.17,3.36-1.47,3.81-3.26h1.27c.59,0,1.06-.48,1.06-1.06s-.48-1.06-1.06-1.06h-1.27c-.08-.44-.25-.86-.49-1.24h1.76Z"/>
    <path class="cls-26" d="M227.59,44.11c0,12.45,10.09,22.54,22.54,22.54s22.54-10.09,22.54-22.54-10.09-22.54-22.54-22.54c-12.44,.01-22.52,10.1-22.54,22.54Zm5.54,1.17c.25,3.73,1.73,7.27,4.21,10.08l-2.39,2.39c-3.11-3.44-4.94-7.84-5.2-12.47h3.38Zm5.71,11.58c2.77,2.46,6.27,3.95,9.97,4.23v3.38c-4.59-.29-8.95-2.13-12.36-5.22l2.39-2.39Zm12.09,4.26c3.82-.18,7.47-1.65,10.35-4.16l2.39,2.39c-3.52,3.14-8.02,4.96-12.74,5.15v-3.38Zm-.82-2.11c-8.23,0-14.91-6.67-14.91-14.91s6.67-14.91,14.91-14.91,14.91,6.67,14.91,14.91c0,8.23-6.68,14.9-14.91,14.91Zm11.25-27.69c-2.89-2.56-6.57-4.05-10.43-4.23v-3.38c4.75,.19,9.29,2.03,12.82,5.22l-2.39,2.39Zm-12.56-4.2c-3.73,.29-7.27,1.8-10.05,4.3l-2.39-2.39c3.42-3.13,7.81-5,12.44-5.3v3.38Zm-11.54,5.82c-2.48,2.85-3.94,6.44-4.15,10.21h-3.38c.22-4.67,2.03-9.11,5.14-12.6l2.39,2.39Zm27.92,24.92l-2.39-2.39c2.54-2.82,4.05-6.41,4.31-10.19h3.38c-.27,4.68-2.14,9.13-5.31,12.58h0Zm5.32-14.71h-3.38c-.21-3.82-1.71-7.46-4.25-10.32l2.39-2.39c3.17,3.5,5.03,7.99,5.24,12.71Z"/>
    <path class="cls-24" d="M250.94,17.99V7.54c0-.59-.48-1.06-1.06-1.06s-1.06,.48-1.06,1.06v10.45c0,.59,.48,1.06,1.06,1.06s1.06-.48,1.06-1.06Z"/>
    <path class="cls-28" d="M257.85,17.99v-7.09c0-.59-.48-1.06-1.06-1.06s-1.06,.48-1.06,1.06v7.09c0,.59,.48,1.06,1.06,1.06s1.06-.48,1.06-1.06Z"/>
    <path class="cls-29" d="M244.21,17.99v-7.09c0-.59-.48-1.06-1.06-1.06s-1.06,.48-1.06,1.06v7.09c0,.59,.48,1.06,1.06,1.06s1.06-.48,1.06-1.06Z"/>
    <path class="cls-30" d="M262.81,19.76v-5.49c0-.59-.48-1.06-1.06-1.06s-1.06,.48-1.06,1.06v5.49c0,.59,.48,1.06,1.06,1.06s1.06-.48,1.06-1.06Z"/>
    <path class="cls-31" d="M239.07,19.76v-5.49c0-.59-.48-1.06-1.06-1.06s-1.06,.48-1.06,1.06v5.49c0,.59,.48,1.06,1.06,1.06s1.06-.48,1.06-1.06Z"/>
  </g>
</svg>