<?xml version="1.0" encoding="UTF-8"?>
<svg id="Layer_1" data-name="Layer 1" xmlns="http://www.w3.org/2000/svg" viewBox="0 0 341.83 99.99">
  <defs>
    <style>
      .cls-1 {
        fill: #81c45c;
      }

      .cls-1, .cls-2, .cls-3, .cls-4 {
        stroke-width: 0px;
      }

      .cls-2 {
        fill: #14b14b;
      }

      .cls-3 {
        fill: #fff;
      }

      .cls-4 {
        fill: #008b47;
      }
    </style>
  </defs>
  <g>
    <g>
      <g>
        <path class="cls-2" d="M104.35,47.56L.03,47c.19-3.88,1.12-8.64,2.07-12.08.73-2.66,2.9-4.84,5.63-5.2.97-.13,1.99-.04,3,.45,7.95,3.83,13.78,15.85,22.84,10.73,9.1-5.12,13.48-13.22,21.31-10.69,7.88,2.53,11.96,11.63,21.5,11.68,9.5.05,13.16-11.5,20.21-11.46,2.83.02,4.58,2.82,6.13,6.05.9,3.57,1.49,7.25,1.63,11.08Z"/>
        <path class="cls-1" d="M82.62,7.27l-60.4-.33c2.38-1.68,4.91-3.15,7.57-4.41,2.89-1.37,6.05-2.21,9.24-2.14,1.49.03,2.81.22,3.83.65,5.81,2.44,8.02,3.45,15.24,1,3.45-1.18,6.07-1.69,9.34-1.36,3.21.32,6.29,1.44,9.13,2.97,2.06,1.11,4.54,2.52,6.04,3.61Z"/>
        <path class="cls-4" d="M98.84,26.27l-68.02-.37c1.52-4.2,6.6-16.36,15.33-15.5,10.53.98,8.17,11.5,17.67,11.55,9.54.05,6.92-11.26,16.15-11.36,6.79-.1,12.56,6.24,15.18,9.63.9,1.16,1.69,2.39,2.4,3.67.45.81.97,1.75,1.29,2.39Z"/>
      </g>
      <g>
        <path class="cls-2" d="M0,52.43l104.32.56c-.19,3.88-1.12,8.64-2.07,12.08-.73,2.66-2.9,4.84-5.63,5.2-.97.13-1.99.04-3-.45-7.95-3.83-13.78-15.85-22.84-10.73-9.1,5.12-13.48,13.22-21.31,10.69-7.88-2.53-11.96-11.63-21.5-11.68-9.5-.05-13.16,11.5-20.21,11.46-2.83-.02-4.58-2.82-6.13-6.05-.9-3.57-1.49-7.25-1.63-11.08Z"/>
        <path class="cls-1" d="M21.73,92.72l60.4.33c-2.38,1.68-4.91,3.15-7.57,4.41-2.89,1.37-6.05,2.21-9.24,2.14-1.49-.03-2.81-.22-3.83-.65-5.81-2.44-8.02-3.45-15.24-1-3.45,1.18-6.07,1.69-9.34,1.36-3.21-.32-6.29-1.44-9.13-2.97-2.06-1.11-4.54-2.52-6.04-3.61Z"/>
        <path class="cls-4" d="M5.51,73.71l68.02.37c-1.52,4.2-6.6,16.36-15.33,15.5-10.53-.98-8.17-11.5-17.67-11.55-9.54-.05-6.92,11.26-16.15,11.36-6.79.1-12.56-6.24-15.18-9.63-.9-1.16-1.69-2.39-2.4-3.67-.45-.81-.97-1.75-1.29-2.39Z"/>
      </g>
    </g>
    <g>
      <path class="cls-3" d="M124.79,54.18l-7.82-.04.12-21.67c.06-11.4,5.97-17.06,17.71-17,11.74.06,17.58,5.79,17.52,17.19l-.12,21.67-7.82-.04.12-21.67c.03-6.33-3.22-9.52-9.74-9.56-6.53-.04-9.81,3.12-9.85,9.45l-.12,21.67Z"/>
      <path class="cls-3" d="M193.06,54.55l-7.82-.04.02-3.24c-1.63,1.32-3.5,2.3-5.6,2.95-2.11.65-4.43.97-6.95.96-4.61-.02-8.26-1.09-10.96-3.19-2.7-2.1-4.03-5-4.01-8.68.01-2.55.68-4.62,2.01-6.21,1.32-1.59,3.02-2.83,5.11-3.73,2.08-.9,4.4-1.5,6.96-1.8,2.56-.3,5.1-.45,7.63-.44,2.08.01,4.02.1,5.84.25-.14-1.62-.53-2.95-1.15-3.99-.63-1.03-1.4-1.86-2.3-2.48-.91-.62-1.93-1.04-3.07-1.27s-2.29-.34-3.45-.35c-1.06,0-2.09.09-3.07.28-.99.19-1.88.57-2.66,1.13-.79.56-1.43,1.36-1.91,2.38-.49,1.03-.78,2.36-.89,3.98l-8.43-.05c.11-2.45.66-4.64,1.63-6.55.97-1.91,2.24-3.51,3.82-4.81,1.58-1.29,3.4-2.27,5.48-2.96,2.08-.68,4.28-1.01,6.61-.99,2.27.01,4.45.36,6.52,1.03,2.07.68,3.91,1.72,5.53,3.13,1.61,1.41,2.89,3.2,3.84,5.36.95,2.17,1.42,4.75,1.4,7.74l-.12,21.59ZM185.33,38.15c-2.43-.31-4.68-.47-6.76-.48-3.85-.02-6.91.44-9.2,1.39-2.28.95-3.43,2.35-3.44,4.22,0,.89.23,1.6.71,2.14.48.55,1.09.98,1.85,1.3.76.32,1.62.55,2.58.68.96.13,1.9.19,2.81.2,3.34.02,6.04-.56,8.1-1.73,2.05-1.17,3.17-2.83,3.33-4.99v-2.73Z"/>
      <path class="cls-3" d="M222.37,54.71c-.92.48-2.62.72-5.09.71-5.07-.03-8.91-1.27-11.52-3.71-2.62-2.45-3.91-6.42-3.88-11.92l.09-16.36-4.56-.02.04-6.78,4.56.02.05-9.95,7.82.04-.05,9.95,11.85.06-.04,6.78-11.85-.06-.09,16.36c-.02,2.95.7,5,2.13,6.16,1.44,1.17,3.6,1.75,6.49,1.77,1.11,0,1.98-.05,2.62-.17.63-.12,1.13-.28,1.48-.47l-.04,7.59Z"/>
      <path class="cls-3" d="M234.92,38.42c-.03,6.34,3.21,9.53,9.74,9.56,6.53.04,9.81-3.12,9.85-9.46l.12-21.59,7.82.04-.12,21.59c-.06,11.4-5.97,17.07-17.71,17-11.75-.06-17.59-5.79-17.53-17.19l.12-21.59,7.82.04-.12,21.59Z"/>
      <path class="cls-3" d="M286.39,24.7c-.3-.2-.66-.39-1.06-.56s-.96-.26-1.67-.27c-2.27-.01-4.03.84-5.25,2.55-1.23,1.71-1.84,4.02-1.86,6.92l-.12,21.67-7.82-.04.12-21.67c.03-5.45,1.27-9.66,3.71-12.62,2.45-2.96,5.74-4.43,9.9-4.4.91,0,1.73.08,2.47.23s1.28.35,1.63.6l-.04,7.59Z"/>
      <path class="cls-3" d="M324.28,55.26l-7.82-.04.02-3.24c-1.63,1.32-3.5,2.3-5.6,2.95-2.11.65-4.43.97-6.95.96-4.61-.02-8.26-1.09-10.96-3.19-2.7-2.1-4.03-5-4.01-8.68.01-2.55.68-4.62,2.01-6.21,1.32-1.59,3.02-2.83,5.11-3.73,2.08-.9,4.4-1.5,6.96-1.8,2.56-.3,5.1-.45,7.63-.44,2.08.01,4.02.1,5.84.25-.14-1.62-.53-2.95-1.15-3.99-.63-1.03-1.4-1.86-2.3-2.48-.91-.62-1.93-1.04-3.07-1.27-1.14-.23-2.29-.34-3.45-.35-1.06,0-2.09.09-3.07.28-.99.19-1.88.57-2.66,1.13-.79.56-1.43,1.36-1.91,2.38-.49,1.03-.78,2.36-.89,3.98l-8.43-.05c.11-2.45.66-4.64,1.63-6.55.97-1.91,2.24-3.51,3.82-4.81,1.58-1.29,3.4-2.27,5.48-2.96,2.08-.68,4.28-1.01,6.61-.99,2.27.01,4.45.36,6.52,1.03,2.07.68,3.91,1.72,5.53,3.13,1.61,1.41,2.89,3.2,3.84,5.36.95,2.17,1.42,4.75,1.4,7.74l-.12,21.59ZM316.55,38.86c-2.43-.31-4.68-.47-6.76-.48-3.85-.02-6.91.44-9.2,1.39-2.28.95-3.43,2.35-3.44,4.22,0,.89.23,1.6.71,2.14.48.55,1.09.98,1.85,1.3.76.32,1.62.55,2.58.68.96.13,1.9.19,2.81.2,3.34.02,6.04-.56,8.1-1.73,2.05-1.17,3.17-2.83,3.33-4.99v-2.73Z"/>
      <path class="cls-3" d="M331.11,55.3l.26-48.06,7.82.04-.26,48.06-7.82-.04Z"/>
    </g>
  </g>
  <g>
    <path class="cls-3" d="M125.99,75.08h-1.52c-.17,0-.31-.05-.42-.13-.11-.08-.19-.19-.24-.31l-.78-2.09-4.37-.02-.8,2.09c-.04.11-.12.21-.23.3-.11.09-.25.13-.42.13h-1.53s4.21-10.23,4.21-10.23h2s4.09,10.28,4.09,10.28ZM122.55,71.2l-1.27-3.41c-.06-.15-.13-.33-.19-.54-.07-.21-.13-.43-.2-.67-.06.24-.13.47-.2.68-.07.21-.14.39-.2.55l-1.3,3.39,3.36.02Z"/>
    <path class="cls-3" d="M133.41,68.1v.65c0,.21-.13.33-.39.38l-.67.12c.1.25.15.53.15.82,0,.36-.08.68-.23.97-.15.29-.36.54-.62.74-.26.2-.57.36-.93.47-.36.11-.74.16-1.16.16-.15,0-.29,0-.42-.02-.14-.01-.27-.03-.4-.06-.23.14-.35.29-.35.46,0,.15.07.25.21.32s.32.12.55.15c.23.03.49.05.78.06.29,0,.59.03.9.05.31.03.61.07.9.13.29.06.55.16.78.28.23.13.41.3.55.52.14.22.21.5.2.85,0,.32-.09.63-.25.93-.16.3-.4.57-.71.8-.31.23-.69.42-1.14.56-.45.14-.96.21-1.54.21-.56,0-1.06-.06-1.47-.17-.42-.11-.77-.25-1.04-.43s-.48-.38-.62-.62c-.13-.23-.2-.47-.2-.72,0-.34.11-.62.32-.85.21-.23.51-.41.88-.54-.2-.1-.36-.23-.47-.4-.12-.17-.17-.38-.17-.65,0-.11.02-.22.06-.34.04-.12.1-.23.18-.34s.18-.22.3-.32c.12-.1.27-.19.43-.27-.38-.2-.67-.47-.89-.8-.22-.33-.32-.72-.32-1.16,0-.36.08-.68.23-.97.15-.29.36-.54.62-.74.27-.2.58-.36.94-.47.36-.11.76-.16,1.19-.16.32,0,.62.04.9.1.28.07.54.16.77.28h2.15ZM131.58,75.44c0-.14-.04-.26-.13-.35s-.21-.16-.36-.21c-.15-.05-.33-.09-.53-.11-.2-.02-.42-.04-.64-.06s-.46-.02-.7-.04c-.24-.01-.48-.03-.7-.06-.2.11-.36.23-.49.38-.13.15-.19.32-.19.51,0,.13.03.25.1.36.07.11.17.21.31.29.14.08.33.14.56.19.23.05.51.07.84.07.34,0,.63-.02.87-.07.24-.05.45-.12.6-.2.16-.09.27-.19.35-.31.07-.12.11-.25.11-.39ZM129.56,71.29c.22,0,.42-.03.58-.09.17-.06.3-.14.41-.24.11-.1.19-.23.25-.37s.09-.31.09-.48c0-.36-.11-.64-.33-.86-.22-.21-.55-.32-1-.32-.44,0-.78.1-1,.31-.22.21-.34.49-.34.85,0,.17.03.33.08.48.05.15.14.27.25.38.11.11.25.19.41.25.17.06.36.09.58.09Z"/>
    <path class="cls-3" d="M136.25,69.13c.24-.43.51-.77.84-1.02.32-.25.7-.37,1.14-.37.35,0,.62.08.83.22l-.12,1.31c-.02.08-.06.15-.11.18-.05.04-.11.05-.19.05-.07,0-.18-.01-.32-.04-.14-.02-.28-.04-.42-.04-.2,0-.38.03-.53.08-.16.06-.3.14-.42.24-.12.11-.24.23-.33.38-.1.15-.19.32-.27.52l-.02,4.48h-1.8s.04-7.28.04-7.28h1.06c.18,0,.31.04.39.1s.12.18.14.34l.1.82Z"/>
    <path class="cls-3" d="M143.1,67.8c.55,0,1.06.09,1.51.27.45.18.84.43,1.16.75.32.32.57.72.74,1.18.17.46.26.98.25,1.55,0,.58-.09,1.1-.27,1.56-.18.46-.43.85-.75,1.18-.33.32-.72.57-1.17.74-.46.17-.96.26-1.52.25-.56,0-1.07-.09-1.52-.27-.46-.18-.85-.43-1.17-.76-.32-.33-.57-.72-.75-1.19-.18-.46-.26-.98-.26-1.56,0-.57.09-1.09.27-1.55.18-.46.43-.85.76-1.17.32-.32.72-.57,1.18-.74.46-.17.97-.26,1.53-.25ZM143.07,73.94c.62,0,1.09-.2,1.39-.6.3-.4.45-1,.46-1.78,0-.78-.14-1.38-.44-1.79-.3-.41-.76-.62-1.38-.62-.63,0-1.1.2-1.41.61-.31.41-.46,1.01-.47,1.79s.14,1.37.45,1.78c.3.41.77.62,1.4.62Z"/>
    <path class="cls-3" d="M151.54,68.97c.86-.76,1.9-1.14,3.12-1.13.44,0,.83.07,1.17.22.34.14.64.34.87.59.24.25.42.55.54.89.12.35.18.72.18,1.13l-.02,4.59h-.82c-.17,0-.3-.03-.39-.08-.09-.05-.16-.15-.22-.3l-.16-.53c-.19.16-.38.31-.56.43s-.37.23-.56.31c-.2.08-.4.15-.63.19-.22.04-.47.06-.73.06-.32,0-.61-.04-.88-.13s-.5-.21-.69-.38c-.19-.17-.34-.37-.45-.62-.11-.25-.16-.53-.16-.86,0-.18.03-.37.1-.55.06-.18.17-.35.31-.52.14-.16.33-.32.56-.46.23-.15.51-.27.84-.38.33-.11.72-.19,1.17-.26s.95-.1,1.52-.12v-.43c0-.49-.1-.85-.31-1.08-.21-.24-.52-.35-.92-.36-.29,0-.53.03-.73.1-.19.07-.36.14-.51.22-.15.08-.28.16-.4.22-.12.07-.25.1-.4.1-.13,0-.23-.03-.32-.1-.09-.06-.16-.14-.21-.22l-.32-.56ZM155.65,72.14c-.52.02-.96.06-1.31.12-.36.06-.64.14-.86.24s-.37.21-.46.34c-.09.13-.14.28-.14.43,0,.31.09.53.28.66.19.13.43.2.73.2.37,0,.69-.06.96-.19.27-.13.54-.32.79-.59v-1.23Z"/>
    <path class="cls-3" d="M160.81,68.9c.15-.15.31-.28.48-.4.17-.12.35-.23.53-.32.19-.09.39-.15.6-.2.21-.05.45-.07.7-.07.41,0,.77.07,1.09.21.32.14.58.33.79.57s.37.54.48.87c.11.34.16.71.16,1.12l-.02,4.63h-1.8s.02-4.64.02-4.64c0-.44-.1-.79-.31-1.03-.21-.24-.53-.37-.95-.37-.31,0-.6.07-.88.2-.27.14-.53.32-.78.56l-.03,5.26h-1.8s.04-7.28.04-7.28h1.1c.23,0,.39.11.46.33l.12.57Z"/>
    <path class="cls-3" d="M173.89,64.82l-.06,10.53h-1.1c-.24,0-.39-.11-.45-.33l-.15-.7c-.3.33-.65.6-1.04.81-.39.21-.85.31-1.37.3-.41,0-.78-.09-1.12-.25-.34-.17-.63-.41-.88-.72-.24-.32-.43-.7-.56-1.17-.13-.46-.2-.99-.19-1.59,0-.54.08-1.04.23-1.5.15-.46.37-.86.66-1.2.28-.34.62-.6,1.02-.79.4-.19.84-.28,1.33-.28.42,0,.78.07,1.07.2.3.13.56.3.79.52l.02-3.83h1.8ZM172.05,69.92c-.2-.24-.43-.41-.67-.51-.24-.1-.5-.15-.78-.15-.27,0-.52.05-.74.14s-.41.25-.56.45c-.16.2-.28.45-.36.76-.08.31-.13.67-.13,1.09,0,.43.03.79.1,1.08.07.3.17.54.3.72.13.19.29.32.48.41.19.08.4.13.63.13.37,0,.69-.07.96-.22.26-.15.51-.36.75-.64l.02-3.26Z"/>
    <path class="cls-3" d="M186.86,66.74l-3.18-.02-.05,8.68h-1.96s.05-8.69.05-8.69l-3.18-.02v-1.57s8.34.05,8.34.05v1.57Z"/>
    <path class="cls-3" d="M189.51,68.05c.55,0,1.06.09,1.51.27.45.18.84.43,1.16.75.32.32.57.72.74,1.18.17.46.26.98.25,1.55,0,.58-.09,1.1-.27,1.56-.18.46-.43.85-.75,1.18-.33.32-.72.57-1.17.74-.46.17-.96.26-1.52.25-.56,0-1.07-.09-1.52-.27-.46-.18-.85-.43-1.17-.76-.32-.33-.57-.72-.75-1.19-.18-.46-.26-.98-.26-1.56,0-.57.09-1.09.27-1.55.18-.46.43-.85.76-1.17.32-.32.72-.57,1.18-.74.46-.17.97-.26,1.53-.25ZM189.48,74.19c.62,0,1.09-.2,1.39-.6.3-.4.45-1,.46-1.78,0-.78-.14-1.38-.44-1.79-.3-.41-.76-.62-1.38-.62-.63,0-1.1.2-1.41.61-.31.41-.46,1.01-.47,1.79,0,.78.14,1.37.45,1.78.3.41.77.62,1.4.62Z"/>
    <path class="cls-3" d="M201.04,68.22l-.04,7.27h-1.1c-.24,0-.39-.11-.45-.33l-.12-.58c-.31.3-.65.54-1.02.73-.37.18-.81.28-1.31.27-.41,0-.77-.07-1.08-.21-.31-.14-.58-.33-.79-.57s-.37-.54-.48-.88c-.11-.34-.16-.71-.16-1.12l.03-4.62h1.8s-.03,4.63-.03,4.63c0,.44.1.79.31,1.03.21.24.53.37.95.37.31,0,.6-.06.88-.2.27-.13.53-.32.78-.55l.03-5.26h1.8Z"/>
    <path class="cls-3" d="M204.51,69.5c.24-.43.51-.77.84-1.02.32-.25.7-.37,1.14-.37.35,0,.62.08.83.22l-.12,1.31c-.02.08-.06.14-.11.18-.05.04-.11.05-.19.05-.07,0-.18-.01-.32-.04-.14-.02-.28-.04-.42-.04-.2,0-.38.03-.53.08-.16.06-.3.14-.42.24-.12.11-.24.23-.33.38-.1.15-.19.32-.27.52l-.02,4.48h-1.8s.04-7.28.04-7.28h1.06c.18,0,.31.04.39.1.07.06.12.18.14.34l.1.82Z"/>
    <path class="cls-3" d="M210.39,66.15c0,.15-.03.29-.1.42-.06.13-.15.25-.25.35-.11.1-.23.18-.37.24-.14.06-.29.09-.45.09-.16,0-.3-.03-.44-.09-.14-.06-.26-.14-.36-.24-.1-.1-.18-.22-.24-.35-.06-.13-.09-.27-.09-.43,0-.16.03-.3.09-.44.06-.14.14-.25.25-.35.1-.1.22-.18.36-.24.14-.06.29-.09.44-.09.16,0,.31.03.45.09s.26.14.37.24c.1.1.19.22.25.36.06.14.09.28.09.44ZM210.13,68.27l-.04,7.27h-1.81s.04-7.28.04-7.28h1.81Z"/>
    <path class="cls-3" d="M216.53,69.72c-.05.08-.1.13-.15.16-.05.03-.12.05-.2.04-.09,0-.18-.02-.28-.07-.1-.05-.21-.1-.35-.16-.13-.06-.28-.11-.45-.16-.17-.05-.37-.07-.59-.07-.36,0-.63.07-.84.22-.2.15-.3.34-.31.57,0,.16.05.29.16.39.1.11.24.2.41.28s.37.15.59.22c.22.06.44.14.67.21.23.08.45.16.67.26.22.1.41.22.59.37.17.15.31.33.41.54.1.21.15.46.15.75,0,.35-.07.67-.2.97-.13.29-.32.55-.58.76-.25.21-.57.38-.94.5-.37.12-.8.18-1.29.17-.26,0-.51-.03-.76-.07-.25-.05-.48-.11-.71-.19-.23-.08-.43-.18-.63-.29-.19-.11-.36-.23-.51-.36l.42-.66c.05-.08.12-.14.19-.18.07-.04.17-.06.28-.06.11,0,.22.03.32.09.1.06.21.13.35.2.13.07.28.14.46.2.18.06.4.09.67.1.21,0,.4-.02.55-.07.15-.05.28-.11.38-.19s.17-.17.22-.28c.05-.11.07-.22.07-.33,0-.17-.05-.31-.15-.42-.1-.11-.24-.2-.41-.29s-.37-.15-.59-.22-.45-.14-.68-.21c-.23-.08-.46-.17-.68-.27-.22-.1-.42-.23-.59-.39-.17-.16-.31-.35-.41-.58-.1-.23-.15-.5-.15-.82,0-.3.06-.58.19-.85.12-.27.3-.5.54-.7.24-.2.53-.36.89-.48.35-.12.76-.18,1.22-.17.52,0,.98.09,1.41.26.42.17.77.39,1.05.66l-.41.63Z"/>
    <path class="cls-3" d="M218.35,75.58l.04-7.27h1.1c.23,0,.39.11.46.33l.11.54c.13-.14.27-.27.41-.39s.3-.22.46-.3c.16-.08.34-.15.53-.2.19-.05.39-.07.62-.07.47,0,.86.13,1.16.38.3.25.53.58.68.99.12-.24.27-.45.44-.62.18-.17.37-.31.58-.42.21-.11.43-.19.67-.24.24-.05.47-.08.71-.07.41,0,.78.07,1.1.19.32.12.59.31.81.54.22.24.38.53.5.87.11.34.17.73.16,1.17l-.02,4.63h-1.8s.02-4.64.02-4.64c0-.46-.1-.81-.31-1.05-.21-.24-.51-.35-.92-.36-.18,0-.36.03-.51.09s-.3.15-.42.26c-.12.12-.21.26-.28.43-.07.17-.1.37-.11.6l-.02,4.63h-1.81s.02-4.64.02-4.64c0-.49-.1-.84-.3-1.06-.2-.22-.5-.34-.89-.34-.26,0-.51.06-.73.18-.23.12-.44.29-.63.51l-.03,5.32h-1.8Z"/>
    <path class="cls-3" d="M245.91,65.49l-.05,10.24h-1.73s.04-6.63.04-6.63c0-.26.02-.55.05-.86l-3.22,5.8c-.15.28-.38.42-.7.41h-.28c-.31,0-.54-.14-.69-.42l-3.19-5.85c.01.16.03.31.03.46,0,.15.01.29.01.42l-.04,6.62h-1.73s.05-10.25.05-10.25h1.48c.09,0,.16.01.23.02.06,0,.12.02.17.04.05.02.1.05.14.09.04.04.08.1.12.17l3.13,5.7c.08.15.16.31.23.47.07.16.14.33.21.5.07-.17.14-.34.21-.51.07-.16.15-.32.24-.47l3.15-5.66c.04-.07.08-.13.13-.17.04-.04.09-.07.14-.09.05-.02.11-.03.17-.03.06,0,.14,0,.23,0h1.48Z"/>
    <path class="cls-3" d="M247.59,69.49c.87-.76,1.9-1.14,3.12-1.13.44,0,.83.07,1.17.22.34.14.64.34.87.59.24.25.42.55.54.89.12.35.18.72.18,1.13l-.02,4.59h-.82c-.17,0-.3-.03-.39-.08-.09-.05-.16-.15-.22-.3l-.16-.52c-.19.16-.38.31-.56.43-.18.12-.37.23-.56.31-.2.08-.4.15-.63.19-.22.04-.47.06-.73.06-.32,0-.61-.04-.88-.13-.27-.08-.5-.21-.69-.38-.19-.17-.34-.37-.45-.62-.11-.25-.16-.53-.16-.86,0-.18.03-.37.1-.55.06-.18.17-.35.31-.52.14-.16.33-.32.56-.46.23-.15.51-.27.84-.38.33-.11.72-.19,1.17-.26.44-.07.95-.1,1.52-.12v-.43c0-.49-.1-.85-.31-1.08-.21-.24-.52-.35-.92-.36-.29,0-.53.03-.73.1-.19.07-.36.14-.51.22-.15.08-.28.16-.4.22-.12.07-.25.1-.4.1-.13,0-.23-.03-.32-.1-.09-.06-.16-.14-.21-.22l-.32-.56ZM251.7,72.66c-.52.02-.96.06-1.31.12-.36.06-.64.14-.86.24-.21.1-.37.21-.46.34s-.14.28-.14.43c0,.31.09.53.28.66.19.13.43.2.73.2.37,0,.69-.06.96-.19.27-.13.54-.32.79-.59v-1.23Z"/>
    <path class="cls-3" d="M256.87,69.78c.24-.43.51-.77.84-1.02s.7-.37,1.14-.37c.35,0,.62.08.83.22l-.12,1.31c-.02.08-.06.14-.11.18-.05.04-.11.05-.19.05-.07,0-.18-.01-.32-.04-.14-.02-.28-.04-.42-.04-.2,0-.38.03-.53.08-.16.06-.3.14-.42.24-.12.11-.24.23-.33.38-.1.15-.19.32-.27.52l-.02,4.48h-1.8s.04-7.28.04-7.28h1.06c.18,0,.31.04.39.1.07.06.12.18.14.34l.1.82Z"/>
    <path class="cls-3" d="M262.44,65.29l-.03,6.03h.34c.12,0,.22-.01.29-.04.07-.03.14-.09.22-.19l1.87-2.22c.08-.1.17-.17.26-.23s.22-.08.37-.08h1.65s-2.34,2.7-2.34,2.7c-.17.21-.35.37-.54.49.1.07.19.15.27.25.08.09.16.2.23.31l2.48,3.54h-1.63c-.14,0-.26-.03-.36-.08-.1-.05-.19-.13-.25-.25l-1.9-2.77c-.07-.11-.14-.18-.21-.21-.07-.03-.18-.05-.33-.05h-.41s-.02,3.33-.02,3.33h-1.8s.06-10.54.06-10.54h1.8Z"/>
    <path class="cls-3" d="M269.41,72.44c.03.37.09.7.2.97.11.27.25.5.42.68.17.18.38.31.62.4.24.09.51.13.8.14.29,0,.54-.03.76-.09s.4-.14.56-.22c.16-.08.3-.15.42-.22.12-.07.24-.1.35-.1.15,0,.26.06.34.16l.51.64c-.2.23-.43.41-.67.57-.25.15-.51.27-.78.36s-.55.15-.83.19-.55.05-.81.05c-.52,0-1-.09-1.45-.26-.45-.17-.83-.42-1.16-.75-.33-.33-.59-.74-.77-1.22-.19-.49-.28-1.05-.28-1.68,0-.5.09-.96.26-1.4.17-.44.41-.81.72-1.14.31-.32.69-.58,1.14-.76.45-.19.95-.28,1.51-.28.47,0,.91.08,1.31.23.4.15.74.36,1.03.65.29.28.51.63.67,1.04.16.41.24.88.24,1.4,0,.26-.03.44-.09.53-.06.09-.17.14-.34.14l-4.64-.02ZM272.85,71.41c0-.23-.03-.44-.09-.64-.06-.2-.16-.38-.29-.53-.13-.15-.3-.27-.5-.36-.2-.09-.44-.13-.7-.13-.52,0-.93.14-1.23.43-.3.29-.49.69-.58,1.22l3.4.02Z"/>
    <path class="cls-3" d="M283.28,75.93h-1.8s.03-5.97.03-5.97l-3.47-.02-.02,3.94c0,.23.05.4.17.53.11.13.27.19.47.19.11,0,.21-.01.28-.04.08-.03.14-.05.2-.08s.11-.05.15-.08c.04-.03.09-.04.13-.04.05,0,.1.01.13.04.03.03.07.07.11.12l.54.85c-.26.21-.57.37-.91.48-.34.11-.69.16-1.06.16-.65,0-1.15-.18-1.5-.54-.35-.36-.52-.85-.51-1.48l.02-4.06h-.77c-.1,0-.18-.04-.25-.1-.07-.06-.1-.15-.1-.28v-.69s1.21-.19,1.21-.19l.39-1.97c.02-.09.07-.17.14-.22.07-.05.16-.08.26-.08h.93s-.01,2.29-.01,2.29l5.28.03-.04,7.2ZM283.65,66.52c0,.15-.03.29-.1.43-.06.13-.15.25-.25.35-.11.1-.23.18-.37.24-.14.06-.3.09-.46.09-.16,0-.3-.03-.44-.09-.14-.06-.25-.14-.36-.24-.1-.1-.18-.22-.24-.35-.06-.13-.09-.28-.09-.43,0-.16.03-.3.09-.44.06-.13.14-.25.25-.35.1-.1.22-.18.36-.24.14-.06.28-.09.44-.09.16,0,.31.03.46.09.14.06.27.14.37.24.1.1.19.22.25.36.06.13.09.28.09.44Z"/>
    <path class="cls-3" d="M286.84,69.58c.15-.15.31-.28.48-.4.17-.12.35-.23.53-.32.19-.09.39-.15.6-.2.21-.05.45-.07.7-.07.41,0,.77.07,1.09.21.32.14.58.33.79.57.21.24.37.54.48.87.11.34.16.71.16,1.12l-.02,4.63h-1.8s.02-4.64.02-4.64c0-.44-.1-.79-.31-1.03-.21-.24-.53-.37-.95-.37-.31,0-.6.07-.88.2-.27.14-.53.32-.78.56l-.03,5.26h-1.8s.04-7.28.04-7.28h1.1c.23,0,.39.11.46.33l.12.57Z"/>
    <path class="cls-3" d="M299.96,69v.65c0,.21-.13.33-.39.38l-.67.12c.1.25.15.53.15.82,0,.36-.08.68-.23.97-.15.29-.36.54-.62.74-.26.2-.57.36-.93.47-.36.11-.74.16-1.16.16-.15,0-.29,0-.42-.02-.14-.01-.27-.03-.4-.06-.23.14-.35.29-.35.46,0,.15.07.25.21.32s.32.12.55.15c.23.03.49.05.78.06.29,0,.59.03.9.05.31.03.61.07.9.13.29.06.55.16.78.28.23.13.41.3.55.52.14.22.21.5.2.85,0,.32-.09.63-.25.93-.16.3-.4.57-.71.8-.31.23-.69.42-1.14.56-.45.14-.96.21-1.54.21-.56,0-1.06-.06-1.47-.17-.42-.11-.77-.25-1.04-.43s-.48-.38-.62-.62c-.13-.23-.2-.47-.2-.72,0-.34.11-.62.32-.85.21-.23.51-.41.88-.54-.2-.1-.36-.23-.47-.4s-.17-.38-.17-.65c0-.11.02-.22.06-.34.04-.12.1-.23.18-.34.08-.11.18-.22.3-.32.12-.1.27-.19.43-.27-.38-.2-.67-.47-.89-.8-.22-.33-.32-.72-.32-1.16,0-.36.08-.68.23-.97.15-.29.36-.54.62-.74.27-.2.58-.36.94-.47.36-.11.76-.16,1.19-.16.32,0,.62.04.9.1.28.07.54.16.77.28h2.15ZM298.13,76.34c0-.14-.04-.26-.13-.35s-.21-.16-.36-.21c-.15-.05-.33-.09-.53-.11-.2-.02-.42-.04-.64-.06-.23-.01-.46-.02-.7-.04-.24-.01-.48-.03-.7-.06-.2.11-.36.23-.49.38-.13.15-.19.32-.19.51,0,.13.03.25.1.36.07.11.17.21.31.29.14.08.33.14.56.19.23.05.51.07.84.07.34,0,.63-.02.87-.07.24-.05.45-.12.6-.2.16-.09.27-.19.35-.31.07-.12.11-.25.11-.39ZM296.11,72.19c.22,0,.42-.03.58-.09.17-.06.3-.14.41-.24.11-.1.19-.23.25-.37s.09-.31.09-.48c0-.36-.11-.64-.33-.86-.22-.21-.55-.32-1-.32-.44,0-.78.1-1,.31-.22.21-.34.49-.34.85,0,.17.03.33.08.48.05.15.14.27.25.38.11.11.25.19.41.25.17.06.36.09.58.09Z"/>
    <path class="cls-3" d="M316.4,65.87l-.05,10.24h-1.73s.04-6.63.04-6.63c0-.26.02-.55.05-.86l-3.22,5.8c-.15.28-.38.42-.7.41h-.28c-.31,0-.54-.14-.69-.42l-3.19-5.85c.01.16.03.31.03.46,0,.15.01.29.01.42l-.04,6.62h-1.73s.05-10.25.05-10.25h1.48c.09,0,.16.01.23.02s.12.02.17.04c.05.02.1.05.14.09.04.04.08.1.12.17l3.13,5.7c.08.15.16.31.23.47.07.16.14.33.21.5.07-.17.14-.34.21-.51.07-.16.15-.32.24-.47l3.15-5.66c.04-.07.08-.13.13-.17.04-.04.09-.07.14-.09.05-.02.11-.03.17-.03.06,0,.14,0,.23,0h1.48Z"/>
    <path class="cls-3" d="M324.76,68.89l-.04,7.27h-1.1c-.24,0-.39-.11-.45-.33l-.12-.58c-.31.3-.65.54-1.02.73-.37.18-.81.28-1.31.27-.41,0-.77-.07-1.08-.21s-.58-.33-.79-.57-.37-.54-.48-.88-.16-.71-.16-1.12l.03-4.62h1.8s-.03,4.63-.03,4.63c0,.44.1.79.31,1.03s.53.37.95.37c.31,0,.6-.06.88-.2.27-.13.53-.32.78-.55l.03-5.26h1.8Z"/>
    <path class="cls-3" d="M328.39,65.65l-.06,10.53h-1.8s.06-10.54.06-10.54h1.8Z"/>
    <path class="cls-3" d="M337.69,76.23h-1.8s.03-5.97.03-5.97l-3.47-.02-.02,3.94c0,.23.05.4.17.53.11.13.27.19.47.19.11,0,.21-.01.28-.04.08-.03.14-.05.2-.08.06-.03.11-.05.15-.08.04-.03.09-.04.13-.04.05,0,.1.01.13.04.03.03.07.07.11.12l.54.85c-.26.21-.57.37-.91.48-.34.11-.69.16-1.06.16-.65,0-1.15-.18-1.5-.54-.35-.36-.52-.85-.51-1.48l.02-4.06h-.77c-.1,0-.18-.04-.25-.1-.07-.06-.1-.15-.1-.28v-.69s1.21-.19,1.21-.19l.39-1.97c.02-.09.07-.17.14-.22.07-.05.16-.08.26-.08h.93s-.01,2.29-.01,2.29l5.28.03-.04,7.2ZM338.05,66.81c0,.15-.03.29-.1.43-.06.13-.15.25-.25.35-.11.1-.23.18-.37.24-.14.06-.3.09-.46.09-.16,0-.3-.03-.44-.09-.14-.06-.25-.14-.36-.24-.1-.1-.18-.22-.24-.35-.06-.13-.09-.28-.09-.43,0-.16.03-.3.09-.44.06-.13.14-.25.25-.35.1-.1.22-.18.36-.24.14-.06.28-.09.44-.09.16,0,.31.03.46.09.14.06.27.14.37.24.1.1.19.22.25.36.06.13.09.28.09.44Z"/>
    <path class="cls-3" d="M122.52,83.69c-.06.1-.12.17-.19.22-.07.04-.15.07-.24.07-.1,0-.21-.04-.33-.11-.12-.07-.26-.16-.43-.25-.17-.09-.36-.17-.58-.25-.22-.07-.48-.11-.78-.11-.27,0-.51.03-.72.09-.2.06-.38.15-.52.26-.14.11-.24.25-.31.41-.07.16-.1.33-.11.52,0,.24.07.44.2.6.14.16.32.3.55.41s.49.22.78.31c.29.09.59.19.9.29.31.1.6.22.9.36.29.14.55.31.78.51.23.21.41.46.55.76.14.3.2.66.2,1.08,0,.46-.09.9-.25,1.3-.17.4-.41.75-.72,1.05-.32.3-.7.53-1.15.7-.45.17-.97.25-1.56.25-.34,0-.67-.04-.99-.1-.33-.07-.64-.16-.94-.28-.3-.12-.58-.26-.84-.43-.26-.17-.49-.35-.7-.56l.58-.91c.05-.07.11-.12.19-.17s.16-.07.25-.07c.12,0,.25.05.39.15.14.1.31.21.5.32.19.12.42.23.68.33s.57.15.94.15c.56,0,.99-.12,1.3-.38.31-.26.46-.62.47-1.11,0-.27-.07-.49-.2-.66-.14-.17-.32-.31-.55-.43s-.49-.22-.78-.3c-.29-.08-.59-.17-.89-.27-.3-.1-.6-.21-.89-.34-.29-.13-.55-.31-.78-.52-.23-.21-.41-.48-.55-.8-.14-.32-.2-.71-.2-1.18,0-.37.08-.74.24-1.09.16-.35.38-.67.67-.94s.65-.49,1.08-.65c.43-.16.92-.24,1.48-.24.62,0,1.2.1,1.72.29.52.19.97.46,1.34.8l-.49.9Z"/>
    <path class="cls-3" d="M127.63,92.21c-.65,0-1.15-.18-1.5-.54-.35-.36-.52-.85-.51-1.48l.02-4.06h-.77c-.1,0-.18-.04-.25-.1-.07-.06-.1-.15-.1-.28v-.69s1.21-.18,1.21-.18l.39-1.98c.02-.09.07-.17.14-.22.07-.05.16-.08.26-.08h.93s-.01,2.29-.01,2.29h2s0,1.26,0,1.26h-2s-.02,3.93-.02,3.93c0,.23.05.4.17.53.11.13.27.19.47.19.11,0,.21-.01.28-.04s.14-.05.2-.08c.06-.03.11-.05.15-.08.04-.03.09-.04.13-.04.05,0,.1.01.13.04.03.03.07.07.11.12l.54.85c-.26.21-.57.37-.91.48-.34.11-.69.16-1.06.16Z"/>
    <path class="cls-3" d="M131.3,85.86c.87-.76,1.9-1.14,3.12-1.13.44,0,.83.07,1.17.22.34.14.64.34.87.59.24.25.42.55.54.89.12.35.18.72.18,1.13l-.03,4.59h-.82c-.17,0-.3-.03-.39-.08-.09-.05-.16-.15-.22-.3l-.16-.53c-.19.16-.38.31-.56.43-.18.12-.37.23-.56.31-.2.08-.4.15-.63.19-.22.04-.47.06-.73.06-.32,0-.61-.04-.88-.13-.27-.08-.5-.21-.69-.38-.19-.17-.34-.37-.45-.62-.11-.25-.16-.53-.16-.86,0-.18.03-.37.1-.55s.17-.35.31-.52c.14-.16.33-.32.56-.46.23-.15.51-.27.84-.38.33-.11.72-.19,1.17-.26.44-.07.95-.1,1.52-.12v-.43c0-.49-.1-.85-.31-1.08-.21-.24-.52-.35-.92-.36-.29,0-.53.03-.73.09s-.36.14-.51.22-.28.16-.4.22c-.12.07-.25.1-.4.1-.13,0-.23-.03-.32-.1-.09-.06-.16-.14-.21-.22l-.32-.56ZM135.42,89.03c-.52.02-.96.06-1.31.12-.36.06-.64.14-.86.24-.21.1-.37.21-.46.34-.09.13-.14.28-.14.43,0,.31.09.53.28.66.19.13.43.2.73.2.37,0,.69-.06.96-.19.27-.13.54-.32.8-.59v-1.23Z"/>
    <path class="cls-3" d="M142.12,92.28c-.65,0-1.15-.18-1.5-.54-.35-.36-.52-.85-.51-1.48l.02-4.06h-.77c-.1,0-.18-.04-.25-.1-.07-.06-.1-.15-.1-.28v-.69s1.21-.18,1.21-.18l.39-1.98c.02-.09.07-.17.14-.22.07-.05.16-.08.26-.08h.93s-.01,2.29-.01,2.29h2s0,1.26,0,1.26h-2s-.02,3.93-.02,3.93c0,.23.05.4.17.53.11.13.27.19.47.19.11,0,.21-.01.28-.04s.14-.05.2-.08c.06-.03.11-.05.15-.08.04-.03.09-.04.13-.04.05,0,.1.01.13.04.03.03.07.07.11.12l.54.85c-.26.21-.57.37-.91.48-.34.11-.69.16-1.06.16Z"/>
    <path class="cls-3" d="M147.28,88.78c.03.37.09.7.2.97.11.27.25.5.42.68s.38.31.62.4c.24.09.51.13.8.13.29,0,.54-.03.76-.09.21-.06.4-.14.56-.22.16-.08.3-.15.42-.22s.24-.1.35-.1c.15,0,.26.06.33.16l.51.64c-.2.23-.43.41-.67.57-.25.15-.51.27-.78.36-.27.09-.55.15-.83.19-.28.04-.55.05-.81.05-.52,0-1-.09-1.45-.26-.45-.17-.83-.42-1.16-.75-.33-.33-.59-.74-.77-1.22s-.28-1.05-.28-1.68c0-.5.09-.96.26-1.4.17-.44.41-.82.72-1.14.31-.32.69-.58,1.14-.76.45-.19.95-.28,1.51-.28.47,0,.91.08,1.31.23s.74.36,1.03.65c.28.28.51.63.67,1.04.16.41.24.88.24,1.4,0,.26-.03.44-.09.53-.06.09-.17.14-.34.14l-4.64-.03ZM150.72,87.75c0-.23-.03-.44-.09-.64-.06-.2-.16-.38-.29-.53-.13-.15-.3-.27-.5-.36-.2-.09-.44-.13-.7-.13-.52,0-.93.14-1.23.43-.3.29-.49.69-.58,1.22l3.4.02Z"/>
    <path class="cls-3" d="M167.36,89.89c.11,0,.2.04.28.12l.77.82c-.43.51-.96.9-1.59,1.17-.63.27-1.38.4-2.25.4-.78,0-1.49-.14-2.11-.4-.62-.26-1.16-.63-1.6-1.09-.44-.47-.78-1.02-1.01-1.66-.23-.64-.35-1.35-.34-2.11,0-.77.13-1.47.39-2.11.26-.64.62-1.19,1.08-1.65.46-.46,1.01-.82,1.65-1.07.64-.25,1.35-.38,2.12-.37.77,0,1.45.13,2.04.38.59.25,1.1.57,1.52.97l-.66.88c-.04.06-.09.11-.15.15-.06.04-.15.06-.25.06-.07,0-.15-.02-.23-.06s-.16-.09-.25-.15c-.09-.06-.2-.12-.32-.2-.12-.07-.26-.14-.42-.2-.16-.06-.35-.11-.56-.15s-.46-.06-.73-.06c-.47,0-.9.08-1.3.24-.39.16-.73.4-1.01.7-.28.31-.51.68-.66,1.13-.16.45-.24.95-.24,1.53,0,.58.08,1.09.24,1.54.17.45.39.83.68,1.14.29.31.62.55,1.01.71.39.17.81.25,1.25.25.27,0,.51-.01.73-.04.22-.03.42-.07.6-.13s.36-.14.52-.23c.16-.1.33-.21.49-.36.05-.04.1-.08.15-.1s.11-.04.17-.04Z"/>
    <path class="cls-3" d="M173.25,84.96c.55,0,1.06.09,1.51.27.45.18.84.43,1.16.75.32.32.57.72.74,1.18.17.46.26.98.25,1.55,0,.58-.09,1.09-.27,1.56-.18.46-.43.86-.75,1.18-.33.32-.72.57-1.17.74-.46.17-.96.26-1.52.25-.56,0-1.07-.09-1.52-.27-.46-.18-.85-.43-1.17-.76-.32-.33-.57-.72-.75-1.19-.18-.46-.26-.98-.26-1.56,0-.57.09-1.09.27-1.55.18-.46.43-.85.76-1.17.33-.32.72-.57,1.18-.74.46-.17.97-.26,1.53-.25ZM173.22,91.1c.62,0,1.09-.2,1.39-.6.3-.4.45-1,.46-1.78,0-.78-.14-1.38-.44-1.79-.3-.41-.76-.62-1.38-.62-.63,0-1.1.2-1.41.61s-.46,1.01-.47,1.79c0,.78.14,1.37.45,1.78.3.41.77.62,1.4.62Z"/>
    <path class="cls-3" d="M178.84,87.36l3.78.02v1.46s-3.79-.02-3.79-.02v-1.46Z"/>
    <path class="cls-3" d="M188.25,85.04c.55,0,1.06.09,1.51.27.45.18.84.43,1.16.75.32.32.57.72.74,1.18.17.46.26.98.25,1.55,0,.58-.09,1.09-.27,1.56-.18.46-.43.86-.75,1.18-.33.32-.72.57-1.17.74-.46.17-.96.26-1.52.25-.56,0-1.07-.09-1.52-.27-.46-.18-.85-.43-1.17-.76s-.57-.72-.75-1.19c-.18-.46-.26-.98-.26-1.56,0-.57.09-1.09.27-1.55.18-.46.43-.85.76-1.17.33-.32.72-.57,1.18-.74.46-.17.97-.26,1.53-.25ZM188.22,91.18c.62,0,1.09-.2,1.39-.6.3-.4.45-1,.46-1.78,0-.78-.14-1.38-.44-1.79-.3-.41-.76-.62-1.38-.62-.63,0-1.1.2-1.41.61-.31.41-.46,1.01-.47,1.79,0,.78.14,1.37.45,1.78.3.41.77.62,1.4.62Z"/>
    <path class="cls-3" d="M195.61,86.18c.31-.33.66-.6,1.05-.81.39-.21.85-.31,1.37-.3.41,0,.78.09,1.12.25.34.17.63.41.87.72.24.32.43.7.56,1.16.13.46.2.99.19,1.58,0,.54-.08,1.05-.23,1.51-.15.46-.37.86-.65,1.2s-.62.6-1.02.79c-.4.19-.84.28-1.33.28-.42,0-.78-.07-1.07-.19-.3-.13-.56-.3-.79-.52l-.02,2.98h-1.8s.05-9.65.05-9.65h1.1c.23,0,.39.11.46.33l.14.67ZM195.68,90.58c.2.24.43.41.67.51.24.1.5.15.78.15.27,0,.52-.05.74-.14.22-.1.41-.25.56-.45.15-.2.27-.46.36-.77.08-.31.13-.67.13-1.09,0-.43-.03-.79-.1-1.08-.07-.3-.17-.54-.3-.72s-.29-.32-.48-.41c-.19-.09-.4-.13-.64-.13-.37,0-.69.07-.96.22-.26.15-.51.37-.75.64l-.02,3.26Z"/>
    <path class="cls-3" d="M204.15,89.09c.03.37.09.7.2.97.11.27.25.5.42.68s.38.31.62.4c.24.09.51.13.8.14.29,0,.54-.03.76-.09.21-.07.4-.14.56-.22.16-.08.3-.15.42-.22.12-.07.24-.1.35-.1.15,0,.26.06.34.16l.51.64c-.2.23-.43.41-.67.57-.25.15-.51.27-.78.36-.27.09-.55.15-.83.19-.28.04-.55.05-.81.05-.52,0-1-.09-1.45-.26-.45-.17-.83-.42-1.16-.75-.33-.33-.59-.74-.77-1.22-.19-.49-.28-1.05-.28-1.68,0-.5.09-.96.26-1.4.17-.44.41-.81.72-1.14.31-.32.69-.58,1.14-.76.45-.19.95-.28,1.51-.28.47,0,.91.08,1.31.23.4.15.74.36,1.03.65.29.28.51.63.67,1.04.16.41.24.88.24,1.4,0,.26-.03.44-.09.53-.06.09-.17.14-.34.14l-4.64-.03ZM207.59,88.06c0-.23-.03-.44-.09-.64-.06-.2-.16-.38-.29-.53-.13-.15-.3-.27-.5-.36s-.44-.13-.7-.13c-.52,0-.93.14-1.23.43-.3.29-.49.69-.58,1.22l3.4.02Z"/>
    <path class="cls-3" d="M212.86,86.55c.24-.43.51-.77.84-1.02.32-.25.7-.37,1.14-.37.35,0,.62.08.83.22l-.12,1.31c-.02.08-.06.14-.11.18-.05.03-.11.05-.19.05-.07,0-.18-.01-.32-.04-.14-.02-.28-.04-.42-.04-.2,0-.38.03-.53.08-.16.06-.3.14-.42.24-.12.11-.24.23-.33.38s-.19.32-.27.52l-.02,4.48h-1.8s.04-7.28.04-7.28h1.06c.18,0,.31.04.39.1.07.06.12.18.14.34l.1.82Z"/>
    <path class="cls-3" d="M216.92,86.32c.87-.76,1.9-1.14,3.12-1.13.44,0,.83.07,1.17.22.34.14.64.34.87.59.24.25.42.55.54.89.12.35.18.72.18,1.13l-.03,4.59h-.82c-.17,0-.3-.03-.39-.08-.09-.05-.16-.15-.22-.3l-.16-.53c-.19.16-.38.31-.56.43-.18.12-.37.23-.56.31-.2.08-.4.15-.63.19-.22.04-.47.06-.73.06-.32,0-.61-.04-.88-.13-.27-.08-.5-.21-.69-.38-.19-.17-.34-.37-.45-.62-.11-.25-.16-.53-.16-.86,0-.18.03-.37.1-.55s.17-.35.31-.52c.14-.16.33-.32.56-.46s.51-.27.84-.38c.33-.11.72-.19,1.17-.26.44-.07.95-.1,1.52-.12v-.43c0-.49-.1-.85-.31-1.08-.21-.24-.52-.35-.92-.36-.29,0-.53.03-.73.09-.19.07-.36.14-.51.22-.15.08-.28.16-.4.22-.12.07-.25.1-.4.1-.13,0-.23-.03-.32-.1-.09-.06-.16-.14-.21-.22l-.32-.56ZM221.03,89.49c-.52.02-.96.06-1.31.12-.36.06-.64.14-.86.24-.21.1-.37.21-.46.34-.09.13-.14.28-.14.43,0,.31.09.53.28.66s.43.2.73.2c.37,0,.69-.06.96-.19.27-.13.54-.32.8-.59v-1.23Z"/>
    <path class="cls-3" d="M232.51,92.66h-1.8s.03-5.97.03-5.97l-3.47-.02-.02,3.94c0,.23.05.4.17.53.11.13.27.19.47.19.11,0,.21-.01.28-.04.08-.03.14-.05.2-.08.06-.03.11-.05.15-.08.04-.03.09-.04.13-.04.05,0,.1.01.13.04.03.03.07.07.11.12l.54.85c-.26.21-.57.37-.91.48-.34.11-.69.16-1.06.16-.65,0-1.15-.18-1.5-.54-.35-.36-.52-.85-.51-1.48l.02-4.06h-.77c-.1,0-.18-.04-.25-.1-.07-.06-.1-.15-.1-.28v-.69s1.21-.19,1.21-.19l.39-1.97c.02-.09.07-.17.14-.22.07-.05.16-.08.26-.08h.93s-.01,2.29-.01,2.29l5.28.03-.04,7.2ZM232.87,83.25c0,.15-.03.29-.1.43-.06.13-.15.25-.25.35-.11.1-.23.18-.37.24-.14.06-.3.09-.46.09-.16,0-.3-.03-.44-.09-.14-.06-.26-.14-.36-.24-.1-.1-.18-.22-.24-.35-.06-.13-.09-.28-.09-.43,0-.16.03-.3.09-.44.06-.13.14-.25.25-.35.1-.1.22-.18.36-.24.14-.06.28-.09.44-.09.16,0,.31.03.46.09.14.06.27.14.37.24s.19.22.25.36c.06.13.09.28.09.44Z"/>
    <path class="cls-3" d="M241.72,85.44l-3.01,7.25h-1.64s-2.93-7.29-2.93-7.29h1.49c.14,0,.25.04.34.1s.15.14.18.23l1.42,3.89c.08.23.14.45.2.67.06.22.11.44.15.65.05-.22.1-.43.16-.65s.13-.44.22-.66l1.5-3.87c.03-.09.1-.17.18-.23.09-.06.19-.09.31-.09h1.42Z"/>
    <path class="cls-3" d="M244.39,89.31c.03.37.09.7.2.97.11.27.25.5.42.68.17.18.38.31.62.4.24.09.51.13.8.14s.54-.03.76-.09c.21-.07.4-.14.56-.22.16-.08.3-.15.42-.22.12-.07.24-.1.35-.1.15,0,.26.06.34.16l.51.64c-.2.23-.43.41-.67.57-.25.15-.51.27-.78.36-.27.09-.55.15-.83.19-.28.04-.55.05-.81.05-.52,0-1-.09-1.45-.26s-.83-.42-1.16-.75c-.33-.33-.59-.74-.77-1.22-.19-.49-.28-1.05-.28-1.68,0-.5.09-.96.26-1.4.17-.44.41-.81.72-1.14.31-.32.69-.58,1.14-.76.45-.19.95-.28,1.51-.28.47,0,.91.08,1.3.23.4.15.74.36,1.03.65.29.28.51.63.67,1.04.16.41.24.88.24,1.4,0,.26-.03.44-.09.53-.06.09-.17.14-.34.14l-4.64-.02ZM247.84,88.27c0-.23-.03-.44-.09-.64-.06-.2-.16-.38-.29-.53-.13-.15-.3-.27-.5-.36s-.44-.13-.7-.13c-.52,0-.93.14-1.23.43-.3.29-.49.69-.58,1.22l3.4.02Z"/>
    <path class="cls-3" d="M261.45,84.44c-.06.1-.12.17-.19.22-.07.04-.15.07-.24.07-.1,0-.21-.04-.33-.11-.12-.07-.26-.16-.43-.25-.17-.09-.36-.17-.58-.25-.22-.07-.48-.11-.78-.11-.27,0-.51.03-.72.09-.2.06-.38.15-.52.26-.14.11-.24.25-.31.41-.07.16-.1.33-.11.52,0,.24.07.44.2.6.14.16.32.3.55.41s.49.22.78.31c.29.09.59.19.9.29.31.1.6.22.9.36.29.14.55.31.78.51.23.21.41.46.55.76.14.3.2.66.2,1.09,0,.46-.09.9-.25,1.3-.17.4-.41.75-.72,1.05-.32.3-.7.53-1.15.7-.45.17-.97.25-1.56.25-.34,0-.67-.04-.99-.1-.33-.07-.64-.16-.94-.28-.3-.12-.58-.26-.84-.43-.26-.17-.49-.35-.7-.56l.58-.91c.05-.07.11-.12.19-.17.08-.04.16-.07.25-.07.12,0,.25.05.39.15.14.1.31.21.5.32.19.12.42.23.68.33s.57.15.94.15c.56,0,.99-.12,1.3-.38.31-.26.46-.62.47-1.11,0-.27-.07-.49-.2-.66s-.32-.31-.55-.43-.49-.22-.78-.3c-.29-.08-.59-.17-.89-.27-.3-.1-.6-.21-.89-.34-.29-.13-.55-.31-.78-.52-.23-.21-.41-.48-.55-.8-.14-.32-.2-.71-.2-1.18,0-.37.08-.74.24-1.09.16-.35.38-.67.67-.94s.65-.49,1.08-.65.92-.24,1.48-.24c.62,0,1.2.1,1.72.29s.97.46,1.34.8l-.49.9Z"/>
    <path class="cls-3" d="M267.71,85.47c.55,0,1.06.09,1.51.27.45.18.84.43,1.16.75.32.32.57.72.74,1.18.17.46.26.98.25,1.55,0,.58-.09,1.09-.27,1.56-.18.46-.43.86-.75,1.18s-.72.57-1.17.74c-.46.17-.96.26-1.52.25-.56,0-1.07-.09-1.52-.27-.46-.18-.85-.43-1.17-.76-.32-.33-.57-.72-.75-1.19-.18-.46-.26-.98-.26-1.56,0-.57.09-1.09.27-1.55.18-.46.43-.85.76-1.17.33-.32.72-.57,1.18-.74.46-.17.97-.26,1.53-.25ZM267.68,91.61c.62,0,1.09-.2,1.39-.6s.45-1,.46-1.78c0-.78-.14-1.38-.44-1.79-.3-.41-.76-.62-1.38-.62-.63,0-1.1.2-1.41.61s-.46,1.01-.47,1.79c0,.78.14,1.37.45,1.78.3.41.77.62,1.4.62Z"/>
    <path class="cls-3" d="M279.02,87.18c-.05.07-.11.12-.16.15-.05.04-.13.06-.22.06-.09,0-.18-.03-.27-.08-.09-.05-.19-.12-.31-.19-.12-.07-.27-.13-.43-.19-.17-.05-.38-.08-.62-.08-.32,0-.59.05-.83.16-.24.11-.44.27-.6.47-.16.21-.28.46-.36.75s-.12.63-.12,1c0,.39.04.73.12,1.03.08.3.2.56.36.76.16.21.35.36.58.47s.49.16.77.16c.29,0,.52-.03.7-.1.18-.07.33-.14.45-.22.12-.08.23-.16.32-.22.09-.07.19-.1.3-.1.15,0,.26.06.33.16l.51.64c-.2.23-.42.41-.65.57-.23.15-.48.27-.73.36-.25.09-.51.15-.77.19-.27.04-.53.05-.79.05-.46,0-.9-.09-1.31-.26-.41-.17-.76-.42-1.07-.74-.3-.32-.55-.72-.72-1.18-.18-.47-.26-1-.26-1.59,0-.53.08-1.03.24-1.48.16-.45.4-.85.7-1.18.31-.33.69-.59,1.14-.78.45-.19.97-.28,1.56-.28.56,0,1.05.09,1.47.27.42.18.8.43,1.13.76l-.48.63Z"/>
    <path class="cls-3" d="M283.7,83.55c0,.15-.03.29-.1.42s-.15.25-.25.35c-.11.1-.23.18-.37.24-.14.06-.29.09-.45.09-.16,0-.3-.03-.44-.09-.14-.06-.26-.14-.36-.24-.1-.1-.18-.22-.24-.35-.06-.13-.09-.27-.09-.43,0-.16.03-.3.09-.44.06-.14.14-.25.25-.35s.22-.18.36-.24c.14-.06.29-.09.44-.09.16,0,.31.03.45.09s.26.14.37.24.19.22.25.36c.06.14.09.28.09.44ZM283.44,85.67l-.04,7.27h-1.81s.04-7.28.04-7.28h1.81Z"/>
    <path class="cls-3" d="M287.53,89.54c.03.37.09.7.2.97.11.27.25.5.42.68s.38.31.62.4c.24.09.51.13.8.13.29,0,.54-.03.76-.09.21-.06.4-.14.56-.22.16-.08.3-.15.42-.22.12-.07.24-.1.35-.1.15,0,.26.06.34.16l.51.64c-.2.23-.43.41-.67.57-.25.15-.51.27-.78.36-.27.09-.55.15-.83.19-.28.04-.55.05-.81.05-.52,0-1-.09-1.45-.26-.45-.17-.83-.42-1.16-.75-.33-.33-.59-.74-.77-1.22s-.28-1.05-.28-1.68c0-.5.09-.96.26-1.4.17-.44.41-.82.72-1.14.31-.32.69-.58,1.14-.76.45-.19.95-.28,1.51-.28.47,0,.91.08,1.31.23s.74.36,1.03.65c.29.28.51.63.67,1.04.16.41.24.88.24,1.4,0,.26-.03.44-.09.53-.06.09-.17.14-.34.14l-4.64-.03ZM290.97,88.51c0-.23-.03-.44-.09-.64-.06-.2-.16-.38-.29-.53-.13-.15-.3-.27-.5-.36-.2-.09-.44-.13-.7-.13-.52,0-.93.14-1.23.43-.3.29-.49.69-.58,1.22l3.4.02Z"/>
    <path class="cls-3" d="M297.22,93.12c-.65,0-1.15-.18-1.5-.54-.35-.36-.52-.85-.51-1.48l.02-4.06h-.77c-.1,0-.18-.04-.25-.1-.07-.06-.1-.15-.1-.28v-.69s1.21-.18,1.21-.18l.39-1.98c.02-.09.07-.17.14-.22.07-.05.16-.08.26-.08h.93s-.01,2.29-.01,2.29h2s0,1.26,0,1.26h-2s-.02,3.93-.02,3.93c0,.23.05.4.17.53.11.13.27.19.47.19.11,0,.21-.01.28-.04s.14-.05.2-.08c.06-.03.11-.05.15-.08.04-.03.09-.04.13-.04.05,0,.1.01.13.04.03.03.07.07.11.12l.54.85c-.26.21-.57.37-.91.48-.34.11-.69.16-1.06.16Z"/>
    <path class="cls-3" d="M307.87,85.8l-4.13,9.24c-.05.12-.12.22-.21.28s-.22.09-.39.09h-1.34s1.42-2.92,1.42-2.92l-2.99-6.74h1.58c.14,0,.25.04.33.11s.14.14.18.23l1.57,3.78c.05.13.1.26.13.38.04.13.07.26.1.39.05-.13.09-.26.13-.39.04-.13.09-.26.15-.39l1.52-3.75c.04-.09.1-.17.19-.23.09-.06.19-.09.3-.09h1.45Z"/>
    <path class="cls-3" d="M320.21,91.56v1.57s-6.19-.03-6.19-.03l.06-10.24h1.96s-.05,8.68-.05,8.68l4.22.02Z"/>
    <path class="cls-3" d="M323.75,93.27c-.65,0-1.15-.18-1.5-.54-.35-.36-.52-.85-.51-1.48l.02-4.06h-.77c-.1,0-.18-.04-.25-.1-.07-.06-.1-.15-.1-.28v-.69s1.21-.18,1.21-.18l.39-1.98c.02-.09.07-.17.14-.22.07-.05.16-.08.26-.08h.93s-.01,2.29-.01,2.29h2s0,1.26,0,1.26h-2s-.02,3.93-.02,3.93c0,.23.05.4.17.53.11.13.27.19.47.19.11,0,.21-.01.28-.04s.14-.05.2-.08c.06-.03.11-.05.15-.08.04-.03.09-.04.13-.04.05,0,.1.01.13.04.03.03.07.07.11.12l.54.85c-.26.21-.57.37-.91.48-.34.11-.69.16-1.06.16Z"/>
    <path class="cls-3" d="M333.83,82.68l-.06,10.53h-1.1c-.24,0-.39-.11-.45-.33l-.15-.7c-.3.33-.65.6-1.04.81-.39.21-.85.31-1.37.3-.41,0-.78-.09-1.12-.25-.34-.17-.63-.41-.88-.72-.24-.32-.43-.7-.56-1.17-.13-.46-.2-.99-.19-1.59,0-.54.08-1.04.23-1.5.15-.46.37-.86.66-1.2.28-.34.62-.6,1.02-.79.4-.19.84-.28,1.33-.28.42,0,.78.07,1.07.2.3.13.56.3.79.52l.02-3.83h1.8ZM332,87.78c-.2-.24-.43-.41-.67-.51-.24-.1-.5-.15-.78-.15-.27,0-.52.05-.74.14s-.41.25-.56.45c-.16.2-.28.45-.36.76-.08.31-.13.67-.13,1.09,0,.43.03.79.1,1.08.07.3.17.54.3.72s.29.32.48.41c.19.08.4.13.63.13.37,0,.69-.07.96-.22.26-.15.51-.36.75-.64l.02-3.26Z"/>
    <path class="cls-3" d="M335.88,92.25c0-.15.03-.29.09-.42.06-.13.13-.24.23-.34s.22-.17.35-.22c.14-.06.28-.08.44-.08.16,0,.3.03.43.09.13.06.25.13.35.23s.18.21.24.34c.06.13.09.27.09.42,0,.15-.03.29-.09.42-.06.13-.14.24-.24.34-.1.09-.22.17-.35.22-.13.05-.28.08-.43.08-.16,0-.3-.03-.44-.08s-.25-.13-.35-.22-.17-.21-.23-.34c-.06-.13-.08-.27-.08-.42Z"/>
  </g>
</svg>