<?xml version="1.0" encoding="UTF-8"?>
<svg id="Layer_1" data-name="Layer 1" xmlns="http://www.w3.org/2000/svg" viewBox="0 0 36.85 36.85">
  <defs>
    <style>
      .cls-1 {
        fill: #81c45c;
        stroke-width: 0px;
      }
    </style>
  </defs>
  <path class="cls-1" d="M28.38,7.43H8.47c-2.23,0-4.04,1.81-4.04,4.04v13.91c0,2.23,1.81,4.04,4.04,4.04h19.91c2.23,0,4.04-1.81,4.04-4.04v-13.91c0-2.23-1.81-4.04-4.04-4.04ZM28.38,9.36c.17,0,.33.02.48.06l-8.4,9.53c-.52.58-1.26.92-2.04.92s-1.52-.34-2.04-.92L7.99,9.42c.15-.04.31-.06.48-.06h19.91ZM30.49,25.38c0,1.16-.95,2.11-2.11,2.11H8.47c-1.16,0-2.11-.95-2.11-2.11v-13.91c0-.28.06-.55.16-.8l8.42,9.56c.88,1,2.15,1.57,3.49,1.57s2.6-.57,3.49-1.57l8.42-9.56c.1.25.16.52.16.8v13.91Z"/>
</svg>