<?xml version="1.0" encoding="UTF-8"?>
<svg id="Layer_1" data-name="Layer 1" xmlns="http://www.w3.org/2000/svg" viewBox="0 0 173.75 178.65">
  <defs>
    <style>
      .cls-1 {
        fill: #008b47;
        stroke-width: 0px;
      }
    </style>
  </defs>
  <path class="cls-1" d="M138.65,113.52c3.18,0,6.15,0,9.13,0,1.81,0,3.63-.03,5.44.02,1.65.04,2.28.72,2.36,2.37.01.27,0,.53,0,.8,0,15.52,0,31.04,0,46.56,0,2.7-.48,3.19-3.13,3.19-44.37,0-88.74,0-133.11,0-2.56,0-2.97-.41-2.98-2.97,0-6.83,0-13.65,0-20.48,0-2.36.47-2.82,2.79-2.82,2.98,0,5.95,0,9.03,0v-20.85c-1.04-.33-2.09-.54-3.04-.97-4.76-2.16-7.4-5.84-7.52-11.1-.1-4.48-.13-8.96.11-13.43.47-8.92,8.11-16.45,17.01-16.63,9.22-.19,18.45-.04,27.68-.14,1.2-.01,2.6-.32,3.57-.98,5.01-3.43,10.7-5.34,16.28-7.49,2.6-1,4.79-2.5,6.65-4.56,1.25-1.38,2.67-2.62,3.92-4,3.06-3.38,6.83-4.85,11.38-4.79,8.11.1,16.21.03,24.32.03.62,0,1.25,0,2.06,0,0-.78,0-1.35,0-1.92,0-3.95,0-7.89,0-11.84,0-3.04,1.35-5.24,4.18-6.36.94-.37,1.13-.87,1.12-1.76-.03-6.08-.02-12.16-.01-18.24,0-2.38.56-2.94,2.88-2.94,5.33,0,10.67,0,16,0,2.37,0,3.37,1.46,2,3.4-2.1,3-2.09,5.63.01,8.63,1.36,1.93.37,3.37-2.03,3.38-4.32.02-8.64,0-12.96,0-.57,0-1.15,0-1.92,0,0,2.29-.04,4.4.04,6.52.01.31.53.71.9.87,2.89,1.28,4.34,3.42,4.32,6.63-.05,6.13.02,12.27-.02,18.4-.04,5.81-4.09,9.75-9.94,9.76-4.53,0-9.05,0-13.69,0-.05.48-.14.88-.14,1.28-.01,3.89.02,7.79-.03,11.68-.01.91.29,1.43,1.07,1.9,3.19,1.92,6.3,3.99,9.52,5.87,4.63,2.7,6.84,6.67,6.75,12-.06,3.57-.01,7.14-.01,10.98ZM83.99,135.27c0-4.87,0-9.56,0-14.25,0-2.09.56-2.63,2.66-2.66.69-.01,1.39,0,2.08,0,2.54,0,5.08,0,7.62,0v-40.86c-2.89,1.54-5.71,3.22-8.69,4.58-6.23,2.85-12.69,5.19-18.47,8.98-.61.4-1.51.5-2.27.51-4,.05-8,.02-12,.02-.56,0-1.11,0-1.77,0,0,4.64-.03,9.01.04,13.38,0,.48.53,1.11.99,1.4,3.23,2.07,6.52,4.04,9.75,6.11,3.6,2.31,5.94,5.56,6.3,9.88.29,3.5.18,7.03.24,10.54.01.77,0,1.55,0,2.37h13.52ZM84.95,78.95c4.3-1.21,7.82-4.09,11.46-6.78.86-.64,1.7-1.36,2.89-.71,1.1.6,1,1.65,1,2.66,0,14.08,0,28.16,0,42.24,0,.62,0,1.23,0,1.86h7.63c0-.75,0-1.38,0-2.02,0-8.53-.02-17.07.04-25.6,0-.79.4-2.01.96-2.27.67-.31,1.89-.06,2.58.39,3.17,2.07,6.17,4.39,9.35,6.43,4.5,2.89,6.64,6.87,6.32,12.23-.12,1.99-.02,4-.02,6.02h7.53c0-4.04.02-7.97,0-11.9-.02-3.27-1.55-5.66-4.32-7.35-3.82-2.33-7.59-4.74-11.42-7.06-1.14-.69-1.62-1.56-1.61-2.87.03-5.23,0-10.45.02-15.68,0-1.94.68-2.58,2.61-2.58,5.07,0,10.13.01,15.2,0,3.7-.02,6.08-2.42,6.09-6.12.01-5.97.01-11.95,0-17.92,0-2.35-1.12-3.49-3.37-3.5-2.24,0-3.39,1.15-3.39,3.47,0,4.8,0,9.6,0,14.4,0,2.28-.64,2.91-2.96,2.91-8.85,0-17.71.14-26.56-.06-4.05-.09-7.21,1.13-9.9,4.13-3.57,3.97-7.3,7.8-12.59,9.53-.03,0-.04.08.1-.26.85,2.3,1.59,4.31,2.36,6.41ZM28.29,115.18c0-7.59,0-15.05,0-22.52,0-.48-.02-.96.01-1.44.09-1.14.79-1.78,1.86-1.81,1.08-.02,1.8.6,1.93,1.73.06.47.02.96.02,1.44,0,15.2,0,30.4,0,45.6v1.89h7.62c0-.74,0-1.37,0-2,0-8.59-.03-17.17.05-25.76,0-.78.46-1.92,1.05-2.23.6-.31,1.78-.02,2.43.41,3.55,2.36,7.02,4.84,10.51,7.28,3.49,2.44,5.21,5.8,5.21,10.06,0,2.08,0,4.16,0,6.24,0,.4.09.8.15,1.28,2.09,0,4.06-.05,6.02.02,1.07.04,1.37-.36,1.36-1.38-.05-3.15-.04-6.29-.02-9.44.03-4.04-1.73-7.02-5.17-9.11-3.55-2.15-7.05-4.4-10.6-6.56-1.07-.65-1.58-1.47-1.58-2.73.03-5.28,0-10.56.02-15.84,0-1.9.72-2.57,2.64-2.57,4.75-.01,9.49,0,14.24-.02.61,0,1.3-.09,1.82-.38,3.67-2.06,7.31-4.17,10.93-6.3,1.85-1.09,2.26-2.76,1.2-4.61-1.08-1.88-2.63-2.32-4.57-1.23-2.88,1.62-5.7,3.34-8.61,4.89-.94.5-2.09.85-3.14.85-9.44.07-18.88,0-28.32.06-7.34.05-13.69,6.35-13.82,13.66-.08,4.26-.06,8.53,0,12.8.05,3.87,2.72,6.93,6.75,7.71ZM151.48,162.56v-45.03h-29.64v45.03h29.64ZM117.73,162.56v-40.19h-29.77v40.19h29.77ZM54.18,162.51h29.7v-23.2h-29.7v23.2ZM50.05,144.14h-29.67v18.37h29.67v-18.37ZM43.7,115.48v24.7h6.06c.36-1.56.25-3.39,1.1-4.16.91-.83,2.72-.68,4.19-.97,0-2.69.07-5.4-.02-8.11-.08-2.24-1.04-4.15-2.86-5.48-2.7-1.98-5.48-3.87-8.46-5.97ZM123.24,113.3c0-2.72.22-5.4-.08-8.03-.18-1.6-.76-3.57-1.87-4.57-2.85-2.56-6.1-4.68-9.41-7.14v24.64h5.5c.48-1.6.5-3.46,1.41-4.2.98-.78,2.81-.5,4.44-.71ZM152.29,16.16h-12.35v7.5h12.33c-2.15-2.53-2.12-5.01.02-7.5Z"/>
  <path class="cls-1" d="M98.06,43.61c0-6.32,5.17-11.52,11.45-11.5,6.23.02,11.39,5.14,11.38,11.41-.01,6.53-4.81,11.52-11.36,11.57-6.72.04-11.46-5.3-11.46-11.47ZM109.52,36.08c-4.16-.02-7.55,3.28-7.62,7.41-.06,4.14,3.44,7.66,7.6,7.64,4.14-.02,7.47-3.38,7.48-7.54,0-4.2-3.26-7.49-7.46-7.52Z"/>
  <path class="cls-1" d="M29.89,65.32c.01-6.25,5.15-11.39,11.4-11.4,6.29,0,11.49,5.24,11.43,11.54-.06,6.27-5.21,11.43-11.41,11.43-6.28,0-11.43-5.22-11.42-11.57ZM41.34,57.89c-4.19,0-7.55,3.27-7.61,7.41-.06,4.12,3.48,7.68,7.6,7.65,4.13-.03,7.47-3.42,7.47-7.57,0-4.2-3.27-7.49-7.47-7.5Z"/>
</svg>