<?xml version="1.0" encoding="UTF-8"?>
<svg id="Layer_1" data-name="Layer 1" xmlns="http://www.w3.org/2000/svg" viewBox="0 0 173.75 178.65">
  <defs>
    <style>
      .cls-1 {
        fill: #008b47;
        stroke-width: 0px;
      }
    </style>
  </defs>
  <path class="cls-1" d="M3.53,94.51c1.33-3.25,2.15-3.8,5.75-3.8,2.33,0,4.67-.06,7,.02,1.18.04,2.01-.31,2.85-1.16,10.48-10.54,21.01-21.04,31.52-31.55,2.72-2.72,4.66-2.73,7.36-.03,3.14,3.13,6.27,6.26,9.6,9.58v-29.82c-.98-.42-2.02-.82-3.02-1.31-3.39-1.68-3.46-10.97.15-12.6.96-.44,2.03-.91,3.05-.91,17.58-.06,35.16-.05,52.73-.03,2.75,0,5.03,1.67,5.49,4.37.32,1.88.26,3.89,0,5.8-.27,1.98-1.16,2.74-3.87,4.38,1.75,7.49,3.51,15.02,5.28,22.54.56,2.37,1.17,4.73,1.65,7.11.19.91.51,1.29,1.48,1.25,1.78-.07,3.56-.02,5.53-.02,0-.74,0-1.32,0-1.9,0-4.83-.02-9.66,0-14.49.02-3.62,2.33-6.03,5.95-6.15,2.17-.07,4.34-.06,6.51,0,2.52.06,3.78,1.35,3.85,3.84.03.92,0,1.84,0,2.77,0,3.4-.31,3.87-3.37,5.16v10.6c1.27.2,2.5.29,3.69.59,5.54,1.4,9.28,6.15,9.34,11.83.04,3.63-.02,7.27.04,10.9,0,.58.22,1.3.6,1.73,6.29,7.08,6.52,15.38.59,22.85-.09.12-.14.26-.33.63,1.53,0,2.91-.02,4.29,0,1.89.03,2.97.94,2.97,2.48,0,1.55-1.03,2.4-2.97,2.46-.33,0-.65,0-.98,0-52.95,0-105.9,0-158.85.02-1.53,0-2.88-.16-3.9-1.42v-1.95c.82-1.26,1.98-1.62,3.46-1.62,18.88.03,37.76.02,56.65.02.6,0,1.2,0,1.8,0-1.89-2.35-3.87-4.27-5.83-6.22-1.32-1.3-1.73-2.82-1.04-4.6.45-1.15-.81-4.1-1.95-4.65-1.7-.81-2.51-2.18-2.54-4.02-.03-2.66-.03-5.32,0-7.98.02-1.91.89-3.29,2.68-4.09.34-.15.72-.49.84-.83.55-1.5,1.75-2.89.72-4.7-.24-.43.07-1.16.07-1.75,0-.39,0-.89-.22-1.14-1.18-1.32-2.44-2.58-3.79-4-2.02,2.04-3.81,3.91-5.67,5.71-1.03.99-2.23,1.12-3.37.17-1.01-.84-1.13-1.95-.51-3.07.25-.46.67-.85,1.05-1.23,3.18-3.19,6.37-6.37,9.55-9.56.37-.37.7-.77.9-.98-.73-.85-1.35-1.57-1.69-1.96-9.69,9.7-19.32,19.33-28.82,28.84,2.11.44,4.13.04,5.84-2.05,1.57-1.92,3.44-3.61,5.27-5.31,1.58-1.46,3.87-.81,4.1,1.21.09.81-.43,1.85-.98,2.55-.96,1.23-2.16,2.28-3.53,3.67,1.92,0,3.39-.05,4.85.01,2.58.1,4.33,1.6,4.38,4.09.11,5.1.07,10.2.02,15.3-.02,1.5-1.13,2.54-2.44,2.57-1.24.03-2.3-.94-2.49-2.33-.08-.59-.05-1.19-.06-1.79,0-1.45,0-2.9,0-4.42h-7.63c0,1.92,0,3.71,0,5.5-.01,1.87-.94,3.02-2.43,3.04-1.49.02-2.44-1.12-2.46-2.99-.02-1.83,0-3.66,0-5.57h-7.09c0,1.93.02,3.76,0,5.59-.02,1.86-1.01,3.01-2.48,2.97-1.48-.04-2.41-1.19-2.42-3.07-.01-1.82,0-3.65,0-5.49h-7.61c0,2,.06,3.9-.02,5.79-.09,2.13-1.87,3.41-3.48,2.47-.68-.4-1.08-1.26-1.61-1.92,0-5.32,0-10.64,0-15.95ZM134.14,105.54c-1.28,0-2.37.07-3.44-.02-1.36-.11-2.35-1.22-2.34-2.48.01-1.3.98-2.28,2.39-2.38.7-.05,1.42-.09,2.11-.01,1.3.15,1.98-.25,2.46-1.6,1.51-4.22,4.34-7.55,8.52-9.08,2.82-1.03,3.54-2.44,3.35-5.22-.23-3.28,2.37-5.73,5.67-5.83,1.29-.04,2.58,0,3.89,0-.75-3.47-3.51-5.6-7.26-5.6-15.03-.02-30.05,0-45.08,0-.39,0-.78.08-1.66.19,1.17,1.05,2.04,1.78,2.85,2.57,1.2,1.18,1.45,2.63,1.02,4.21-.46,1.71.7,4.11,2.12,5.16.92.68,2.07,1.88,2.07,2.85-.02,4.1.96,8.29-.83,12.36,1.01,0,1.98,0,2.95,0,2.17,0,4.34-.03,6.51.03,1.44.04,2.4,1.02,2.45,2.32.05,1.31-.99,2.42-2.44,2.55-.54.05-1.08.02-1.63.02-3.74,0-7.47,0-11.36,0,.87,2.51-.11,4.27-1.85,5.84-1.75,1.58-3.38,3.29-5.31,5.18h39.59c-3.01-3.18-4.41-6.8-4.76-11.03ZM96.68,112.09c.15-.11.5-.33.79-.6.9-.87,1.74-1.79,2.67-2.63.91-.83,1.59-1.58,1.02-3.01-.25-.64.08-1.59.34-2.33.49-1.43,1.08-2.83,1.72-4.2.31-.67.71-1.55,1.29-1.79,1.69-.69,1.67-1.97,1.59-3.4-.05-.87-.08-1.74,0-2.6.11-1.13-.12-1.9-1.3-2.4-.58-.24-1.07-.94-1.36-1.54-.79-1.66-1.48-3.36-2.14-5.08-.21-.54-.41-1.28-.2-1.73.78-1.68-.22-2.57-1.27-3.52-.6-.54-1.19-1.12-1.72-1.73-.75-.85-1.45-1.43-2.75-.95-.67.25-1.61,0-2.35-.26-1.53-.53-3.03-1.17-4.5-1.85-.62-.29-1.41-.68-1.65-1.23-.66-1.51-1.78-1.64-3.14-1.51-.65.06-1.3.05-1.95,0-1.48-.1-2.84-.15-3.58,1.61-.24.58-1.15.94-1.83,1.25-1.32.62-2.67,1.17-4.04,1.67-.65.24-1.49.59-2.02.36-2.02-.86-2.95.56-4.06,1.68-.46.46-.9.94-1.39,1.38-.83.75-1.48,1.42-.89,2.75.28.63-.01,1.61-.27,2.35-.54,1.53-1.2,3.01-1.87,4.49-.24.53-.52,1.27-.97,1.45-2.07.82-1.8,2.51-1.76,4.16.02.87-.11,1.76.04,2.6.11.58.55,1.12.91,1.61.59.81,1.39,1.49,1.85,2.36.69,1.28,1.2,2.66,1.7,4.03.25.7.64,1.6.4,2.17-.73,1.77.27,2.68,1.38,3.66.65.57,1.27,1.19,1.84,1.84.66.75,1.27,1.07,2.37.74.8-.24,1.82.01,2.67.28,1.44.47,2.83,1.08,4.2,1.72.63.29,1.5.64,1.69,1.17.71,1.95,2.24,1.67,3.73,1.64,2.01-.04,4.28.65,5.35-1.96.07-.17.31-.34.51-.39,2.89-.78,5.32-3.33,8.96-2.24ZM124.25,68.23c-2.41-10.32-4.79-20.5-7.16-30.6h-19.76v30.6h26.92ZM91.79,68.43c.11-.11.22-.23.32-.34v-30.49h-4.77c0,.89.01,1.7,0,2.5-.03,2.12-.96,3.31-2.54,3.26-1.54-.05-2.41-1.2-2.43-3.23,0-.84,0-1.69,0-2.51h-9.63v31.34c.83-.75,1.49-1.11,1.78-1.66.83-1.6,2.05-2.48,3.86-2.49,1.28,0,2.57,0,3.99,0,0-.81,0-1.4,0-1.99,0-3.36-.03-6.73.02-10.09.02-1.6,1.07-2.71,2.44-2.74,1.3-.03,2.35,1,2.49,2.49.05.54.03,1.08.03,1.63,0,3.52,0,7.04,0,9.95,1.74,1.72,3.09,3.05,4.45,4.39ZM162.57,105.16c.15-6.4-5.03-11.81-11.43-11.96-6.5-.15-11.84,5-11.99,11.56-.15,6.29,4.93,11.74,11.11,11.91,6.82.19,12.16-4.8,12.32-11.51ZM94.19,27.76c-8.41,0-16.81,0-25.22,0-1.92,0-1.94.05-1.94,2.44,0,2.33.03,2.39,1.99,2.39,16.76,0,33.52,0,50.27,0,2,0,2.03-.06,2.03-2.52,0-2.25-.05-2.31-2.08-2.31-8.35,0-16.7,0-25.06,0ZM8.74,98.96h31.89v-3.13H8.74v3.13ZM147.39,50.8c-1.68,0-3.3.05-4.91-.02-1.17-.05-1.51.5-1.49,1.57.03,2.22,0,4.45,0,6.67,0,3.02,0,6.05,0,9.19h2.94c0-3.95,0-7.8,0-11.64,0-3.34.2-3.59,3.45-4.38v-1.39ZM152.12,88.19c1.69.38,3.3.75,5.04,1.14,0-1,0-1.86,0-2.71s0-1.78,0-2.7c-.57-.05-.89-.09-1.21-.09q-4.25-.09-3.83,4.36ZM60.18,67.33c-.72.73-1.42,1.43-1.95,1.97,1.22,1.33,2.48,2.71,3.55,3.88.84-.66,1.62-1.28,2.31-1.82-1.41-1.46-2.72-2.81-3.91-4.03Z"/>
  <path class="cls-1" d="M24.06,127.19c2.43.75,4.86,1.19,6.99,2.23,3.76,1.84,7.3,1.95,11.02,0,4.75-2.49,9.59-2.44,14.33.05,3.61,1.89,7.1,1.88,10.7-.01,4.81-2.52,9.69-2.48,14.49.04,3.55,1.86,7.01,1.87,10.55,0,4.86-2.55,9.78-2.54,14.63.01,3.49,1.83,6.92,1.87,10.41.03,4.92-2.59,9.86-2.59,14.78,0,3.49,1.83,6.92,1.81,10.4-.02,4.86-2.56,9.72-2.45,14.66-.08,1.57.75,3.36,1.13,5.09,1.46,1.69.32,2.61,1.06,2.58,2.54-.03,1.5-1.12,2.59-2.86,2.36-2.06-.28-4.26-.57-6.07-1.5-4.06-2.09-7.84-2.21-11.91-.06-4.45,2.35-9.11,2.28-13.58-.06-3.82-2.01-7.45-2.07-11.29-.04-4.62,2.44-9.39,2.41-14.03-.04-3.71-1.96-7.27-1.98-11-.01-4.68,2.47-9.48,2.47-14.18,0-3.71-1.96-7.27-1.93-11,.02-4.68,2.46-9.48,2.45-14.18-.04-3.65-1.93-7.18-1.95-10.85-.01-4.74,2.5-9.57,2.51-14.32,0-3.65-1.93-7.15-1.82-10.87-.02-2.04.98-4.4,1.42-6.67,1.77-1.74.27-2.82-.83-2.86-2.35-.03-1.48.88-2.21,2.57-2.54,1.83-.37,3.61-1,5.41-1.54,2.3-.69,4.59-1.41,7.03-2.16Z"/>
  <path class="cls-1" d="M46.31,150.85c.76,0,1.52-.04,2.28,0,1.36.09,2.44,1.15,2.34,2.42-.1,1.32-.8,2.31-2.2,2.4-1.67.1-3.36.09-5.04,0-1.34-.06-2.39-1.24-2.25-2.5.14-1.32.85-2.23,2.27-2.32.86-.06,1.73-.01,2.6-.01Z"/>
  <path class="cls-1" d="M66.66,145.92c-.76,0-1.52.06-2.27-.01-1.4-.13-2.3-1.14-2.29-2.47,0-1.36.88-2.32,2.33-2.39,1.57-.07,3.14-.07,4.71,0,1.41.06,2.38,1.07,2.4,2.35.03,1.35-.98,2.41-2.45,2.52-.81.06-1.62.01-2.44.01,0,0,0,0,0,0Z"/>
  <path class="cls-1" d="M106.96,141.04c.81,0,1.63-.05,2.44.01,1.39.1,2.17.89,2.25,2.29.08,1.34-.81,2.46-2.18,2.55-1.67.1-3.36.1-5.03,0-1.35-.09-2.33-1.27-2.2-2.55.13-1.35.89-2.19,2.29-2.29.81-.05,1.62,0,2.44,0Z"/>
  <path class="cls-1" d="M26.63,141.04c.81,0,1.63-.03,2.44,0,1.43.07,2.15.95,2.32,2.28.15,1.22-.89,2.48-2.21,2.57-1.67.11-3.36.1-5.04,0-1.33-.08-2.38-1.31-2.24-2.54.15-1.32.86-2.22,2.29-2.3.81-.05,1.63,0,2.44,0Z"/>
  <path class="cls-1" d="M147,145.92c-.76,0-1.52.06-2.28,0-1.36-.12-2.37-1.2-2.37-2.45,0-1.27.97-2.34,2.36-2.41,1.62-.07,3.25-.06,4.88,0,1.43.06,2.13.99,2.27,2.31.13,1.23-.93,2.4-2.26,2.53-.86.08-1.73.02-2.6.02Z"/>
  <path class="cls-1" d="M86.37,150.85c.81,0,1.63-.05,2.44.01,1.4.11,2.15.96,2.26,2.32.11,1.28-.89,2.44-2.24,2.51-1.68.08-3.36.08-5.04,0-1.35-.07-2.25-1.21-2.15-2.56.1-1.39.89-2.17,2.28-2.27.81-.06,1.62-.01,2.44,0Z"/>
  <path class="cls-1" d="M126.54,150.85c.81,0,1.63-.06,2.44.02,1.38.14,2.16.95,2.2,2.34.04,1.4-.72,2.34-2.07,2.45-1.72.15-3.47.13-5.2,0-1.37-.1-2.11-1.04-2.16-2.41-.04-1.29.98-2.32,2.35-2.4.81-.05,1.62,0,2.44,0Z"/>
  <path class="cls-1" d="M134.12,92.2c0,1.13.05,2.27-.01,3.4-.08,1.4-1.1,2.36-2.39,2.36-1.25,0-2.4-.99-2.45-2.34-.08-2.32-.08-4.65,0-6.97.04-1.4,1.1-2.3,2.43-2.31,1.43,0,2.36.89,2.43,2.45.05,1.13.01,2.27.01,3.4,0,0,0,0-.01,0Z"/>
  <path class="cls-1" d="M126.96,92.13c0,1.13.05,2.27-.01,3.4-.07,1.43-1.03,2.38-2.33,2.43-1.32.05-2.48-.99-2.52-2.43-.07-2.27-.07-4.54,0-6.81.05-1.49,1.12-2.41,2.53-2.37,1.36.04,2.26.91,2.33,2.38.06,1.13.01,2.27.01,3.4Z"/>
  <path class="cls-1" d="M119.8,92.12c0,1.13.05,2.27-.01,3.4-.07,1.43-1.02,2.38-2.32,2.44-1.24.05-2.47-.93-2.52-2.26-.09-2.37-.09-4.76,0-7.13.05-1.38,1.16-2.25,2.5-2.22,1.36.03,2.23.9,2.35,2.37,0,.11.01.22.01.32,0,1.03,0,2.05,0,3.08,0,0,0,0-.01,0Z"/>
  <path class="cls-1" d="M82.56,76.94c8.92,0,16.24,7.27,16.31,16.19.06,8.94-7.33,16.35-16.31,16.35-9.03,0-16.31-7.33-16.25-16.35.06-8.99,7.28-16.18,16.25-16.18ZM93.85,93.42c.14-6.25-4.85-11.45-11.13-11.58-6.04-.13-11.36,4.92-11.49,10.91-.14,6.51,4.83,11.75,11.22,11.83,6.13.08,11.26-4.94,11.4-11.16Z"/>
  <path class="cls-1" d="M150.9,98.04c3.84.02,6.93,3.11,6.93,6.93,0,3.79-3.14,6.94-6.93,6.97-3.84.03-7.05-3.2-7.01-7.06.04-3.8,3.17-6.86,7.01-6.84ZM151.2,106.93c.96-.07,1.59-.8,1.66-1.96.08-1.11-.95-2.07-2.07-2-1.22.08-1.85.83-1.93,1.98-.08,1.14.9,2.02,2.34,1.97Z"/>
  <path class="cls-1" d="M91.44,93.14c.02,5.01-3.94,9.01-8.91,9.01-4.85,0-8.91-4.02-8.95-8.87-.04-4.91,4.03-9,8.98-8.99,4.93,0,8.87,3.93,8.88,8.85ZM82.58,97.16c2.17-.02,3.94-1.75,3.97-3.9.03-2.2-1.79-4.01-4.03-4-2.21,0-3.9,1.69-3.93,3.9-.03,2.28,1.71,4.02,3.99,4Z"/>
</svg>