<?xml version="1.0" encoding="UTF-8"?>
<svg id="Layer_1" data-name="Layer 1" xmlns="http://www.w3.org/2000/svg" viewBox="0 0 173.75 178.65">
  <defs>
    <style>
      .cls-1 {
        fill: #008b47;
        stroke-width: 0px;
      }
    </style>
  </defs>
  <path class="cls-1" d="M159.67,57.16c-.81,1.52-1.42,3.22-2.48,4.54-2.8,3.45-7.77,4.29-11.73,2.21-3.96-2.08-5.98-6.6-4.9-10.92.08-.31.12-.64.2-1.05-4.99-2.41-9.95-4.8-15.08-7.28-.54,7.34-3.49,13.35-8.74,18.34,1.06,1.42,2.1,2.82,3.14,4.21,2.9,3.86,5.78,7.74,8.73,11.57.33.43,1.05.81,1.59.8,12.58-.14,23.47,8.91,26.27,20.99,3.3,14.22-6.78,29.65-21.14,31.94-11.89,1.89-21.06-2.42-27.74-12.32-.13-.19-.27-.37-.5-.67-3.11,2.33-6.18,4.61-9.2,6.94-.22.17-.26.72-.21,1.07.37,2.66.76,5.32,1.21,7.97.07.42.41.96.77,1.14,5.43,2.67,10.88,5.3,16.36,7.88.42.2,1.18.06,1.6-.2,4.1-2.6,9.45-2.01,12.58,1.46,3.39,3.76,3.47,9.02.2,12.95-2.71,3.26-7.72,4.31-11.5,2.39-4.15-2.1-6.34-6.62-5.27-10.88.09-.36.19-.72.32-1.22-5.22-2.52-10.44-5.04-15.68-7.58-3.53,13.99-16.32,21.58-28.45,20.63-8.91-.7-22.45-7.96-24.41-24.2h-7.89c-.62,0-1.24.08-1.85-.01-1.78-.27-2.76.27-3.6,2.07-1.91,4.09-6.66,6.03-10.88,4.84-4.68-1.32-7.52-5.27-7.26-10.07.24-4.32,3.65-8.09,8.05-8.89,4.32-.78,8.97,1.74,10.57,5.88.39,1,.84,1.26,1.83,1.24,3.27-.05,6.54-.06,9.81,0,1.02.02,1.41-.31,1.56-1.3,1.7-11.26,10.08-20.22,20.9-22.4,11.18-2.25,22.08,2.47,28.24,12.23.12.2.27.38.49.69,3.09-2.31,6.16-4.58,9.17-6.93.28-.22.27-1.01.15-1.48-2.03-7.72-1.12-15.02,3.15-21.8,3.47-5.49,8.39-9.16,14.56-11.19.27-.09.54-.17.81-.26.09-.03.17-.08.39-.18-3.58-4.78-7.15-9.53-10.76-14.35-7.99,4.55-16.27,5.39-24.7,1.66-8.38-3.71-13.46-10.29-15.63-19.48-3.81,3.25-7.49,6.39-11.17,9.54,1.02,1.68,2.07,3.24,2.96,4.88,1.66,3.07,2.51,6.4,2.9,9.87.07.61.48,1.34.96,1.73,3.77,3.02,7.62,5.94,11.39,8.96.82.65,1.38.74,2.33.2,3.49-1.98,7.03-1.83,10.3.43,3.34,2.31,4.74,5.69,4.02,9.66-.71,3.89-3.11,6.54-6.99,7.61-3.58.99-6.79.11-9.39-2.5-2.61-2.61-3.45-5.84-2.45-9.41.28-1.02.08-1.52-.71-2.12-3.23-2.45-6.42-4.97-9.67-7.5-3.67,16.19-17.53,22.74-28.18,21.9-13.72-1.08-22.94-11.49-24.59-22.54-1.14-7.59.62-14.49,5.34-20.55,4.68-6,10.94-9.3,18.49-10.23v-12.12c-1.57-1.08-3.24-1.88-4.45-3.12-5.05-5.19-2.79-13.68,4.13-15.91.4-.13.79-.3,1.18-.45,1.14,0,2.27,0,3.41,0,.26.11.5.24.77.32,4.25,1.35,7.02,4.77,7.18,8.88.17,4.35-2.16,7.82-6.35,9.63-.4.17-.81.88-.82,1.34-.08,2.84-.04,5.68-.04,8.52,0,2.78,0,2.8,2.66,3.33,4.5.89,8.48,2.86,12.07,5.78,4.22-3.61,8.37-7.2,12.57-10.74,1.11-.94,2.14-1.76,1.95-3.46-.09-.76.2-1.59.39-2.37,2.61-10.69,9.2-17.54,19.82-20.47,1.08-.3,2.18-.52,3.27-.77,1.99,0,3.98,0,5.97,0,.26.09.51.24.78.28,11.15,1.54,20.28,10.1,22.45,21.12.18.93.57,1.36,1.36,1.73,5.37,2.56,10.72,5.15,16.06,7.77.76.37,1.29.33,2.03-.15,4.5-2.88,10.17-1.85,13.19,2.44.8,1.13,1.24,2.5,1.85,3.77v3.7ZM87,151.38c6.48-5.27,8.82-15.56,5.63-23.86-3.06-7.97-11.46-14.72-22.52-13.84-8.67.69-16.66,7.49-18.97,16.53-2.21,8.63,1.73,17.46,6.48,20.98.05-.5.09-.96.14-1.42.49-4.31,3.11-6.95,7.43-7.06,4.92-.13,9.85-.09,14.77.05,3.28.09,5.81,2.26,6.65,5.43.26.98.26,2.03.39,3.19ZM145.2,122.18c5.84-4.68,8.97-14.29,6.01-22.8-3.26-9.38-12.11-15.44-21.67-14.9-10.1.58-18.21,7.56-20.37,17.52-1.77,8.18,2.15,16.86,6.72,20.06.02-.4.03-.78.06-1.15.31-4.31,3.17-7.25,7.49-7.38,4.73-.14,9.47-.13,14.2,0,4.44.12,7.36,3.22,7.51,7.64.01.31.03.62.05,1ZM26.11,90.72c.04-.57.07-.93.1-1.3.36-4.32,2.71-7.08,7.01-7.33,5.05-.29,10.14-.3,15.19.01,4.4.27,6.8,3.23,6.93,7.65,0,.29.09.58.15.94,8.45-7.38,9.85-21.57,1.26-30.8-8.7-9.34-23.32-9.3-32.04.17-8.56,9.3-6.96,23.26,1.42,30.65ZM113.68,59.16c6.14-5.23,9.05-14.97,5.66-23.86-3.17-8.3-11.92-14.26-20.69-13.93-9.67.36-17.94,6.66-20.55,15.55-2.71,9.26,1.23,18.22,6.21,22.12.03-.32.06-.58.08-.85.29-4.55,2.66-7.38,7.16-7.64,5-.29,10.04-.25,15.04.01,3.74.19,6.18,2.56,6.86,5.92.16.82.15,1.67.23,2.69ZM72.33,147.56c-2.23,0-4.45-.02-6.68,0-2.02.02-2.95.96-2.98,2.95-.01,1.04.07,2.09-.02,3.12-.09.97.29,1.42,1.16,1.77,5.4,2.17,10.8,2.2,16.29.32,1.53-.52,2.24-1.29,1.96-2.94-.12-.74,0-1.51-.03-2.27-.07-1.98-1.03-2.93-3.03-2.96-2.23-.03-4.45,0-6.68,0ZM99.11,55.39s0,0,0,0c-2.37,0-4.73-.04-7.1.01-1.72.04-2.59.95-2.64,2.66-.03,1.18.05,2.37-.03,3.55-.05.86.31,1.23,1.06,1.55,5.03,2.09,10.14,2.3,15.33.69,2.99-.93,2.99-.96,2.99-4.03,0-.52.02-1.04,0-1.56-.1-1.93-1-2.83-2.94-2.87-2.22-.04-4.45,0-6.67,0ZM40.84,96.42c3.02.1,5.89-.59,8.64-1.78.42-.18.93-.72.97-1.14.12-1.31.1-2.65.03-3.97-.09-1.6-1.03-2.55-2.64-2.57-4.68-.05-9.37-.05-14.05,0-1.78.02-2.62.99-2.66,2.8-.02,1.14.06,2.28-.02,3.41-.06.88.33,1.25,1.07,1.55,2.78,1.12,5.64,1.81,8.66,1.71ZM130.62,127.97c2.94.1,5.85-.6,8.64-1.8.4-.17.91-.65.93-1.02.09-1.46.07-2.93-.03-4.39-.1-1.36-.94-2.21-2.3-2.23-4.87-.05-9.74-.06-14.6,0-1.49.02-2.27.97-2.33,2.49-.05,1.23.04,2.46-.04,3.69-.06.87.33,1.25,1.08,1.55,2.74,1.09,5.55,1.78,8.65,1.71ZM123.28,147.56c-2.6,0-4.81,2.18-4.84,4.77-.03,2.63,2.29,4.93,4.9,4.88,2.59-.05,4.79-2.3,4.77-4.87-.02-2.6-2.22-4.78-4.83-4.78ZM150.04,50.55c-2.69-.03-4.83,2.01-4.89,4.66-.06,2.72,2.07,4.88,4.8,4.88,2.67,0,4.81-2.09,4.85-4.73.04-2.61-2.11-4.78-4.76-4.81ZM40.79,31.01c2.61,0,4.81-2.18,4.83-4.78.02-2.57-2.19-4.82-4.78-4.87-2.63-.05-4.9,2.23-4.87,4.89.02,2.63,2.18,4.76,4.82,4.75ZM28.6,135.43c.02-2.62-2.12-4.82-4.73-4.88-2.6-.06-4.94,2.26-4.91,4.88.03,2.6,2.24,4.78,4.84,4.78,2.63,0,4.78-2.14,4.8-4.77ZM86.91,86.95c-2.68-.01-4.82,2.06-4.86,4.7-.04,2.68,2.15,4.85,4.88,4.84,2.66-.02,4.8-2.14,4.79-4.78,0-2.64-2.14-4.75-4.8-4.76Z"/>
  <path class="cls-1" d="M82.03,128.13c0,5.28-4.36,9.66-9.66,9.72-5.27.06-9.77-4.44-9.75-9.76.02-5.29,4.34-9.65,9.64-9.73,5.26-.08,9.77,4.44,9.76,9.76ZM72.32,123.34c-2.68,0-4.78,2.08-4.79,4.74-.01,2.72,2.14,4.84,4.87,4.8,2.65-.03,4.8-2.2,4.77-4.81-.03-2.63-2.18-4.73-4.85-4.73Z"/>
  <path class="cls-1" d="M130.6,108.68c-5.34.04-9.81-4.39-9.79-9.7.02-5.28,4.4-9.66,9.68-9.68,5.36-.02,9.82,4.41,9.79,9.72-.03,5.29-4.37,9.62-9.68,9.67ZM135.33,99.05c.03-2.66-2.06-4.82-4.7-4.89-2.6-.07-4.82,2.09-4.86,4.72-.04,2.77,2.04,4.92,4.76,4.93,2.64,0,4.77-2.1,4.8-4.76Z"/>
  <path class="cls-1" d="M40.84,77.15c-5.31.05-9.65-4.21-9.74-9.56-.09-5.35,4.26-9.81,9.62-9.84,5.3-.03,9.71,4.29,9.76,9.58.05,5.4-4.23,9.77-9.64,9.82ZM40.79,72.25c2.61,0,4.81-2.17,4.84-4.77.02-2.57-2.18-4.81-4.78-4.86-2.63-.05-4.9,2.22-4.87,4.88.03,2.64,2.17,4.76,4.82,4.75Z"/>
  <path class="cls-1" d="M99.45,45.58c-5.19.41-9.65-3.68-10.13-9.29-.42-4.93,3.75-9.61,8.96-10.06,5.32-.46,10,3.65,10.44,9.18.42,5.18-3.74,9.74-9.27,10.18ZM94.23,35.78c-.05,2.71,1.96,4.86,4.61,4.92,2.74.06,4.93-2.02,4.97-4.72.04-2.63-2.05-4.81-4.71-4.89-2.59-.08-4.83,2.07-4.87,4.69Z"/>
</svg>