<?xml version="1.0" encoding="UTF-8"?>
<svg id="Layer_1" data-name="Layer 1" xmlns="http://www.w3.org/2000/svg" viewBox="0 0 173.75 178.65">
  <defs>
    <style>
      .cls-1 {
        fill: #008b47;
        stroke-width: 0px;
      }
    </style>
  </defs>
  <path class="cls-1" d="M56.22,53.4c-5.37,12.77-3.93,30.42,6.96,39.49,3.86,3.22,8.32,4.76,13.86,4.31-2.84-4.13-5.67-8.28-8.54-12.4-.56-.8-1.24-1.53-1.9-2.26-1.05-1.16-1.69-2.44-.26-3.64,1.33-1.12,2.55-.4,3.41.8,3.16,4.38,6.53,8.64,9.33,13.24,3.78,6.21,6.2,13.05,7.79,20.15.11.47.29.92.48,1.48,1.49-2.75,2.94-5.36,4.32-8.01.2-.38.19-.96.09-1.41-3.16-14.33,5.63-25.07,19.88-27.65,8.03-1.45,15.81-.38,23.37,2.57,2.35.91,2.58,2.23,1.1,4.16-2.39,3.12-4.59,6.38-6.94,9.53-2.81,3.77-5.5,7.66-8.6,11.17-3.74,4.23-8.73,6.25-14.34,6.73-1.54.13-3.02-.07-3.18-1.89-.16-1.82,1.2-2.22,2.79-2.34,4.67-.35,8.69-2.16,11.9-5.63,1.14-1.24,2.31-2.48,3.28-3.85,3.39-4.81,6.71-9.68,10.26-14.83-10.65-2.87-20.76-3.6-29.9,3.46-4.62,3.56-6.32,8.57-5.96,14.87.78-.71,1.21-1.18,1.72-1.55,2.77-2.03,5.52-4.09,8.35-6.02,1.11-.76,2.39-.62,3.08.68.67,1.26.18,2.3-1.05,3-12.76,7.31-18.11,18.85-18.72,33.03-.16,3.64-.02,7.29-.02,10.9.31.06.48.15.58.1,11.27-5.59,21.9-12.11,30.57-21.4,3.83-4.1,6.97-8.64,8.39-14.18.36-1.42,1.2-2.31,2.74-1.9,1.62.43,1.82,1.84,1.29,3.05-1.64,3.7-3.06,7.61-5.33,10.9-6.35,9.21-15.29,15.63-24.74,21.3-4.39,2.63-9,4.91-13.58,7.21-.88.44-2.3.6-3.15.2-12.95-6.03-25.1-13.27-34.97-23.82-6.76-7.23-10.77-15.54-10.03-25.71.14-1.89,0-3.8.04-5.69.03-1.38.67-2.33,2.16-2.32,1.52.02,2.03,1.01,2.04,2.39.04,3.8-.1,7.6.17,11.38.45,6.16,3.58,11.19,7.52,15.7,8.66,9.92,19.63,16.71,31.24,22.57.17.09.4.06.55.08,0-5.85.21-11.68-.05-17.49-.32-6.99-2.1-13.72-4.65-20.24-.35-.9-.58-1.79-1.96-1.74-14.26.51-23.67-9.65-27-21.42-3.05-10.75-1.7-21.15,2.6-31.28.8-1.89,2.21-2.33,3.63-1.24,5.68,4.36,11.44,8.63,17,13.13,3.1,2.51,6.13,5.2,8.76,8.18,3.86,4.36,5.54,9.69,5.65,15.52.03,1.47-.2,2.8-1.99,2.86-1.75.05-2.21-1.19-2.23-2.69-.1-6.42-2.59-11.84-7.44-15.92-4.83-4.07-9.98-7.76-14.99-11.6-1.72-1.32-3.47-2.62-5.34-4.02Z"/>
  <path class="cls-1" d="M29.97,75.39c0-9.98.01-19.97-.01-29.95,0-1.56.28-2.8,2.05-3.17,8.67-1.81,16.65-5.51,24.57-9.29,9.5-4.54,18.86-9.38,28.23-14.18,1.48-.76,2.62-.78,4.1,0,14.4,7.62,28.83,15.19,44.13,20.92,2.68,1.01,5.48,1.74,8.27,2.43,1.71.42,2.48,1.27,2.47,3.07-.05,8.02-.03,16.03-.01,24.05,0,1.58-.36,2.93-2.23,2.88-1.78-.05-1.99-1.41-1.99-2.88.02-6.89-.03-13.78.04-20.67.02-1.69-.32-2.53-2.18-3.05-10.79-3.06-20.82-8.01-30.85-12.91-6-2.92-11.91-6.02-17.79-9.16-1.42-.76-2.46-.64-3.86.04-13.4,6.47-26.81,12.92-40.28,19.23-2.78,1.3-5.8,2.13-8.76,2.98-1.24.35-1.71.79-1.7,2.11.04,18.84-.03,37.69.06,56.53.04,7.75,3.54,14.22,8.25,20.09,7.67,9.58,17.4,16.72,27.84,22.94,4.88,2.91,9.98,5.46,15.02,8.08.71.37,1.86.56,2.52.25,15.04-7.22,29.23-15.69,40.7-28.07,4.93-5.32,9.19-11.2,10.34-18.51.76-4.82.47-9.8.67-14.71.07-1.61-.5-3.81,2.08-3.78,2.48.03,2.18,2.17,2.1,3.81-.27,5.67-.06,11.44-1.08,16.98-1.31,7.13-5.56,12.97-10.33,18.33-9.34,10.49-20.83,18.15-33,24.88-3.5,1.94-7.1,3.69-10.73,5.39-.85.4-2.16.57-2.95.2-16.46-7.7-31.96-16.86-44.29-30.54-5.14-5.71-9.2-12.08-10.72-19.76-.41-2.05-.61-4.18-.63-6.28-.07-9.42-.03-18.84-.03-28.27Z"/>
  <path class="cls-1" d="M133.17,58.98c0,1.9.03,3.79,0,5.69-.03,1.37-.65,2.34-2.13,2.35-1.51,0-2.06-.98-2.06-2.36,0-2.81.05-5.62-.06-8.43-.02-.57-.58-1.46-1.08-1.62-13.59-4.31-26.1-10.98-38.66-17.55-1.68-.88-2.95-.93-4.62,0-3.98,2.22-8.09,4.22-12.15,6.28-1.43.73-3.09,1.83-4.19-.23-1.12-2.11.78-2.77,2.21-3.51,4.8-2.48,9.63-4.9,14.39-7.45,1.47-.79,2.65-.71,4.13,0,11.1,5.4,22.21,10.78,33.39,15.99,2.71,1.26,5.69,1.97,8.6,2.73,1.59.42,2.24,1.28,2.24,2.81,0,1.76,0,3.51,0,5.27h0Z"/>
</svg>