<?xml version="1.0" encoding="UTF-8"?>
<svg id="Layer_1" data-name="Layer 1" xmlns="http://www.w3.org/2000/svg" viewBox="0 0 173.75 178.65">
  <defs>
    <style>
      .cls-1 {
        fill: #008b47;
        stroke-width: 0px;
      }
    </style>
  </defs>
  <path class="cls-1" d="M101.04,44.23c3.25-4.01,6.32-7.83,9.43-11.62.55-.68,1.19-1.32,1.89-1.83,2.91-2.12,6.66-1.89,9.33.53.43.39.81.85,1.29,1.36,1.09-1.28,2.08-2.54,3.18-3.71,2.53-2.69,5.42-4.91,9.18-5.48,6.09-.93,11.48,3.35,12.24,9.54.77,6.2-1.9,10.83-6.68,14.45-1.2.91-2.54,1.62-3.93,2.5,2.65,3.29,5.2,6.64,7.97,9.81,2.3,2.63,3.22,5.56,3.2,9.02-.08,12.37-.03,24.74-.03,37.12,0,.58,0,1.16,0,1.77.6.23,1.1.41,1.59.62,3.96,1.7,5.69,5.67,4.16,9.72-1.44,3.81-4.45,6.14-7.9,7.96-8.63,4.54-17.28,9.04-25.93,13.55-6.08,3.17-12.18,6.32-18.24,9.53-2.73,1.45-5.53,1.8-8.53,1.09-9.86-2.33-19.73-4.63-29.61-6.88-.84-.19-1.87-.11-2.67.22-4.53,1.85-9.03,3.8-13.51,5.77-.49.22-1.08.75-1.19,1.23-.98,4.09-3.61,6.8-7.77,7.09-3.95.27-7.96.23-11.9-.12-4.16-.37-7.21-4-7.22-8.16-.04-13.35-.05-26.71,0-40.06.02-4.56,3.84-8.27,8.41-8.32,3.19-.04,6.38-.01,9.57,0,4.24,0,7.23,2.16,8.65,6.21.08.23.18.45.32.81,2.99-1.45,5.97-2.89,8.94-4.34,4.36-2.12,8.75-4.2,13.08-6.37,3.75-1.88,7.47-2.11,11.28-.19,1.78.89,3.65,1.61,5.61,2.46v-27.24c-10.26,3.91-19.81,2.77-28.34-4.29-5.29-4.38-8.25-10.15-9.17-16.93-1.86-13.66,7.43-26.67,21.03-29.59,14.37-3.09,29.88,6.41,32.27,22.78ZM105.16,108.83c.07.15.13.3.2.45.2.09.41.17.61.26,2.78,2.71,5.04,5.65,4.31,9.99,11.2-4.22,22.25-8.38,33.48-12.61-.02.16.02-.03.02-.23,0-13.2.04-26.41-.06-39.61,0-1.21-.59-2.62-1.35-3.59-3.88-5-7.91-9.88-11.89-14.81-2.28-2.82-4.56-5.63-6.97-8.6-.58,1.22-1.07,2.26-1.55,3.28,5.23,4.58,6.51,9.91,3.64,14.9-2.46,4.29-7.42,6.27-11.98,4.79-4.75-1.54-7.87-6.46-7.28-11.5.68-5.76,4.55-8.99,11.6-9.64.88-1.76,1.77-3.55,2.75-5.53-.87-.83-1.63-1.84-2.64-2.46-1.4-.86-3.04-.23-4.43,1.49-7.57,9.34-15.16,18.66-22.63,28.08-.84,1.06-1.38,2.66-1.4,4.02-.12,8.88-.06,17.77-.06,26.65,0,2.4,0,4.8,0,7.21,4.21,1.91,8.36,3.78,12.51,5.65.15.07.37-.02.56-.03.06.17.12.35.17.52.02,0,.04,0,.05,0-.03-.01-.05-.02-.08-.04-.05-.16-.11-.32-.16-.48-.57-.46-1.19-.87-1.71-1.38-5.69-5.61-8.1-12.37-6.95-20.31,1.63-11.29,12.1-21.08,25.66-19.32,13.5,1.75,22.08,13.88,19.73,27.3-2.08,11.89-14.23,20.45-26.14,18.29-2.43-.44-4.76-1.4-7.14-2.12-.23-.05-.47-.1-.7-.16-.07-.15-.14-.29-.21-.44-.03-.01-.05-.03-.08-.04.02-.03.04-.05.06-.08.02.03.03.05.05.08ZM46.49,145.01c.66-.25,1.11-.41,1.56-.6,4.14-1.77,8.27-3.59,12.45-5.28.84-.34,1.93-.45,2.81-.25,10.11,2.3,20.22,4.66,30.31,7.07,2.36.56,4.49.37,6.65-.8,5.83-3.13,11.72-6.14,17.59-9.2,8.9-4.66,17.81-9.31,26.7-13.99,2.02-1.06,3.83-2.43,4.97-4.47,1.55-2.77.28-5.21-2.87-5.67-2.46-.35-4.76.22-7.03,1.08-11.7,4.48-23.42,8.94-35.11,13.45-1.14.44-2.1.43-3.23,0-5.82-2.2-11.66-4.32-17.5-6.47-2.71-1-5.46-1.91-8.1-3.07-.66-.29-1.4-1.43-1.33-2.1.07-.69,1-1.42,1.72-1.85.36-.22,1.12.12,1.66.31,7.95,2.91,15.91,5.82,23.84,8.78.9.34,1.53.24,2.26-.34,2.81-2.22,3.27-4.93.68-7.39-1.88-1.78-4.18-3.27-6.53-4.38-6.6-3.11-13.35-5.9-19.98-8.94-2.68-1.23-5.15-1.16-7.75.12-7.16,3.53-14.36,7-21.54,10.49-.74.36-1.48.72-2.2,1.08v32.41ZM85.27,67.34c.37-3.44.73-4.47,2.3-6.42,2.49-3.09,4.85-6.31,7.54-9.22,1.79-1.94,1.97-4.01,1.69-6.34-.04-.34-.13-.67-.18-1.01-1.6-11.92-13.04-20.73-25.03-19.04-8.95,1.26-15.33,6.19-18.41,14.71-3.03,8.38-1.44,16.16,4.51,22.85,6.95,7.8,19.09,9.73,27.57,4.48ZM42.12,129.31c0-6.38,0-12.76,0-19.14,0-3.31-1.77-5.05-5.11-5.07-2.85-.02-5.69-.03-8.54,0-3.1.04-4.93,1.89-4.94,4.98,0,12.81,0,25.62,0,38.43,0,3.15,1.75,4.9,4.92,4.93,2.85.03,5.69.02,8.54,0,3.49-.02,5.12-1.65,5.13-5.13,0-6.33,0-12.66,0-18.99ZM135.49,88.88c0-10.4-8.38-18.84-18.75-18.86-10.42-.02-18.98,8.54-18.91,18.9.07,10.39,8.51,18.78,18.87,18.79,10.36,0,18.78-8.43,18.78-18.82ZM134.06,46.4c2.58-.88,5.06-2.55,6.81-4.62,1.85-2.18,2.77-4.68,2.59-7.59-.31-5.1-4.91-7.99-9.53-5.89-3.63,1.65-5.99,4.64-8.14,7.87,2.81,3.47,5.55,6.86,8.27,10.22ZM116.05,46.53c-2.96-.09-5.53,2.91-5.52,6.3,0,3.55,2.94,6.61,6.23,6.51,3.27-.1,6-2.89,5.89-5.97-1.91,0-3.81.06-5.71-.02-1.91-.08-2.69-1.28-2.12-3.09.39-1.24.82-2.46,1.24-3.73ZM119.67,49.11c.78-.04,1.31-.07,2.1-.11-.59-.62-.97-1.02-1.45-1.54-.23.6-.39,1-.65,1.65Z"/>
  <path class="cls-1" d="M73.26,60.88c-4.26-.13-8.6-2.33-11.8-6.69-.99-1.35-.91-2.56.18-3.34,1.01-.73,2.26-.49,3.15.79,4.66,6.65,14.47,6.68,19.16-.04.87-1.25,2.18-1.47,3.16-.72,1.01.77,1.08,1.96.19,3.25-2.89,4.17-7.81,6.74-14.04,6.75Z"/>
  <path class="cls-1" d="M62.63,40.69c0-1.67.76-2.67,2.04-2.69,1.35-.03,2.17,1.01,2.16,2.75,0,1.63-.79,2.66-2.06,2.7-1.32.04-2.15-1.02-2.14-2.75Z"/>
  <path class="cls-1" d="M86.61,40.74c0,1.6-.67,2.6-1.89,2.68-1.11.07-1.89-.51-2.21-1.56-.48-1.59.02-3.12,1.13-3.64,1.61-.75,2.99.41,2.98,2.53Z"/>
  <path class="cls-1" d="M118.19,87.5h-.51c-3.03,0-6.06,0-9.09,0-.28,0-.57,0-.83-.07-.8-.19-1.24-.89-1.19-1.84.05-.79.62-1.4,1.41-1.49.21-.02.43-.03.64-.03,3.02,0,6.03,0,9.05,0h.62c-.27-.47-.45-.89-.72-1.25-1.1-1.45-2.55-2.2-4.41-2.17-1.61.03-3.23,0-4.84,0-1.06,0-1.73-.64-1.74-1.66-.01-1.07.65-1.77,1.73-1.77,6.24,0,12.49,0,18.73,0,1.07,0,1.74.68,1.75,1.72,0,1.06-.67,1.71-1.78,1.71-2.08,0-4.16,0-6.24,0-.14,0-.29,0-.48,0,.26.48.53.9.74,1.36.25.56.48,1.13.65,1.71.08.28.19.35.46.35,1.6-.01,3.2,0,4.8,0,.91,0,1.48.34,1.73,1.03.36,1.01-.04,2.4-1.64,2.4-1.59,0-3.18.01-4.76,0-.35,0-.5.08-.59.45-.74,3.08-3.91,6.12-7.43,6.34-.57.04-1.14.06-1.78.09.14.15.24.26.34.36,2.27,2.27,4.55,4.55,6.82,6.82.77.78.83,1.69.18,2.42-.68.77-1.7.82-2.44.11-.72-.69-1.42-1.41-2.13-2.12-2.68-2.68-5.36-5.36-8.04-8.04-.39-.39-.7-.82-.62-1.41.12-.96.6-1.61,1.68-1.62,1.72-.01,3.44.02,5.16,0,2.14-.03,3.63-1.13,4.63-2.96.04-.08.08-.17.11-.26.01-.04.01-.08.03-.19Z"/>
</svg>