<?xml version="1.0" encoding="UTF-8"?>
<svg id="Layer_1" data-name="Layer 1" xmlns="http://www.w3.org/2000/svg" viewBox="0 0 173.75 178.65">
  <defs>
    <style>
      .cls-1 {
        fill: #008b47;
        stroke-width: 0px;
      }
    </style>
  </defs>
  <path class="cls-1" d="M17.65,158.82c.7-1.08,1.7-1.36,2.97-1.36,13.89.04,27.77.02,41.66.02.48,0,.95,0,1.78,0-1.53-1.52-2.78-2.84-4.13-4.05-.33-.29-1.02-.31-1.51-.24-2.09.29-3.68-.42-5.06-2.04-1.33-1.56-2.67-3.49-4.43-4.21-1.81-.74-4.15-.07-6.24-.26-1.92-.17-3.38.36-4.5,1.91-.23.32-.6.55-.84.86-.96,1.24-2.19,1.82-3.75,1.55-1.45-.24-2.46.29-3.23,1.53-.44.72-1.02,1.36-1.6,1.99-.88.96-2.08,1.07-3,.34-.95-.75-1.15-1.94-.38-2.99,1.12-1.51,2.25-3.03,3.56-4.37.5-.51,1.54-.8,2.28-.73,1.96.2,3.42-.42,4.63-1.96,1.31-1.67,2.85-3.03,5.35-2.28v-6.05c-.4.21-.77.39-1.13.59-5.33,3.06-10,2.15-13.67-2.75-2.38-3.18-3.62-6.86-4.42-10.7-.28-1.34.46-2.44,1.62-2.68,1.24-.26,2.28.45,2.63,1.87.73,3.01,1.63,5.96,3.39,8.55,1.35,1.99,3.07,3.71,5.64,2.93,1.86-.57,3.51-1.85,5.2-2.9.17-.1.1-.9-.1-1.23-2.07-3.35-5.28-4.65-9.04-4.93-.31-.02-.63,0-.94-.04-1.24-.13-2.05-1.05-1.99-2.25.06-1.14.88-2,2.09-2.01,4.75-.07,8.87,1.43,12.14,4.99.24.26.46.54.97,1.14.17-.34.25-.66.45-.89,2.95-3.42,6.77-5.04,11.22-5.23,2.33-.1,4.66.02,6.99-.04,1.13-.03,2.01.29,2.64,1.4.18-.2.29-.42.46-.49.74-.31,1.58-.91,2.23-.76.65.15,1.34.99,1.62,1.69.91,2.27,1.54,4.66,2.48,6.91.49,1.17,1.33,2.24,2.18,3.19,1.55,1.72,3.52,2.07,5.63,1.16,1.02-.44,1.98-1.04,2.89-1.68,1.75-1.24,1.75-1.36.38-3.09-2.23-2.81-5.29-3.82-8.73-4.03-.56-.03-1.18-.11-1.66-.38-.88-.49-1.16-1.38-.9-2.32.29-1.06,1.06-1.6,2.2-1.6,4.86.01,9.03,1.59,12.25,5.34.14.17.29.32.68.75.15-.3.23-.57.4-.76,2.96-3.49,6.82-5.11,11.32-5.3,2.24-.09,4.48.02,6.72-.04,1.2-.03,2.22.17,2.72,1.15.84-.4,1.58-.98,2.37-1.08,1.18-.15,1.79.69,2.15,1.79.81,2.45,1.63,4.91,2.62,7.29.41,1,1.17,1.91,1.92,2.73,1.62,1.76,3.57,2.19,5.73,1.2,1.25-.57,2.35-1.44,3.53-2.16.78-.48.81-.99.31-1.75-1.74-2.62-4.18-4.11-7.25-4.6-.84-.14-1.69-.19-2.54-.26-1.37-.11-2.21-.96-2.18-2.21.03-1.25.91-2.07,2.31-2.07,4.86,0,9.02,1.6,12.24,5.36.14.16.29.31.52.56,2.29-2.89,5.14-4.97,8.71-5.42,3.62-.46,7.31-.4,10.97-.45,1.16-.02,2.01,1.15,1.77,2.4-.93,4.81-2.5,9.37-6.13,12.87-2.89,2.79-6.33,3.35-10.05,1.81-1.02-.42-1.97-.99-3.06-1.54v5.75c.08.05.16.14.22.13,2.15-.35,3.65.64,4.98,2.21,1.04,1.22,2.3,2.26,3.39,3.45.6.66,1.25.93,2.11.84.53-.05,1.08.03,1.61-.02,1.35-.12,2.16.5,2.72,1.71.89,1.9,1.93,3.73,2.79,5.65.43.95.93,1.45,2,1.27.44-.07.89,0,1.34-.02,1.12-.05,1.95.42,2.29,1.48.34,1.05-.01,1.93-.96,2.55-.11.07-.18.18-.27.27H17.65v-2.96ZM127.29,136.43c-.57.32-.99.56-1.4.8-5.06,2.85-9.58,1.98-13.19-2.57-2.09-2.64-3.29-5.71-4.18-8.92-.14-.51-.29-1.02-.43-1.52-.4.58-.53,1.1-.67,1.61-.96,3.38-2.26,6.6-4.54,9.33-2.95,3.54-6.96,4.61-11.07,2.92-1.05-.43-2.04-1.02-3.11-1.56v6.04c2.75-.86,4.19.97,5.73,2.6.61.65,1.35,1.21,1.88,1.92,1.12,1.51,2.55,2.12,4.39,1.82,1.28-.21,2.19.37,3.06,1.28,2.14,2.23,4.33,4.41,6.57,6.54.45.43,1.22.75,1.84.75,10.61.05,21.23.03,31.84.03.37,0,.75-.05,1.27-.08-.6-1.22-1.18-2.28-1.65-3.38-.3-.69-.72-.97-1.44-.85-2.11.36-3.73-.43-5-2.11-.4-.53-1.02-.9-1.4-1.44-1.74-2.46-4.07-2.99-7.03-3.02-3.36-.03-6.06.53-8.13,3.37-.43.6-1.51.97-2.31,1-1.76.06-3.4-.04-4.65,1.64-.69.93-2.08.75-2.88-.03-.84-.81-.91-2.08-.08-3.02.71-.8,1.47-1.58,2.29-2.26.38-.32,1-.61,1.44-.53,2.67.49,4.52-.71,6.05-2.71.22-.28.46-.6.76-.75.69-.34,1.41-.76,2.15-.84,1.27-.14,2.56-.04,3.89-.04v-6ZM45.67,142.42c1.22,0,2.37.06,3.52-.02,1.18-.08,2.05.34,2.84,1.18,1.19,1.28,2.54,2.41,3.67,3.74,1.05,1.24,2.23,1.82,3.84,1.55,1.46-.24,2.53.38,3.53,1.44,2.06,2.18,4.2,4.29,6.37,6.35.46.43,1.21.77,1.83.77,10.75.05,21.5.03,32.24.03.37,0,.74-.05,1.32-.1-1.39-1.38-2.57-2.6-3.82-3.75-.31-.29-.89-.49-1.3-.43-2.51.37-4.44-.49-5.92-2.52-.23-.32-.61-.54-.84-.87-1.84-2.62-4.33-3.21-7.48-3.22-3.25-.01-5.82.59-7.72,3.3-.64.91-1.59,1.22-2.71,1.13-1.48-.12-2.86-.15-3.84,1.44-.61,1-1.99.94-2.87.22-.88-.72-1.08-1.89-.4-2.89.55-.81,1.13-1.63,1.85-2.29.45-.41,1.21-.82,1.75-.73,2.49.38,4.29-.61,5.73-2.52.24-.32.52-.67.86-.84.76-.38,1.55-.84,2.37-.95,1.22-.16,2.47-.04,3.75-.04v-5.99c-.53.3-.95.54-1.36.77-5.06,2.86-9.59,2-13.19-2.54-2.09-2.64-3.29-5.71-4.19-8.92-.14-.52-.29-1.03-.43-1.55-.4.56-.53,1.07-.67,1.58-.95,3.38-2.25,6.6-4.53,9.34-2.95,3.55-6.95,4.63-11.06,2.95-1.05-.43-2.05-1.02-3.15-1.57v5.93ZM60.02,125.28c-1.78,0-3.39-.11-4.98.02-3.35.28-6.18,1.57-8.23,4.39-.73,1-.82,1.69.33,2.34,1.24.7,2.41,1.55,3.71,2.1,1.63.7,3.27.43,4.64-.75,2.47-2.13,3.54-5.04,4.54-8.1ZM103.08,125.08c-2.36.15-4.48.12-6.54.45-3,.47-5.39,2.05-7.05,4.66-.41.65-.44,1.12.26,1.55,1.21.74,2.35,1.65,3.63,2.25,2.16,1,4.1.56,5.74-1.17,1.98-2.09,3.01-4.7,3.95-7.73ZM146.04,125.26c-1.7,0-3.27-.1-4.82.02-3.19.24-6,1.37-8.05,3.97-1.36,1.73-1.37,1.84.39,3.08.98.69,2.04,1.31,3.14,1.76,1.85.76,3.62.45,5.09-.95,2.24-2.14,3.31-4.9,4.24-7.88Z"/>
  <path class="cls-1" d="M17.65,31.92c.7-1.07,1.68-1.45,2.96-1.36,1.15.09,2.32,0,3.48.03,1.28.04,2.13.88,2.16,2.07.04,1.25-.83,2.17-2.16,2.2-1.43.04-2.88.16-4.27-.05-.77-.11-1.44-.83-2.16-1.28,0-.54,0-1.08,0-1.61Z"/>
  <path class="cls-1" d="M60.65,41.42c0,.85.06,1.61-.01,2.36-.11,1.09-1.03,1.84-2.12,1.84-1.09,0-2.1-.76-2.1-1.84-.01-2.28-.15-4.6.25-6.82.92-5.06,5.3-8.52,10.43-8.52,12.9-.01,25.81-.02,38.71,0,6.09,0,10.76,4.73,10.78,10.84.01,2.77,0,5.55,0,8.4.41.04.75.1,1.09.1,3.94,0,7.89.04,11.83-.03.56,0,1.27-.37,1.63-.81,1.36-1.66,2.69-3.36,3.88-5.15,1.23-1.84,2.54-3.31,5.24-2.41,0-.72,0-1.19,0-1.66,0-3.67,0-7.35,0-11.02,0-1.64.74-2.54,2.08-2.58,1.4-.04,2.2.89,2.21,2.58,0,1.24,0,2.49,0,3.87,2.93,0,5.74-.02,8.55,0,1.36.01,2.22.92,2.2,2.18-.02,1.2-.87,2.03-2.15,2.1-.4.02-.81,0-1.21,0-2.41,0-4.82,0-7.31,0v4.22c1.76.28,2.12,1.52,2.1,3.2-.07,5.29-.05,10.57-.01,15.86.02,2.78-1.19,4.77-3.56,6.17-.36.21-.68.77-.72,1.19-.1,1.16-.02,2.33-.04,3.49-.02,1.62-.77,2.4-2.36,2.43-1.34.02-2.69.03-4.03,0-1.36-.04-2.15-.83-2.19-2.19-.03-1.38,0-2.75,0-4.19h-5.87c.73,3.33,1.44,6.63,2.17,9.92.46,2.09.95,4.18,1.41,6.28.36,1.6-.26,2.79-1.57,3.06-1.28.27-2.28-.46-2.63-2.02-1.26-5.53-2.48-11.07-3.73-16.61-.05-.21-.12-.41-.18-.6-1.63.02-2.38.68-2.52,2.17-.39,4.09-2.87,6.33-7.01,6.34-1.21,0-2.42.02-3.63,0-1.38-.03-2.25-.87-2.25-2.13,0-1.26.86-2.12,2.23-2.15,1.3-.03,2.6.02,3.9-.02,1.57-.04,2.35-.82,2.47-2.4.29-3.71,2.91-6.17,6.61-6.19,2.05,0,4.1,0,6.22,0v-8.51h-21.7c-.45,3.11-.91,6.27-1.37,9.44-.73,5.09-1.41,10.19-2.19,15.27-.47,3.02-3.17,5.24-6.22,5.29-.89.01-1.78,0-2.86,0,0,1.39.01,2.72,0,4.04-.02,1.61-.78,2.4-2.38,2.41-4.17.02-8.33.02-12.5,0-1.51,0-2.28-.81-2.31-2.34-.02-1.3,0-2.59,0-4.1-.92,0-1.8,0-2.67,0-3.36-.03-5.99-2.32-6.47-5.63-1.17-8.1-2.33-16.2-3.51-24.38h-21.68v8.52c2,0,4,0,6,0,3.92,0,6.48,2.36,6.81,6.26.13,1.49.91,2.28,2.41,2.33,1.3.04,2.6,0,3.9.02,1.39.03,2.27.84,2.29,2.09.03,1.31-.86,2.17-2.33,2.19-1.43.02-2.87.02-4.3,0-3.31-.06-6.03-2.67-6.26-6-.12-1.8-.71-2.41-2.56-2.54-.67,3.01-1.35,6.04-2.03,9.08-.61,2.7-1.2,5.41-1.83,8.11-.38,1.62-1.43,2.39-2.72,2.07-1.28-.31-1.83-1.49-1.47-3.12,1.15-5.19,2.29-10.38,3.44-15.57.04-.17.06-.34.09-.57h-5.84c0,1.36.02,2.68,0,4.01-.02,1.6-.79,2.37-2.4,2.39-1.3.02-2.6.02-3.9,0-1.46-.03-2.23-.8-2.29-2.23-.01-.36-.02-.72,0-1.07.12-1.96.2-3.7-2.08-4.87-1.66-.85-2.23-2.81-2.23-4.77.01-5.47,0-10.93,0-16.4,0-1.96.26-2.33,2.15-3.09,0-4.05,0-8.12,0-12.2,0-1.73.74-2.65,2.13-2.66,1.39-.01,2.15.92,2.16,2.63,0,1.12,0,2.24.01,3.36,0,.09.03.17.09.46,1.5,0,3.05,0,4.6,0,1.25,0,2.51-.02,3.76,0,1.39.03,2.26.85,2.29,2.1.02,1.31-.87,2.17-2.33,2.18-2.73.02-5.46,0-8.31,0v4.15s.11.13.17.12c2.37-.39,3.82.8,5.02,2.7,1.15,1.81,2.52,3.48,3.86,5.16.31.39.92.75,1.39.75,22.85.03,45.7.03,68.55.02.09,0,.18-.02.38-.05v-6.31h-51.53ZM69.72,52.14c.01.28,0,.49.04.7.73,5.22,1.48,10.44,2.18,15.67.1.77.53.79,1.11.79,8.95,0,17.91-.01,26.86.01.82,0,1.04-.29,1.13-1.07.27-2.26.65-4.51.97-6.77.44-3.09.86-6.17,1.29-9.34h-33.57ZM111.72,36.98c-.98-2.73-3.26-4.25-6.29-4.25-8.64-.01-17.28,0-25.92,0-4.07,0-8.15-.02-12.22,0-2.92.02-5.36,1.76-6,4.25h50.43ZM100.23,73.66h-27.51c.1.77.19,1.47.29,2.17.18,1.3.96,2.05,2.24,2.05,7.47.03,14.94.02,22.41,0,1.1,0,1.9-.58,2.18-1.65.21-.81.25-1.66.38-2.58ZM30.56,52.14c0,2.21-.03,4.26.01,6.32.03,1.23.74,2.12,1.95,2.18,2.17.12,4.36.03,6.55.03v-8.53h-8.52ZM133.88,52.14v8.55c2.15,0,4.21.04,6.26-.01,1.29-.03,2.17-.83,2.22-2.07.08-2.13.02-4.27.02-6.46h-8.5ZM30.66,43.61v4.09h6.22c-.64-.86-1.27-1.5-1.66-2.28-.99-2-2.6-2.26-4.57-1.82ZM142.33,47.73v-4.3c-1.11.07-2.47-.25-3.12.29-1.24,1.03-2.08,2.54-3.2,4.01h6.32ZM82.21,84.25h8.5v-1.97h-8.5v1.97Z"/>
  <path class="cls-1" d="M65.54,109.65c-.62-.5-1.54-.88-1.7-1.48-.21-.73-.04-1.82.42-2.43.93-1.24,2.16-2.26,3.27-3.37,2.85-2.85,5.69-5.71,8.55-8.55,1.26-1.24,2.88-1.16,3.64.16.56.98.4,1.92-.38,2.7-4.01,4.03-8.03,8.06-12.08,12.05-.38.38-.99.53-1.72.9Z"/>
  <path class="cls-1" d="M109.36,106.87c.05,1.98-1.6,3.03-3.08,2.32-.16-.08-.32-.17-.45-.29-4.12-4.11-8.27-8.2-12.3-12.39-.46-.48-.48-1.68-.27-2.43.26-.94,1.23-1.27,2.2-1.07.45.09.93.37,1.26.69,4.01,3.97,8,7.96,11.97,11.97.38.38.55.98.68,1.2Z"/>
  <path class="cls-1" d="M84.33,103.57c0-2.69,0-5.38,0-8.06,0-1.62.77-2.53,2.11-2.55,1.35-.02,2.17.89,2.18,2.48,0,5.51,0,11.02,0,16.53,0,1.58-.83,2.5-2.18,2.48-1.34-.02-2.1-.93-2.11-2.55,0-2.78,0-5.56,0-8.33Z"/>
  <path class="cls-1" d="M133.86,30.59c.76,0,1.53-.05,2.28.01,1.16.09,1.97,1.02,1.93,2.17-.05,1.2-.7,1.99-1.88,2.07-1.61.11-3.23.08-4.84,0-1.1-.05-1.85-.99-1.87-2.09-.01-1.15.78-2.07,1.95-2.15.8-.06,1.61-.01,2.42-.01Z"/>
  <path class="cls-1" d="M61.75,113.36c0,1.21-.91,2.14-2.1,2.16-1.21.02-2.23-1.01-2.19-2.23.04-1.19.98-2.08,2.19-2.06,1.22.01,2.1.9,2.1,2.13Z"/>
  <path class="cls-1" d="M88.62,120.94c-.01,1.2-.93,2.11-2.13,2.12-1.25,0-2.2-.98-2.15-2.24.05-1.2.99-2.08,2.2-2.05,1.2.03,2.1.96,2.08,2.17Z"/>
  <path class="cls-1" d="M110.09,96.2c-.02,1.16-.99,2.11-2.16,2.12-1.26,0-2.19-.96-2.14-2.23.04-1.21.98-2.08,2.19-2.05,1.17.03,2.13,1.01,2.12,2.16Z"/>
  <path class="cls-1" d="M47.92,96.19c1.18-.02,2.17.9,2.22,2.06.05,1.2-.97,2.23-2.19,2.22-1.2,0-2.11-.92-2.11-2.13,0-1.22.88-2.13,2.09-2.15Z"/>
  <path class="cls-1" d="M124.82,100.47c-1.15-.08-2.09-1.12-2.01-2.26.08-1.22,1.16-2.13,2.39-2.01,1.18.11,1.99,1.1,1.9,2.32-.09,1.19-1.07,2.03-2.28,1.95Z"/>
  <path class="cls-1" d="M113.3,115.51c-1.19-.02-2.09-.95-2.1-2.16,0-1.28.94-2.18,2.23-2.13,1.2.05,2.1,1.01,2.06,2.19-.04,1.16-1.04,2.11-2.19,2.09Z"/>
  <path class="cls-1" d="M64.97,98.32c-1.18-.03-2.13-1.01-2.12-2.16.01-1.22,1.06-2.18,2.29-2.12,1.2.06,2.05,1,2.01,2.23-.04,1.2-.98,2.08-2.19,2.05Z"/>
  <path class="cls-1" d="M56.49,99.4c-1.17,0-2.15-.96-2.17-2.12-.02-1.2,1.02-2.2,2.25-2.17,1.16.03,2.13,1.03,2.1,2.18-.03,1.15-1.01,2.11-2.18,2.1Z"/>
  <path class="cls-1" d="M116.45,99.4c-1.17,0-2.16-.95-2.18-2.11-.03-1.2,1.01-2.21,2.24-2.18,1.17.03,2.13,1.02,2.11,2.17-.02,1.16-1,2.11-2.17,2.12Z"/>
</svg>