<?xml version="1.0" encoding="UTF-8"?>
<svg id="Layer_1" data-name="Layer 1" xmlns="http://www.w3.org/2000/svg" viewBox="0 0 66.93 65.64">
  <defs>
    <style>
      .cls-1 {
        fill: #fff;
        stroke-width: 0px;
      }
    </style>
  </defs>
  <path class="cls-1" d="M35.53,6.44c.95.38,1.96.65,2.84,1.15,3.32,1.9,5.1,4.79,5.3,8.62.06,1.03,0,2.06.03,3.09,0,.21.04.46.16.62,1.53,2.05.43,5.12-2.33,5.56-.1.02-.2.03-.32.05-.2,1.18-.53,2.3-1.23,3.25-.43.59-.97,1.1-1.44,1.67-.16.19-.29.45-.31.69-.05.49.02,1-.02,1.49-.03.4.14.56.49.69,3.04,1.16,6.08,2.34,9.12,3.52,3.04,1.17,4.87,3.83,4.85,7.08,0,.63-.21.93-.67.99-.53.07-.87-.28-.88-.94-.01-.96-.14-1.88-.58-2.74-.63-1.24-1.56-2.2-2.83-2.73-1.99-.83-4.02-1.58-6.07-2.38-.57,1.14-1.13,2.25-1.68,3.37-.29.58-.58,1.17-.87,1.75-.54,1.07-1.35,1.28-2.36.62-.06-.04-.12-.07-.2-.13-.44.55-.8,1.04-.63,1.87.43,2.1.74,4.22,1.08,6.34.05.34.17.51.54.53.41.02.82.1,1.22.18,1.11.22,1.48,1.35.72,2.19-.27.3-.58.58-.93.94h3.78c-.27-.28-.55-.5-.75-.77-.22-.31-.48-.65-.55-1.01-.13-.64.37-1.22,1.06-1.34.77-.14,1.55-.24,2.4-.37,0-.19,0-.38,0-.56,0-1.39,0-2.78,0-4.17,0-.61.28-.96.75-.98.49-.01.79.35.8.98,0,.74,0,1.48,0,2.32.12-.15.19-.23.25-.32.62-.9,1.73-.86,2.26.1.34.61.67,1.24.93,1.89.22.56.57.81,1.15.8.14,0,.27.02.5.03,0-.61,0-1.2,0-1.79,0-.26-.01-.52.01-.77.05-.51.35-.78.79-.77.44.01.73.3.74.82.02.76.02,1.51,0,2.27,0,.31.03.51.38.66.83.36.98,1.37.33,2.06-.56.58-1.14,1.15-1.73,1.69-.25.23-.31.45-.25.77.14.71.25,1.42.38,2.13.11.59.06,1.14-.47,1.53-.53.39-1.06.28-1.59-.01-.6-.33-1.22-.62-1.82-.97-.35-.2-.63-.23-.99-.01-.63.38-1.3.69-1.95,1.04-.51.27-1.02.31-1.5-.06-.47-.36-.57-.86-.46-1.43.13-.69.24-1.38.36-2.1h-5.85c.12.69.22,1.36.34,2.02.12.6.05,1.14-.47,1.52-.5.37-1.03.29-1.55,0-.65-.35-1.31-.67-1.95-1.04-.29-.16-.51-.17-.81,0-.67.38-1.36.72-2.04,1.08-.51.27-1.02.3-1.5-.07-.46-.35-.56-.84-.47-1.39.12-.69.24-1.38.37-2.12h-5.85c.12.69.22,1.38.35,2.06.12.59,0,1.1-.48,1.47-.48.36-.99.3-1.5.02-.68-.37-1.35-.74-2.05-1.07-.19-.09-.5-.09-.7,0-.7.32-1.38.7-2.05,1.07-.51.27-1.01.34-1.5-.02-.51-.37-.59-.89-.49-1.47.13-.76.28-1.52.38-2.28.02-.2-.07-.47-.21-.61-.47-.5-.97-.97-1.47-1.45-1.07-1.05-.94-1.9.41-2.57,0-1.84,0-3.69,0-5.54,0-1.36-.02-2.71.52-4,.81-1.94,2.2-3.31,4.13-4.08,3.09-1.24,6.19-2.42,9.3-3.61.38-.15.47-.34.51-.74.1-1.12-.17-1.97-1.09-2.75-1.15-.97-1.74-2.37-1.99-3.86-.06-.34-.18-.48-.53-.54-2.67-.46-3.72-3.54-2.23-5.43.12-.16.16-.41.17-.62.04-1.35-.03-2.72.12-4.06.46-4.21,3.55-7.69,7.65-8.73.16-.04.32-.1.48-.16.17,0,.34,0,.52,0,.3.23.6.48.5.92-.09.43-.43.59-.82.66-.05,0-.1.03-.15.04-4.57,1.15-7.36,5.23-6.66,10.73.33-.17.76-.25.9-.5.37-.63.85-.87,1.55-.87.96,0,1.92-.02,2.87-.13,2.38-.29,4.58-1.14,6.62-2.4.89-.55,1.51-.44,2.23.34.64.69,1.29,1.38,1.91,2.09.17.19.4.42.41.63.03.66.46.64.9.67,0-1.02.11-2.04-.02-3.03-.52-3.88-2.97-6.57-6.74-7.54-.39-.1-.78-.21-.89-.67-.11-.44.19-.69.47-.94.21,0,.41,0,.62,0ZM25.29,36.11c-2.1.83-4.22,1.54-6.22,2.49-2.05.96-3.18,2.69-3.22,5-.05,2.16-.02,4.33-.02,6.49,0,.09.04.19.06.28.18-.01.34-.03.49-.04.53,0,.86-.23,1.07-.75.26-.67.61-1.3.95-1.94.32-.6.93-.9,1.5-.66.38.16.67.51,1,.77,0-.67,0-1.41,0-2.14,0-.69.28-1.05.79-1.04.49,0,.76.36.76,1.02,0,.89,0,1.79,0,2.68,0,.66,0,1.33,0,2.01.77.11,1.48.23,2.19.32.59.08,1.05.33,1.24.93.2.61-.07,1.06-.49,1.47-.25.24-.48.49-.77.78h3.84c-.39-.38-.72-.65-1-.97-.73-.83-.35-1.94.73-2.16.42-.08.85-.16,1.27-.19.32-.02.44-.16.49-.46.35-2.12.65-4.24,1.08-6.34.17-.83-.14-1.37-.62-1.93-.16.1-.3.2-.45.28-.72.42-1.53.22-1.96-.5-.1-.16-.18-.33-.26-.5-.81-1.62-1.62-3.25-2.45-4.91ZM27.06,19c0,1.99-.05,3.91.01,5.82.1,3.3,2.81,5.87,6.18,5.95,3.37.07,6.21-2.37,6.41-5.68.13-2.12.05-4.26.06-6.38,0-.13-.04-.29-.12-.38-.67-.74-1.35-1.46-2.03-2.19-3.22,2.02-6.69,2.98-10.51,2.86ZM15.13,52.08c.54.57,1.03,1.12,1.55,1.64.41.41.57.87.45,1.45-.15.71-.24,1.44-.38,2.25.61-.32,1.14-.55,1.63-.86.8-.52,1.55-.52,2.34,0,.49.32,1.03.55,1.63.87-.13-.8-.22-1.48-.37-2.14-.15-.67.03-1.2.53-1.67.51-.48.96-1,1.47-1.54-.7-.1-1.37-.22-2.05-.29-.65-.07-1.11-.36-1.39-.98-.29-.65-.63-1.28-1-2-.35.7-.67,1.3-.94,1.92-.29.67-.77,1-1.5,1.07-.66.06-1.32.19-1.97.28ZM42.96,52.08c.54.57,1.01,1.1,1.53,1.6.45.44.6.93.48,1.54-.14.7-.25,1.41-.38,2.21.67-.35,1.28-.64,1.84-.98.66-.4,1.27-.39,1.93,0,.56.34,1.16.62,1.82.97-.13-.79-.21-1.48-.36-2.14-.17-.71.06-1.22.56-1.7.49-.47.93-.99,1.4-1.5-.61-.09-1.25-.23-1.89-.28-.79-.06-1.3-.43-1.6-1.16-.25-.6-.57-1.17-.91-1.84-.37.74-.69,1.36-.98,2-.28.61-.73.91-1.39.98-.68.08-1.35.19-2.06.29ZM37.89,52.08c-.66-.1-1.32-.22-1.98-.28-.72-.07-1.2-.4-1.5-1.07-.27-.62-.59-1.22-.94-1.92-.34.7-.66,1.28-.93,1.89-.31.71-.81,1.05-1.58,1.11-.65.05-1.29.19-1.92.29.52.55.99,1.08,1.5,1.57.46.45.64.94.5,1.58-.15.69-.24,1.4-.37,2.19.59-.31,1.12-.53,1.59-.84.83-.55,1.61-.55,2.43,0,.47.31,1,.53,1.58.83-.14-.81-.23-1.51-.38-2.19-.13-.62.03-1.1.47-1.54.51-.5.99-1.04,1.52-1.6ZM33.46,37.35c.91-1.12,1.71-2.24,2.65-3.23.71-.75.53-1.57.54-2.47-2.15.91-4.25.84-6.39.07,0,.41-.02.73,0,1.06.02.26,0,.59.15.77.98,1.26,1.99,2.49,3.05,3.79ZM37.66,40.62c.85-1.7,1.68-3.37,2.52-5.06-.77-.3-1.48-.6-2.21-.85-.13-.05-.39.05-.49.17-.62.73-1.22,1.48-1.83,2.23-.35.43-.7.87-1.06,1.32,1.04.74,2.03,1.44,3.07,2.18ZM32.34,38.44c-1-1.24-1.98-2.45-2.97-3.66-.06-.08-.25-.13-.34-.09-.75.27-1.49.57-2.28.88.85,1.7,1.68,3.36,2.53,5.06,1.06-.75,2.05-1.46,3.07-2.18ZM35.13,48.41c-.02-.16-.03-.33-.06-.49-.19-1.1-.38-2.2-.56-3.3-.21-1.26-.2-1.25-1.44-1.24-.34,0-.48.11-.53.45-.11.78-.26,1.56-.39,2.33-.12.75-.24,1.49-.36,2.24.49-.62.67-1.49,1.68-1.49,1.01,0,1.18.89,1.66,1.49ZM25.47,20.16c-1.11.23-1.77,1.04-1.7,2.04.06.91.78,1.64,1.7,1.69v-3.73ZM31.72,40.78c.59,1.05.59,1,2.21,1.07.83.04.92-.6,1.3-1.05-.53-.38-1.04-.76-1.57-1.1-.1-.06-.31-.06-.4,0-.53.35-1.03.72-1.54,1.09ZM41.3,23.9c1.03-.11,1.75-.96,1.7-1.97-.05-.98-.81-1.78-1.7-1.77v3.74Z"/>
</svg>