<?xml version="1.0" encoding="UTF-8"?>
<svg id="Layer_1" data-name="Layer 1" xmlns="http://www.w3.org/2000/svg" viewBox="0 0 66.93 65.64">
  <defs>
    <style>
      .cls-1 {
        fill: #fff;
        stroke-width: 0px;
      }
    </style>
  </defs>
  <path class="cls-1" d="M22.58,59.79c-1.05-.1-2.09-.19-3.13-.32-3.13-.37-6.19-1.05-9.15-2.13-1.71-.63-2.83-1.92-2.88-3.74-.15-5.88.57-11.64,3.16-17.01,2.61-5.43,7.01-8.33,12.96-8.95,3.78-.39,7.49.06,11.18.89.17.04.34.07.53.11.02-.16.03-.28.05-.39.07-.41.32-.66.73-.73.43-.07.77.1.95.5.18.39.32.81.5,1.25,1.12-.99,2.35-1.72,3.75-2.14,2.93-.86,5.68-.46,8.29,1.12.64.39,1.34.68,2.02,1,.15.07.32.08.58.13-.11-.46-.15-.84-.29-1.19-.37-.96-.79-1.91-1.17-2.87-.15-.38-.37-.51-.79-.5-2.33.06-4.62-.23-6.85-.95-4.04-1.32-6.57-4.08-7.78-8.11-.77-2.57-.98-5.2-.85-7.86.05-.98.82-1.84,1.78-1.93,3.33-.31,6.59-.04,9.73,1.2,3.82,1.51,5.98,4.44,7.03,8.3.53,1.94.75,3.93.74,5.94,0,.39.09.6.47.81,2.77,1.49,4.65,3.72,5.28,6.85.87,4.3-2.58,8.57-6.96,8.74-2.73.1-5.08-.83-7.23-2.43-1.45-1.08-2.9-1.06-4.35.04.53.27,1.09.48,1.57.82.54.38,1.04.83,1.49,1.32.43.46.38,1.01-.01,1.35-.41.35-.85.29-1.34-.18-.03-.03-.08-.05-.08-.05-.31,1.87-.56,3.77-.95,5.63-.61,2.94-1.61,5.73-3.22,8.29-2.51,3.99-6.17,6.17-10.76,6.9-.85.13-1.7.22-2.55.32h-2.42ZM23.99,58.01c.59-.05,1.68-.09,2.76-.23,2.62-.34,5.05-1.17,7.13-2.85,2.1-1.7,3.48-3.92,4.49-6.39,1.43-3.5,2.02-7.17,2.3-10.92.02-.32-.14-.42-.37-.46-1.29-.25-2.56-.56-3.86-.72-1.1-.14-1.43-.56-1-1.59.51-1.21.7-2.45.53-3.76-.04-.28-.12-.42-.42-.5-3.82-.96-7.67-1.51-11.62-1.16-5.44.49-9.46,3.07-11.82,8.05-2.39,5.05-3.01,10.44-2.93,15.95.02,1.1.71,1.88,1.73,2.23,4.07,1.38,8.24,2.27,13.06,2.35ZM51.82,20.48c-.04-1.72-.26-3.28-.71-4.8-.79-2.73-2.22-5-4.82-6.35-3.06-1.59-6.36-1.84-9.73-1.61-.36.03-.39.27-.4.55-.08,2.04.05,4.07.54,6.06.57,2.31,1.53,4.41,3.42,5.96,1.67,1.38,3.64,2.05,5.75,2.43,1.7.31,3.4.34,5.18.26-.1-.25-.18-.44-.27-.62-1.29-2.63-3.13-4.81-5.32-6.72-1.55-1.35-3.25-2.5-5.04-3.52-.27-.15-.56-.44-.62-.71-.06-.26.1-.66.3-.87.31-.33.73-.23,1.12-.03,4.24,2.23,7.66,5.36,10.24,9.39.1.15.2.31.37.56ZM37.56,34.69c.58.25,1.1.07,1.62-.37.38-.33.85-.56,1.29-.81,2.06-1.16,4.01-.99,5.89.45,1.39,1.06,2.93,1.77,4.69,1.99,2.94.38,5.75-1.39,6.46-4.13.6-2.32-.19-4.28-1.67-6.03-.71-.83-1.54-1.51-2.49-1.96-.37.31-.69.57-.98.8.42,1.1.88,2.18,1.25,3.3.17.5.25,1.07.23,1.6-.06,1.25-.74,1.79-1.98,1.64-1.25-.15-2.33-.75-3.37-1.4-3.63-2.28-7.72-1.32-10.46,1.47-.11.11-.19.29-.2.45-.1.99-.18,1.98-.27,3.01Z"/>
  <path class="cls-1" d="M10.97,51.72c.15-4.19.64-8.33,2.23-12.26.91-2.24,2.15-4.26,4.08-5.78,1.91-1.5,4.15-2.17,6.52-2.43.77-.09,1.54-.11,2.31-.13.69-.02,1.08.3,1.09.85.02.57-.38.93-1.09.93-1.64.01-3.25.2-4.83.69-2.7.84-4.51,2.67-5.77,5.13-1.28,2.52-1.98,5.21-2.3,8-.24,2.07-.31,4.16-.44,6.24-.04.67-.35,1.07-.9,1.07-.55,0-.89-.39-.9-1.06,0-.42,0-.84,0-1.26Z"/>
  <path class="cls-1" d="M24.7,56.2c-.33,0-.67,0-1,0-.6-.02-1.02-.4-1-.92.01-.51.4-.85.99-.87,1.83-.04,3.65-.2,5.37-.87.75-.29,1.45-.71,2.14-1.1.56-.32,1.04-.29,1.35.15.31.44.18.99-.35,1.35-1.96,1.36-4.18,1.94-6.52,2.17-.33.03-.67.05-1,.07,0,0,0,.02,0,.03Z"/>
</svg>