<?xml version="1.0" encoding="UTF-8"?>
<svg id="Layer_1" data-name="Layer 1" xmlns="http://www.w3.org/2000/svg" viewBox="0 0 66.93 65.64">
  <defs>
    <style>
      .cls-1 {
        fill: #fff;
        stroke-width: 0px;
      }
    </style>
  </defs>
  <path class="cls-1" d="M28.47,12.34c.48,0,.89-.01,1.3,0,.68.03,1.11.44,1.11,1.05,0,.61-.42,1.04-1.09,1.07-.51.02-1.03,0-1.62,0,0,.63-.03,1.21,0,1.79.13,2.49-.81,4.36-3.1,5.53,1.93,1.57,3.03,3.77,4.55,5.63.15.18.46.33.7.33,1.94.03,3.89.07,5.83,0,1.93-.07,3.45.79,4,2.92,3.27-.57,6.07.33,8.43,2.79v-4.1c-.82-.13-1.64-.19-2.42-.41-3.6-1.02-5.81-4.72-5.04-8.37.13-.63.44-.9,1.2-1.02,2.18-.35,4.13.18,5.85,1.57.12.1.24.2.42.34.04-.72.11-1.28-.51-1.85-3.08-2.84-2.62-7.93.85-10.26.62-.42.93-.42,1.56,0,3.56,2.42,3.88,7.57.64,10.46-.27.24-.38.46-.37.82.02,1.64,0,3.28,0,5.03.2-.17.33-.27.45-.38,2.01-1.81,4.36-2.49,7.02-2.02.74.13.98.36,1.13,1.08.94,4.31-2.12,8.81-6.48,9.52-.68.11-1.37.12-2.1.18,0,.17-.02.34-.02.51,0,4.24,0,8.49-.01,12.73,0,.41.11.59.51.69.9.22,1.67.7,2.33,1.36,2.26,2.25,4.52,4.51,6.77,6.77.55.55.58,1.19.1,1.65-.46.44-1.07.4-1.61-.13-2.17-2.16-4.34-4.34-6.51-6.51-1.66-1.66-3.61-1.67-5.27-.01-2.11,2.1-4.21,4.21-6.32,6.32-.13.13-.25.26-.39.37-.45.34-1.02.3-1.41-.08-.39-.39-.42-.96-.08-1.41.11-.14.24-.26.37-.39,2-2.01,4.01-4.01,6.02-6.02,1.31-1.31,1.62-1.5,3.33-2.07v-5.6c-2.48.17-4.7-.5-6.57-2.14-1.88-1.64-2.86-3.74-3.04-6.33-1.26,1.07-2.71.84-4.12.85-2.82.01-5.64,0-8.49,0v2.69c1.12,0,2.22-.01,3.32,0,.93.01,1.86-.03,2.77.1,2.74.42,4.76,2.75,4.79,5.54.04,3.91.02,7.81.01,11.72,0,1.91-1.47,3.39-3.32,3.41-1.88.02-3.39-1.45-3.41-3.39-.03-2.87,0-5.74,0-8.61,0-.21,0-.42,0-.68h-3.87c0,.18-.03.37-.03.56,0,2,0,4,0,5.99,0,3.67-2.48,6.13-6.15,6.13-.39,0-.79.01-1.18,0-.61-.03-1.05-.49-1.05-1.06,0-.57.44-1.04,1.05-1.06.5-.02,1,0,1.5,0,1.92-.03,3.52-1.34,3.62-3.24.13-2.42.03-4.84.03-7.34h-3.3c0,.12-.02.31-.02.49,0,2.03,0,4.07,0,6.1,0,1.24-.29,1.53-1.55,1.53-3.35,0-6.71,0-10.06,0-1.01,0-1.64.87-1.25,1.72.22.48.62.73,1.15.74.45,0,.89-.01,1.34,0,.63.03,1.05.45,1.07,1.04.01.62-.42,1.08-1.07,1.09-.69,0-1.4.03-2.08-.09-1.57-.29-2.55-1.55-2.55-3.15,0-2.18,1.3-3.49,3.48-3.49,2.91,0,5.81,0,8.72,0,.19,0,.39,0,.63,0,.02-.18.04-.33.04-.48,0-1.98,0-3.96,0-5.94,0-.32-.08-.51-.36-.69-1.93-1.33-3-3.18-3.02-5.54-.03-3.92-.05-7.85,0-11.77.04-2.72,1.42-4.59,3.9-5.66.08-.04.16-.08.28-.13-1.14-.99-1.86-2.18-1.95-3.68-.04-.75-.02-1.5-.03-2.25,0-.21,0-.42,0-.71-.65,0-1.25.02-1.85,0-.69-.03-1.12-.49-1.1-1.12.02-.48.36-.88.84-.97.14-.03.28-.03.43-.04,1.15-.03,1.14-.03,1.15-1.2,0-.43,0-.86.1-1.27.32-1.34,1.53-2.28,2.94-2.29,1.68-.01,3.35-.01,5.03,0,1.74.01,3.04,1.29,3.1,3.03.02.55,0,1.1,0,1.74ZM24.18,37.28c0-.15.02-.32.02-.49,0-1.09-.03-2.18.01-3.26.03-.75-.08-1.37-.67-1.91-.5-.47-.44-1.15.02-1.56.46-.4,1.1-.35,1.57.16.44.47.9.93,1.27,1.45.47.66,1.04.86,1.85.84,2.67-.05,5.35-.02,8.03-.02.16,0,.32,0,.48,0,.75-.07,1.28-.64,1.25-1.34-.03-.69-.55-1.21-1.31-1.22-2.34-.02-4.67-.02-7.01,0-.65,0-1.11-.22-1.48-.75-1.05-1.49-2.13-2.94-3.2-4.42-.77-1.06-1.79-1.68-3.1-1.75-2.3-.13-4.14,1.65-4.15,4.05-.02,3.26,0,6.53,0,9.79,0,.14.02.28.03.44h6.39ZM17.84,39.48c.05.22.09.39.14.56.6,1.86,2.3,3.15,4.26,3.17,2.94.03,5.89,0,8.83.01,1.33,0,1.61.27,1.61,1.59,0,3.25,0,6.49,0,9.74,0,.83.51,1.39,1.23,1.4.73,0,1.23-.54,1.23-1.38,0-3.82.01-7.63,0-11.45-.01-2.04-1.56-3.63-3.57-3.64-4.48-.02-8.95,0-13.43,0-.07,0-.14.01-.29.03ZM48.55,40.07c.56-3.74-2.54-7.66-6.97-7.43-.41.02-.43.27-.44.57-.22,4,3.38,7.35,7.41,6.86ZM20.04,14.5c-.02.09-.06.16-.06.23,0,.84-.04,1.68.02,2.51.11,1.56,1.3,2.71,2.85,2.82,1.46.1,2.89-.95,3.1-2.46.14-1.01.03-2.05.03-3.1h-5.94ZM50.85,31.82c4.23.5,7.11-3.6,6.42-6.49-3.78-.46-6.92,3.02-6.42,6.49ZM43.19,21.64c-.44,2.88,2.34,5.85,5.38,5.41.46-2.87-2.38-5.75-5.38-5.41ZM26.33,12.3c0-.58.02-1.12,0-1.65-.02-.58-.38-.94-.95-.94-1.67-.01-3.35-.01-5.02,0-.48,0-.84.27-.88.76-.05.6-.01,1.2-.01,1.83h6.86ZM49.71,11.53c-2.04,1.46-2.04,5.22.01,6.67,2.01-1.68,2.01-5.09-.01-6.67Z"/>
  <path class="cls-1" d="M16.1,57c0,.59-.45,1.06-1.04,1.07-.59.01-1.1-.5-1.08-1.09.01-.57.5-1.05,1.08-1.04.58,0,1.04.47,1.04,1.06Z"/>
</svg>