<?xml version="1.0" encoding="UTF-8"?>
<svg id="Layer_1" data-name="Layer 1" xmlns="http://www.w3.org/2000/svg" viewBox="0 0 66.93 65.64">
  <defs>
    <style>
      .cls-1 {
        fill: #fff;
        stroke-width: 0px;
      }
    </style>
  </defs>
  <path class="cls-1" d="M34.51,56.2c-7.06,0-14.12,0-21.18,0-.94,0-1.15-.17-1.1-1.12.15-2.54-.3-5.01-.73-7.5-.93-5.33-1.53-10.7-1.4-16.12.1-4.3.59-8.56,1.29-12.79.24-1.47.6-2.92.78-4.4.13-1.08.05-2.19.05-3.29q0-1.55,1.56-1.55c10.06,0,20.12,0,30.18,0,.16,0,.33,0,.49,0,.47.04.71.28.72.76.01.62.04,1.25,0,1.87-.15,2.03.41,3.96.74,5.92,1.01,6.15,1.69,12.33,1.3,18.58-.12,1.96-.35,3.91-.54,5.87-.06.58.03.72.57.83,1.93.38,3.35,1.91,3.55,3.88.04.42.19.59.58.75,1.53.61,2.44,1.76,2.76,3.38.04.19.19.42.35.5,1.36.7,2.14,1.79,2.34,3.3.11.83-.15,1.13-.97,1.13-6.8,0-13.6,0-20.4,0-.31,0-.62,0-.93,0ZM43.94,14.92h-.56c-4.05,0-8.09,0-12.14,0-5.77,0-11.53,0-17.3,0-.35,0-.52.06-.57.46-.13.94-.34,1.87-.5,2.8-.76,4.46-1.31,8.94-1.4,13.47-.12,6.32.74,12.54,1.91,18.73.06.34.22.37.5.36,5.32,0,10.65,0,15.97,0,.29,0,.42-.09.53-.37.49-1.24,1.38-2.09,2.64-2.53.3-.1.39-.25.42-.56.15-2.03,1.59-3.64,3.58-4,.35-.06.48-.19.59-.51,1.06-3.15,4.91-4.27,7.51-2.19.09.08.2.14.32.23,1.14-8.73.16-17.29-1.5-25.9ZM36.42,54.8h18.89c-.16-.9-.82-1.6-1.85-1.92-.43-.13-.64-.37-.65-.84-.04-1.63-1.02-2.75-2.64-3.06-.66-.13-.83-.35-.75-1.01.21-1.83-1.11-3.34-2.97-3.39-.74-.02-.87-.14-.99-.86-.27-1.62-1.7-2.83-3.35-2.83-1.65,0-3.06,1.22-3.33,2.85-.11.69-.26.82-.96.83-1.84.05-3.15,1.5-3,3.33.07.79-.05.93-.83,1.09-1.44.28-2.43,1.3-2.51,2.74-.04.71-.29,1.04-.96,1.25-.85.27-1.38.91-1.64,1.84,1.9,0,3.71,0,5.53,0,.39,0,.59-.07.74-.49.42-1.23,1.66-2.07,2.89-2.07.37,0,.64.12.75.49.14.46-.16.83-.71.88-.75.06-1.28.41-1.66,1.15ZM43.78,10.85H13.64v2.66h30.14v-2.66ZM13.62,54.8h13.84c.21-1.08.76-1.95,1.68-2.67h-15.53v2.67Z"/>
  <path class="cls-1" d="M17.52,32.81c.02-5.88,4.79-10.62,10.65-10.58,5.81.04,10.53,4.81,10.51,10.63-.03,5.88-4.76,10.56-10.68,10.56-5.75,0-10.5-4.81-10.48-10.6ZM27.85,42.03c4.85.22,9.2-3.79,9.44-8.7.25-5.23-3.69-9.49-9-9.72-4.76-.21-9.16,3.81-9.38,8.55-.25,5.39,3.59,9.63,8.94,9.87Z"/>
  <path class="cls-1" d="M19.24,16.86c.88,0,1.77,0,2.65,0,.54,0,.84.26.85.67,0,.42-.31.69-.84.7-1.8,0-3.6,0-5.41,0-.54,0-.84-.26-.84-.69,0-.44.28-.68.83-.68.92,0,1.83,0,2.75,0Z"/>
  <path class="cls-1" d="M25.63,16.88c.28,0,.56-.02.83,0,.38.03.59.28.6.65.01.35-.18.64-.53.66-.62.04-1.24.04-1.86,0-.35-.02-.54-.31-.53-.66.01-.37.22-.62.6-.65.29-.02.59,0,.88,0Z"/>
  <path class="cls-1" d="M38.74,48.61c.03-1.51,1.32-2.84,2.84-2.9.5-.02.81.2.85.61.04.44-.22.71-.75.77-.91.1-1.44.62-1.57,1.53-.03.17-.04.42-.15.5-.22.14-.52.29-.76.26-.37-.05-.49-.39-.46-.75Z"/>
  <path class="cls-1" d="M45.94,48.95c1.5.05,2.84,1.42,2.83,2.91,0,.44-.26.76-.66.76-.42,0-.65-.22-.71-.65-.16-1.09-.57-1.5-1.65-1.65-.43-.06-.71-.38-.67-.76.05-.4.37-.63.86-.61Z"/>
  <path class="cls-1" d="M27.37,33.96c.03-.65.08-1.14-.31-1.65-1.54-2.06-1.34-4.95.39-6.82.47-.51.83-.51,1.31.01,1.71,1.84,1.91,4.72.38,6.78-.39.53-.37,1.03-.35,1.68.18-.16.29-.26.41-.36.98-.87,2.11-1.35,3.43-1.4.68-.02.95.27.9.96-.18,2.53-1.87,4.5-4.35,5.04-.34.07-.42.2-.4.51.02.34.01.69,0,1.03-.01.5-.26.78-.68.78-.41,0-.67-.29-.69-.79-.01-.47,0-.94,0-1.33-.77-.32-1.52-.54-2.16-.93-1.59-.96-2.42-2.43-2.57-4.28-.06-.77.2-1.02.96-.98,1.44.07,2.65.66,3.74,1.76ZM28.89,36.83c1.59-.26,2.98-1.67,3.13-3.12-1.39.08-2.85,1.53-3.13,3.12ZM28.09,26.93c-.95,1.32-.93,3.48.03,4.43.9-1.3.9-3.15-.03-4.43ZM27.27,36.83c-.15-1.52-1.88-3.2-3.13-3.08.32,1.56,1.56,2.8,3.13,3.08Z"/>
</svg>