<?xml version="1.0" encoding="UTF-8"?>
<svg id="Layer_1" data-name="Layer 1" xmlns="http://www.w3.org/2000/svg" viewBox="0 0 36.85 36.85">
  <defs>
    <style>
      .cls-1 {
        fill: #81c45c;
        stroke-width: 0px;
      }
    </style>
  </defs>
  <path class="cls-1" d="M22.46,18.2c2.08-1.33,3.46-3.66,3.46-6.3,0-4.13-3.36-7.49-7.49-7.49s-7.49,3.36-7.49,7.49c0,2.65,1.38,4.97,3.46,6.3-4.25,1.63-7.27,5.74-7.27,10.56,0,2.03,1.65,3.68,3.68,3.68h15.25c2.03,0,3.68-1.65,3.68-3.68,0-4.81-3.02-8.93-7.27-10.56ZM12.87,11.9c0-3.06,2.49-5.56,5.56-5.56s5.56,2.49,5.56,5.56-2.49,5.56-5.56,5.56-5.56-2.49-5.56-5.56ZM26.05,30.5h-15.25c-.96,0-1.74-.78-1.74-1.74,0-5.17,4.2-9.37,9.37-9.37s9.37,4.2,9.37,9.37c0,.96-.78,1.74-1.74,1.74Z"/>
</svg>