<?xml version="1.0" encoding="UTF-8"?>
<svg id="Layer_1" data-name="Layer 1" xmlns="http://www.w3.org/2000/svg" viewBox="0 0 146.72 129.73">
  <defs>
    <style>
      .cls-1 {
        fill: #05303a;
        stroke-width: 0px;
      }
    </style>
  </defs>
  <path class="cls-1" d="M119.42,106.13c-.48.8-1.18,1.07-2.11,1.07-5.48-.03-10.97-.02-16.45,0-1.24,0-2.35-.33-3.36-1.07-2.67-1.93-5.38-3.81-8.02-5.78-.87-.65-1.77-.9-2.83-.9-6.41.02-12.83.01-19.24.01-1.98,0-3.96.02-5.93,0-.86-.01-1.47.3-2.01.95-2.2,2.62-4.46,5.19-6.65,7.81-1.18,1.42-2.62,2.07-4.47,2.06-6.26-.04-12.53-.01-18.79-.01-.3,0-.6.02-.9-.03-.8-.13-1.34-.78-1.33-1.57.01-.81.53-1.43,1.39-1.48,1.2-.07,2.4-.04,3.59-.05.35,0,.71,0,1.1,0v-38.36c-.39-.08-.8-.13-1.19-.24-2.11-.6-3.39-2.39-3.39-4.84-.01-5.8-.01-11.59,0-17.39,0-.66-.15-1.13-.61-1.66-.47-.54-.8-1.36-.85-2.08-.12-1.58-.05-3.18-.03-4.77.03-2.44,2.04-4.44,4.49-4.47,1.86-.02,3.71,0,5.56,0-.19-1.2-.49-2.35-.54-3.52-.21-5.59,4.21-10.32,9.73-10.33,4.02,0,7.12,1.78,9,5.36,1.86,3.54,1.54,7.05-.66,10.39-.62.95-.58,1.05.55,1.19,1.91.22,3.55,1.02,4.91,2.39,2.3,2.32,4.67,4.58,6.9,6.97.98,1.05,1.98,1.49,3.42,1.43,3.08-.11,6.17,0,9.26-.04,2.28-.03,4.04.86,5.07,2.9,1.02,2.03.78,4-.61,5.83-.17.22-.28.54-.28.81-.01,8.11-.01,16.22,0,24.32,0,.08.03.17.08.4.23-.35.4-.61.55-.87,3.94-6.9,7.87-13.79,11.8-20.7.55-.96,1.24-1.69,2.38-1.85,1.46-.21,2.53.34,3.33,1.75,2.28,3.98,4.54,7.97,6.81,11.95,3.34,5.86,6.68,11.72,10.02,17.58.09.15.2.3.3.45v1.08c-1.1,1.44-2.21,1.37-3.11-.21-3.16-5.54-6.33-11.08-9.47-16.63-.27-.48-.57-.66-1.12-.65-4.16.02-8.33.02-12.49,0-.55,0-.86.16-1.13.64-2.53,4.49-5.09,8.96-7.64,13.44-.14.25-.3.55-.3.82-.02,2.71-.01,5.42-.01,8.18.97,0,2.05.04,3.12-.01,1.35-.07,2.51.35,3.59,1.15,2.68,1.96,5.41,3.87,8.09,5.83.61.44,1.22.68,1.98.68,5.42-.01,10.84.01,16.26,0,.93,0,1.7.19,2.23,1.01v1.08ZM44.26,99.42c.05-.48.12-.93.15-1.37.44-6.71.86-13.42,1.3-20.13.12-1.86,1.35-3.05,3.2-3.1.96-.03,1.92-.03,2.88,0,1.74.05,2.94,1.11,3.19,2.83.16,1.13.27,2.26.41,3.39.31,2.52.63,5.04.95,7.56h7.76c.03-.14.07-.22.07-.31,0-4.5.09-9.01-.02-13.51-.1-4.02-2.73-6.96-6.65-7.51-1.5-.21-3.05-.09-4.58-.07-.38,0-.8.18-1.11.41-.84.62-1.72,1.04-2.8,1.04-2.91,0-5.81.05-8.72.07-1.22,0-2.44,0-3.66,0v30.7h7.65ZM74.91,96.34v-38.37c-2.35,0-4.53-.04-6.71,0-2.67.05-4.92-.81-6.74-2.8-.55-.6-1.15-1.16-1.9-1.9,0,3.8-.01,7.33.03,10.87,0,.21.36.5.61.61,4.46,1.8,7.04,5.58,7.05,10.39,0,4.29.01,8.59,0,12.88,0,.57.11.88.71,1.12,2.24.9,3.54,2.59,3.84,5,.09.71.1,1.42.15,2.18h2.97ZM47.29,56.55c0,.83,0,1.76,0,2.68-.01,1.09-.67,1.83-1.58,1.8-.89-.03-1.47-.72-1.49-1.79-.01-.92,0-1.84,0-2.79h-6.12c0,.91,0,1.74,0,2.58,0,1.24-.62,2.01-1.58,1.99-.94-.01-1.51-.73-1.53-1.95-.01-.89,0-1.77,0-2.54-1.1-.3-2.03-.55-3.01-.81,0,2.82-.02,5.61,0,8.4,0,.89.59,1.44,1.5,1.44,5.09.02,10.19.01,15.28,0,.89,0,1.53-.55,1.55-1.42.04-2.81.02-5.63.02-8.44-1.01.28-1.98.54-3.04.83ZM30.4,42.48h21.45c0-1.39,0-2.74,0-4.08,0-1.49-.51-1.99-2-1.99-2.25,0-4.5,0-6.74,0-3.6,0-7.19,0-10.79,0-1.24,0-1.88.54-1.91,1.66-.04,1.44,0,2.88,0,4.41ZM48.84,78.09c-.04.43-.08.9-.12,1.37-.16,2.33-.31,4.67-.46,7-.27,4.19-.53,8.38-.82,12.56-.04.51.14.73.6.91,1.8.73,2.98,2.05,3.57,3.9.07.21.16.4.27.68,1.46-1.71,2.84-3.33,4.25-4.98-2.2-.87-2.7-1.64-2.72-3.9-.01-1.95.05-3.91-.13-5.84-.28-3.1-.75-6.18-1.1-9.28-.31-2.77-.28-2.77-3.08-2.53-.06,0-.11.04-.26.1ZM52.34,33.43c1.95-2.36,1.74-6.31-.63-8.76-2.41-2.49-6.33-2.78-9.08-.69-2.74,2.08-3.56,6.02-1.82,8.85.16.25.6.46.92.47,1.8.04,3.59,0,5.39.02,1.69.02,3.39.07,5.23.11ZM31.97,45.7c0,1.52-.01,2.98,0,4.45.02,1.85,1.24,3.15,3.07,3.16,4.07.03,8.14.03,12.22,0,1.6-.01,2.89-1.09,3.02-2.66.14-1.63.03-3.28.03-4.95h-18.34ZM78.06,57.98c-.02.28-.04.43-.04.58,0,12.04,0,24.07,0,36.11,0,1.01.6,1.68,1.46,1.71.86.02,1.48-.63,1.55-1.64.01-.21,0-.42,0-.63,0-11.74,0-23.47,0-35.21v-.92h-2.97ZM53.42,64.03h3.06c0-.38,0-.7,0-1.02,0-4.41,0-8.83,0-13.24,0-.77.26-1.35.98-1.66.7-.3,1.29-.06,1.79.45.64.67,1.27,1.35,1.98,2.1,1.03-1.3,1.98-2.48,2.88-3.6-2.17-2.21-4.23-4.35-6.34-6.43-.71-.7-1.62-1.09-2.76-1.02,0,.93,0,1.83,0,2.72,0,.97-.35,1.79-1.03,2.51-.28.3-.52.79-.53,1.2-.03,5.7-.02,11.41-.02,17.11v.88ZM36.59,102.53v4.54h12.1c.48-3.04-.77-4.54-3.72-4.54-1.74,0-3.47,0-5.21,0-1.04,0-2.08,0-3.16,0ZM68.62,96.34c.59-3.01-.97-4.69-3.66-4.58-2.48.1-4.96.02-7.45.02-.32,0-.64.03-.96.04v4.51h12.06ZM104.69,70.21c-1.77-3.1-3.45-6.05-5.22-9.14-1.78,3.12-3.46,6.09-5.2,9.14h10.42ZM74.81,54.77v-4.52c-1.71,0-3.35-.02-4.99,0-1.25.02-2.46.01-3.45-1.05-.99,1.24-1.92,2.4-2.87,3.58.86,1.12,1.95,1.89,3.26,1.94,2.66.11,5.32.03,8.05.03ZM78.05,54.8c.88,0,1.68.04,2.48-.01,1.07-.07,1.91-.98,2.02-2.06.11-1.06-.59-2.15-1.66-2.34-.92-.17-1.87-.12-2.84-.17v4.58Z"/>
  <path class="cls-1" d="M119.42,36.92c-.77,1.02-2.52,1.5-3.58.84-.43-.27-.83-.94-.83-1.43,0-.44.45-1.07.87-1.31,1.1-.6,2.75-.15,3.54.81v1.08Z"/>
  <path class="cls-1" d="M111.74,36.53c-.12,5.15-4.26,9.2-9.31,9.1-5.31-.1-9.25-4.29-9.07-9.76.16-4.8,4.41-8.95,9.78-8.69,4.72.23,8.72,4.49,8.6,9.36ZM102.5,42.52c3.4.01,6.13-2.68,6.15-6.05.02-3.43-2.72-6.22-6.11-6.22-3.33,0-6.12,2.79-6.14,6.13-.01,3.35,2.74,6.13,6.09,6.14Z"/>
  <path class="cls-1" d="M104.15,51.11c-.05.38-.05.78-.17,1.14-.24.74-.79,1.12-1.58,1.05-.74-.06-1.24-.48-1.35-1.22-.08-.59-.1-1.2-.05-1.79.08-.9.72-1.47,1.52-1.47.83,0,1.48.64,1.56,1.55.02.24,0,.48,0,.72.02,0,.03,0,.05,0Z"/>
  <path class="cls-1" d="M87.87,37.98c-.15,0-.3,0-.45,0-1.04-.04-1.75-.63-1.79-1.52-.04-.91.67-1.57,1.77-1.61.42-.02.84-.02,1.25.03.91.11,1.44.69,1.45,1.53,0,.86-.59,1.48-1.52,1.57-.24.02-.48,0-.72,0h0Z"/>
  <path class="cls-1" d="M104.11,21.7c0,1.57-.54,2.3-1.66,2.25-1.05-.05-1.49-.74-1.47-2.34,0-1.37.53-2.11,1.52-2.14,1.03-.03,1.61.77,1.61,2.23Z"/>
  <path class="cls-1" d="M94.22,26.5c0,1.13-1.25,1.97-2.2,1.37-.64-.4-1.23-.98-1.65-1.6-.65-.97.19-2.31,1.35-2.29.92.02,2.49,1.59,2.5,2.52Z"/>
  <path class="cls-1" d="M112.12,44.77c1.24,0,2.87,1.52,2.77,2.46-.05.49-.39,1.1-.79,1.35-.36.22-1.08.2-1.48-.02-.57-.32-1.12-.85-1.44-1.42-.23-.42-.24-1.12-.05-1.57.18-.41.76-.64.98-.8Z"/>
  <path class="cls-1" d="M113.43,23.97c1.1.03,1.9,1.26,1.32,2.19-.43.68-1.07,1.31-1.75,1.74-.91.57-2.14-.28-2.15-1.38,0-.93,1.66-2.58,2.58-2.55Z"/>
  <path class="cls-1" d="M94.22,46.06c-.04,1.17-1.56,2.8-2.44,2.71-.49-.05-1.12-.36-1.37-.76-.23-.36-.23-1.1-.01-1.48.34-.6.89-1.16,1.49-1.5.41-.23,1.12-.2,1.56.01.4.19.62.78.78,1.01Z"/>
  <path class="cls-1" d="M41.16,47.19c.54,0,1.08-.03,1.62,0,.86.05,1.46.71,1.45,1.53,0,.77-.6,1.47-1.38,1.51-1.14.05-2.28.05-3.41,0-.8-.04-1.34-.73-1.34-1.53,0-.82.54-1.41,1.36-1.51.06,0,.12-.01.18-.01.51,0,1.02,0,1.53,0,0,0,0,0,0,0Z"/>
</svg>