<?xml version="1.0" encoding="UTF-8"?>
<svg id="Layer_1" data-name="Layer 1" xmlns="http://www.w3.org/2000/svg" viewBox="0 0 146.72 129.73">
  <defs>
    <style>
      .cls-1 {
        fill: #05303a;
        stroke-width: 0px;
      }
    </style>
  </defs>
  <path class="cls-1" d="M117.02,81.74c-.47.71-1.13.91-1.97.85-2.2-.17-4.25-.81-6.09-1.98-2.03-1.29-4.02-2.68-5.9-4.18-1.35-1.07-2.64-1.26-4.25-.74-3.8,1.23-7.67,1.29-11.47.06-3.15-1.01-5.17-3.1-5.49-6.54-.05-.5,0-1.02,0-1.58h-2.5c.64,2.16,1.27,4.29,1.91,6.42,3.21,10.69,6.42,21.38,9.64,32.06.05.16.1.33.14.49.22.88-.14,1.63-.9,1.85-.77.22-1.47-.18-1.74-1.07-1.09-3.58-2.16-7.16-3.24-10.74-2.83-9.41-5.65-18.83-8.48-28.24-.08-.27-.17-.53-.25-.77-.11-.03-.17-.04-.22-.05-1.41-.25-2.23.26-2.98,1.59-7.11,12.7-14.31,25.35-21.49,38.01-.15.27-.29.56-.49.79-.49.57-1.1.7-1.75.32-.65-.38-.82-.99-.57-1.69.1-.26.26-.5.4-.75,7.05-12.44,14.1-24.88,21.14-37.32.15-.27.3-.54.49-.9h-12.3c-.15.61-.24,1.23-.46,1.79-.81,2.01-2.54,2.93-4.64,2.52-1.08-.21-1.42-.07-1.92.89-.23.45-.47.92-.61,1.4-.71,2.62-2.62,3.71-5.1,3.87-3.37.21-6.75.28-10.12.37-1.53.04-3.07.01-4.6,0-.93-.01-1.49-.56-1.47-1.39.02-.79.57-1.31,1.46-1.32,2.44-.01,4.89.06,7.33-.02,2.61-.09,5.21-.3,7.81-.48,1.01-.07,1.63-.61,1.97-1.59.33-.93.73-1.85,1.25-2.69.99-1.6,2.47-2.17,4.32-1.79,1.24.25,1.83-.23,1.89-1.62-.34,0-.68,0-1.01,0-7.76,0-15.51,0-23.27,0-.7,0-1.33-.06-1.64-.78-.31-.71,0-1.27.49-1.83,5.04-5.71,10.06-11.43,15.06-17.17,1.21-1.4,2.52-2.56,4.45-2.7,1.78-.13,3.29.5,4.49,1.82,1.59,1.74,3.16,3.5,4.73,5.26.29.32.51.48,1,.26,2.44-1.11,4.74-.65,6.57,1.34,3.22,3.49,6.41,7,9.59,10.52.35.39.69.58,1.23.57,1.79-.04,3.57-.01,5.42-.01v-7.03c-1.28.04-2.58.28-3.81.09-3.23-.5-5.47-3.19-5.67-6.53-.1-1.72.23-3.32,1.14-4.8.17-.27.22-.7.15-1.02-.49-2.54.9-4.94,3.34-5.8.4-.14.82-.46,1.05-.82,1.4-2.14,3.36-3.25,5.89-3.02,2.59.24,4.41,1.67,5.34,4.13.37.97.41.99,1.21.29,1.47-1.29,3.18-1.66,4.82-1.32.75-1.22,1.28-2.48,2.15-3.43,3.08-3.34,8.47-2.67,10.76,1.26.29.49.59.79,1.18.95,2.74.78,4.36,3.63,3.75,6.41-.08.36,0,.85.18,1.16,1.98,3.2,1.71,7.09-.74,9.88-2.41,2.74-6.23,3.54-9.63,2-.17-.08-.35-.15-.58-.24v7.84h.9c3.61,0,7.22.02,10.82-.01.81,0,1.44.18,1.88.86v1.02c-.45.69-1.08.87-1.88.86-9.86-.02-19.72,0-29.58-.03-.69,0-.95.17-.97.89-.05,1.95.8,3.42,2.52,4.17,1.3.57,2.75.86,4.16,1.07,2.63.39,5.2-.13,7.71-.89,1.84-.56,3.52-.27,5.05.93,1.3,1.02,2.61,2.01,3.94,2.97,2.21,1.59,4.52,2.96,7.34,3.1.75.04,1.3.28,1.71.89v1.02ZM103.37,47.59c.32-.14.5-.22.68-.3.83-.35,1.53-.14,1.9.57.37.72.1,1.47-.71,1.92-.3.16-.6.34-.92.45-.73.26-1.11.7-.96,1.52.05.25.04.52,0,.76-.13.75.25,1.21.8,1.64,2.13,1.67,5.21,1.48,7.15-.46,1.96-1.96,2.16-5.07.39-7.2-.65-.79-.86-1.46-.4-2.45.77-1.68-.42-3.62-2.28-3.69-1.09-.04-1.55-.51-1.88-1.45-.69-1.95-2.65-3-4.62-2.56-2.21.5-3.52,2.45-3.14,4.71.12.69-.06,1.25-.66,1.61-.59.36-1.14.22-1.65-.2-.2-.16-.4-.32-.63-.44-1.04-.56-2.3-.38-3.15.43-.85.82-1.06,2.05-.53,3.13q.76,1.55-.49,2.81c-1.69,1.71-1.55,4.39.3,5.96,1.81,1.53,4.59,1.18,5.89-.83.53-.82,1.06-1.45,2.16-1.27,0-.79-.09-1.52.02-2.21.24-1.54-.23-2.56-1.8-2.95-.11-.03-.2-.1-.3-.16-.63-.43-.83-1.14-.5-1.79.33-.65,1.01-.9,1.74-.64.26.09.51.22.84.36,0-.59,0-1.07,0-1.55,0-1.04.47-1.61,1.32-1.63.89-.02,1.4.56,1.4,1.64,0,1.39,0,2.78,0,4.28ZM55.57,52.45c-.53.79-.99,1.5-1.48,2.2-.47.68-1.11.84-1.86.49-.59-.28-1.17-.57-1.72-.84-.07.03-.1.04-.12.06-.59.58-1.17,1.16-1.76,1.73-.91.88-1.76.8-2.47-.24-.59-.86-1.16-1.73-1.79-2.66-3.42,3.9-6.77,7.73-10.24,11.68,4.7,0,9.19,0,13.67-.02.28,0,.62-.24.83-.46,1.66-1.79,3.3-3.6,4.95-5.41,1.31-1.44,2.62-2.89,3.95-4.36-.66-.73-1.26-1.4-1.95-2.17ZM85.64,64.8h14.94v-9.32c-.14.12-.2.17-.26.22-2.63,2.67-5.69,3.07-8.94,1.18-.23-.13-.52-.17-.79-.22-1.39-.23-2.78-.43-4.17-.69-.51-.1-.77-.02-.77.53,0,2.75,0,5.49,0,8.29ZM89.68,44.51c-1.41.1-1.94-.43-1.82-1.83.16-1.93-.86-3.5-2.54-3.91-1.84-.44-3.47.46-4.16,2.34-.3.83-.83,1.2-1.72,1.22-1.52.05-2.56,1.58-1.94,2.96.46,1.02.26,1.71-.42,2.53-1.36,1.64-1.28,4.29.06,6.02,1.15,1.48,3.22,1.88,5.27.97.23-.1.48-.46.49-.72.06-.93-.08-1.89.05-2.81.21-1.45-.24-2.39-1.69-2.78-.16-.04-.32-.13-.45-.23-.6-.45-.79-1.02-.49-1.72.29-.66,1-.95,1.71-.71.28.09.54.23.89.38,0-.59,0-1.04,0-1.5,0-1.1.47-1.68,1.35-1.68.88,0,1.37.58,1.37,1.67,0,1.38,0,2.77,0,4.08.64-.09,1.27-.35,1.77-.19.46.14.79.73,1.1,1.05.14-.38.32-.92.56-1.43.6-1.27.79-2.21.66-3.56,0-.03-.02-.05-.05-.16ZM72.97,64.83c-1.95-2.14-3.78-4.13-5.47-5.99-.76.69-1.37,1.68-2.12,1.81-.82.14-1.77-.51-2.8-.86-.45.48-.97,1.04-1.51,1.59-1.1,1.11-1.88,1.04-2.74-.23-.41-.6-.82-1.21-1.28-1.89-1.7,1.87-3.34,3.67-5.08,5.58h21.01ZM53.66,50.32c-.55-.6-1.02-1.18-1.55-1.69-1.03-.99-2.63-1.05-3.63-.09-.79.76-1.48,1.63-2.24,2.47.49.73.94,1.41,1.36,2.04.78-.64,1.43-1.55,2.24-1.72.79-.17,1.74.41,2.68.68.33-.49.7-1.06,1.13-1.69ZM65.39,56.61c-2.12-2.8-4.06-2.61-6.38.59.3.44.61.9.89,1.31.77-.63,1.42-1.54,2.23-1.71.79-.17,1.73.41,2.67.67.16-.23.36-.54.59-.86ZM85.44,52.74c1.26.41,2.25.74,3.25,1.07-.15-1.17-.28-2.21-.4-3.15-.68.37-1.43.74-2.13,1.18-.28.18-.44.53-.72.9Z"/>
  <path class="cls-1" d="M39.78,21.21c.8.67,1.24,2.37.69,3.27-.23.38-.82.75-1.25.76-.39,0-.95-.38-1.17-.76-.53-.91-.1-2.6.7-3.27h1.02Z"/>
  <path class="cls-1" d="M100.34,94.09c.12-.9.16-1.66.32-2.4.79-3.66,4.09-6.33,7.83-6.36.94,0,1.87,0,2.81,0,.81,0,1.39.43,1.4,1.19,0,1.64.08,3.32-.27,4.9-.82,3.7-4.09,6.15-7.87,6.17-.42,0-.84,0-1.37,0,0,.36,0,.66,0,.97,0,2.75,0,5.51,0,8.26,0,1.08-.5,1.68-1.38,1.68-.88,0-1.35-.58-1.36-1.68,0-.76,0-1.52,0-2.33-1.01-.08-1.97-.08-2.9-.25-3.8-.7-6.51-3.88-6.63-7.76-.03-.94-.03-1.87-.01-2.81.02-1.05.49-1.53,1.5-1.53,1.22,0,2.45-.06,3.66.06,1.55.15,2.93.82,4.27,1.88ZM103.27,94.81c4.75.57,7.36-3.23,6.6-6.73-4.4-.34-7.05,2.34-6.6,6.73ZM100.35,101.62c.66-4.95-3.34-7.34-6.65-6.64-.59,4.45,2.8,7.2,6.65,6.64Z"/>
  <path class="cls-1" d="M61.19,28.77c1.86-1.88,4-2.57,6.5-1.83,1.92.57,3.18,1.89,3.94,3.72.17.41.46.84.81,1.1,2.2,1.62,2.93,4.5,1.71,6.9-1.22,2.41-3.97,3.57-6.56,2.73-.45-.15-.76-.11-1.16.14-3.66,2.33-8.68,1.93-11.88-.9-.21-.19-.53-.3-.81-.35-1.78-.27-3.21-1.62-3.53-3.36-.31-1.71.5-3.45,2.09-4.3.51-.27.78-.61.98-1.15,1.1-2.89,4.39-4.24,7.23-3.02.21.09.41.18.67.3ZM60.85,40.3c1.92.02,3.61-.57,4.76-1.58.92-.81,1.18-.83,2.26-.23,1.42.8,3.05.36,3.8-1.02.75-1.38.21-3.01-1.28-3.7-.72-.33-1.08-.81-1.23-1.58-.3-1.55-1.32-2.52-2.83-2.77-1.31-.22-2.69.5-3.46,1.82-.72,1.22-1.51,1.35-2.52.39-.83-.78-1.77-1.12-2.88-.71-1.13.41-1.72,1.27-1.81,2.44-.07.91-.5,1.38-1.42,1.48-.86.1-1.4.77-1.31,1.49.1.79.76,1.18,1.67,1.2.46,0,1.09.16,1.34.48,1.31,1.69,3.13,2.13,4.91,2.26Z"/>
  <path class="cls-1" d="M43.36,94.86c-1.76,0-3.43,0-5.1,0-1.29,0-1.72-.44-1.72-1.75,0-2.5,0-5,0-7.5,0-1.19.46-1.66,1.64-1.66,4.38,0,8.75,0,13.13,0,1.12,0,1.59.48,1.6,1.61,0,2.56,0,5.11,0,7.67,0,1.16-.48,1.62-1.67,1.62-1.67,0-3.35,0-5.14,0,0,.34,0,.64,0,.94,0,2.73.18,5.47-.07,8.18-.14,1.52,1.29,3.64-1.27,4.52-2.66-.85-1.18-3.03-1.31-4.56-.25-2.96-.07-5.96-.07-9.08ZM39.3,92.08h10.81v-5.36h-10.81v5.36Z"/>
  <path class="cls-1" d="M39.23,26.67c2.3,0,4.12,1.79,4.12,4.08,0,2.29-1.81,4.1-4.1,4.1-2.25,0-4.06-1.8-4.08-4.03-.01-2.31,1.77-4.13,4.05-4.14ZM40.62,30.78c.02-.7-.63-1.37-1.33-1.38-.7-.02-1.36.62-1.38,1.33-.02.7.63,1.37,1.33,1.38.7.02,1.36-.63,1.38-1.33Z"/>
  <path class="cls-1" d="M69.28,101.42c.3-2.43.61-4.96.93-7.49.13-1.07.27-2.14.42-3.2.13-.9.67-1.36,1.47-1.31.81.06,1.34.67,1.23,1.61-.28,2.51-.61,5.01-.92,7.51-.13,1.07-.27,2.14-.42,3.2-.13.89-.68,1.37-1.47,1.31-.78-.06-1.26-.65-1.25-1.62Z"/>
  <path class="cls-1" d="M72.01,83.74c.3-1.79.61-3.72.93-5.64.13-.81.27-1.62.43-2.42.18-.93.78-1.39,1.59-1.26.81.13,1.26.83,1.1,1.8-.34,2.15-.72,4.29-1.08,6.44-.09.53-.16,1.07-.28,1.59-.17.73-.8,1.15-1.52,1.06-.7-.09-1.17-.66-1.17-1.56Z"/>
  <path class="cls-1" d="M43.84,34.19c1.09.03,2.65,1.53,2.54,2.33-.06.44-.37,1-.74,1.19-.36.19-1.01.12-1.39-.1-.5-.28-.96-.75-1.24-1.24-.21-.38-.27-1.01-.1-1.4.17-.39.71-.62.92-.78Z"/>
  <path class="cls-1" d="M33.52,23.61c.82.02,2.31,1.51,2.31,2.32,0,1-1.14,1.76-1.97,1.21-.62-.41-1.19-.98-1.58-1.6-.54-.86.21-1.96,1.24-1.93Z"/>
  <path class="cls-1" d="M35.84,35.33c-.03,1.09-1.53,2.65-2.33,2.54-.44-.06-1-.37-1.19-.74-.19-.36-.12-1.01.1-1.39.28-.5.75-.96,1.25-1.24.38-.21,1.01-.27,1.4-.1.39.17.62.71.78.92Z"/>
  <path class="cls-1" d="M43.83,27.33c-.21-.17-.75-.4-.92-.79-.17-.39-.11-1.01.11-1.4.28-.5.74-.97,1.24-1.24.38-.21,1.03-.28,1.39-.09.36.19.67.76.73,1.19.1.81-1.46,2.3-2.55,2.32Z"/>
  <path class="cls-1" d="M40.63,38.28c0,.2,0,.4,0,.59-.03.86-.56,1.41-1.34,1.42-.79,0-1.34-.54-1.37-1.39-.02-.39,0-.79,0-1.18.02-.93.52-1.5,1.34-1.51.83,0,1.35.55,1.38,1.47,0,.2,0,.39,0,.59Z"/>
  <path class="cls-1" d="M46.71,32.11c-.28,0-.57.05-.84,0-.73-.15-1.14-.6-1.13-1.36.01-.75.43-1.22,1.16-1.32.5-.07,1.01-.03,1.52-.02.85.03,1.4.58,1.39,1.37,0,.79-.56,1.31-1.42,1.34-.23,0-.45,0-.68,0,0,0,0,0,0-.01Z"/>
  <path class="cls-1" d="M31.7,32.11c-.28,0-.57.05-.84,0-.73-.15-1.14-.6-1.13-1.36.01-.75.43-1.22,1.17-1.32.5-.07,1.01-.03,1.52-.02.85.03,1.4.58,1.39,1.38-.01.79-.56,1.31-1.43,1.34-.23,0-.45,0-.68,0,0,0,0,0,0-.01Z"/>
</svg>