<?xml version="1.0" encoding="UTF-8"?>
<svg id="Layer_1" data-name="Layer 1" xmlns="http://www.w3.org/2000/svg" viewBox="0 0 146.72 129.73">
  <defs>
    <style>
      .cls-1 {
        fill: #05303a;
        stroke-width: 0px;
      }
    </style>
  </defs>
  <path class="cls-1" d="M59.55,109.02c-3.44-1.46-6.7-3.25-9.58-5.66-7.1-5.92-11.44-13.42-12.83-22.58-.18-1.16-.29-2.34-.33-3.51-.06-1.76,1.23-3.05,2.99-3.08.92-.01,1.84,0,2.73,0-.24-1-.63-1.98-.67-2.96-.04-1,.26-2.01.43-3.19,0,0-.16-.15-.34-.28-4.07-3.02-5.9-8.08-4.67-12.89,1.26-4.94,5.26-8.58,10.32-9.24,2.9-.38,5.67.18,8.15,1.8.58.38,1.03.45,1.7.23,3.32-1.05,6.33-.17,9.13,1.7.47.32.91.68,1.42,1.07.94-1.43,2.06-2.63,3.53-3.16-.08-1.92-.3-3.75-.21-5.57.17-3.41,1.53-6.39,3.76-8.95.94-1.09,2.24-1.09,3.32-.03,1.72,1.69,3.42,3.41,5.12,5.11.22.22.45.43.71.68,1.71-1.65,3.65-2.81,5.94-3.34,2.84-.65,5.58-.37,8.21.89.98.47,1.31,1.14.96,1.89-.35.75-1.09.92-2.07.47-3.94-1.8-8.37-1.03-11.08,1.91.4.38.81.77,1.11,1.06,1.16-.6,2.3-1.42,3.58-1.81,4.22-1.28,8.59,1.23,9.7,5.52.22.84.52,1.17,1.35,1,.22-.04.45-.03.9-.06-.46-1.25-.83-2.41-1.31-3.53-.42-.99-.33-1.72.4-2.09.73-.37,1.52-.1,1.9.9.56,1.49.99,3.03,1.39,4.57.14.55.22.96.79,1.28,2.6,1.47,4.06,4.61,3.61,7.63-.41,2.77-.99,4.04-3.12,6.85.61.52,1.25.99,1.81,1.56,2.13,2.17,2.14,5.19.06,7.41-1.48,1.58-3.39,2.4-5.56,3.17.22.13.44.35.67.36.71.05,1.44,0,2.15.02,1.75.03,3.13,1.47,2.97,3.21-1.26,14.56-8.51,24.94-21.75,31.14-.36.17-.73.31-1.1.47h-26.2ZM105.41,82.31c.19-1.5.4-2.89.52-4.28.1-1.23.05-1.24-1.17-1.24-21.37,0-42.75,0-64.12,0-.14,0-.29.01-.43,0-.65-.06-.89.24-.81.87.16,1.22.37,2.44.45,3.67.06.83.4,1.01,1.18,1,15.08-.02,30.17-.02,45.25-.02.26,0,.52-.02.78,0,.71.06,1.28.64,1.22,1.31-.06.7-.44,1.18-1.18,1.25-.26.03-.52,0-.78,0-14.82,0-29.65,0-44.47,0-.34,0-.68,0-1.11,0,.1.38.16.68.26.97,3.25,9.4,9.39,16.16,18.47,20.23.5.23,1.1.34,1.65.34,7.64.02,15.28.03,22.93,0,.72,0,1.49-.16,2.15-.45,7.88-3.54,13.56-9.29,17.08-17.17.55-1.24.96-2.54,1.48-3.91h-1.05c-3.36,0-6.72,0-10.08,0-1.14,0-1.76-.47-1.75-1.31.01-.83.63-1.27,1.79-1.27,2.67,0,5.34,0,8.02,0,1.2,0,2.4,0,3.74,0ZM77.89,62.39c.84-1.27,1.55-2.52,2.42-3.64,1.14-1.48,2.48-1.51,3.81-.19,1.65,1.64,3.29,3.29,4.94,4.93.23.23.48.46.75.71,2.43-2.44,4.8-4.83,7.18-7.2.67-.67,1.41-.68,1.97-.09.54.57.5,1.24-.12,1.91-.17.19-.36.37-.55.55-2.21,2.21-4.42,4.42-6.67,6.66,2.7,2.7,5.35,5.36,8.02,8.02.11.1.32.1.59.17-.16-.34-.25-.55-.35-.76-.55-1.16-.12-1.98,1.12-2.17.37-.06.74-.11,1.1-.19,1.49-.36,2.91-.89,4.07-1.94,1.5-1.35,1.54-2.97.03-4.3-.61-.54-1.35-.98-2.09-1.34-1.57-.76-1.73-1.62-.44-2.77,1.58-1.41,2.69-3.12,3.2-5.2,1.01-4.18-1.68-7.25-5.93-6.72-2.42.3-4.33,1.58-5.93,3.36-1.07,1.2-1.95,1.03-2.7-.38-.5-.95-1.12-1.88-1.87-2.63-.93-.93-2.1-.94-3.12-.1-.61.5-1.21,1.12-1.53,1.82-.54,1.19-.95,2.45-1.23,3.73-.32,1.46-1.01,1.88-2.38,1.23-.36-.17-.73-.34-1.11-.45-1.93-.52-3.18.26-3.62,2.22-.37,1.63-.06,3.18.43,4.75ZM75.68,64.11c-1.16-3.58-1.98-7.3,1.28-10.59-.44-1.26-1.04-2.45-2.15-3.31-1.02-.79-2.22-.86-3.14.03-.75.72-1.38,1.61-1.86,2.53-.83,1.59-1.63,1.77-2.83.44-1.53-1.69-3.36-2.83-5.62-3.26-3.72-.72-6.53,1.69-6.32,5.45.15,2.69,1.49,4.77,3.42,6.52,1.15,1.04.98,1.93-.38,2.64-.95.5-1.87,1.12-2.64,1.85-.75.71-.94,1.7-.42,2.69.7,1.35,1.93,2.01,3.31,2.58,1.49-4.15,4.28-6.84,8.49-8.21-1.18-1.16-2.26-2.22-3.33-3.29-.88-.88-.99-1.61-.35-2.22.59-.57,1.36-.45,2.17.36,1.42,1.42,2.83,2.85,4.27,4.26.23.22.55.41.86.47,1.75.38,3.51.71,5.24,1.06ZM82,52.87c.71-1.43,1.3-2.86,2.1-4.17.83-1.38,2.13-2.28,3.63-2.7-3.69-3.69-7.35-7.35-11.06-11.06-2.25,2.86-3.13,6.16-2.73,9.83.15,1.39.42,2.65,2.03,3.06.23.06.43.28.63.44,1.22,1.02,2.03,2.32,2.64,3.77.1.25.41.53.67.58.72.14,1.47.18,2.1.24ZM52.34,57.33c-1.49-.04-2.84.95-3.3,2.59-.46,1.63-.12,3.17.59,4.67.57,1.21.24,1.87-1.02,2.24-.74.22-1.49.47-2.14.86-2.34,1.4-2.73,3.95-.91,5.97.26.29.76.51,1.16.52,2.01.05,4.02.02,6.03.02,1.45,0,2.9,0,4.34,0-2.26-1.2-4.35-2.55-4.85-5.24-.54-2.87,1.18-4.67,3.16-6.02-1.02-1.88-2-3.68-3.06-5.62ZM45.79,64.99c-4.42-2.44-5.37-7.13-3.64-10.61.88-1.77,2.23-3.05,4.05-3.8,2.43-1,4.8-.75,7.08.49.36-.52.67-.98.99-1.44-4.27-2.88-10.43-1.44-13.25,3.04-2.87,4.58-1.46,10.69,3.12,13.39.52-.34,1.05-.69,1.65-1.08ZM79.69,74.16c-.84-5.47-5.58-9.1-10.89-8.4-4.35.58-8.54,4.9-8.15,8.4h1.61c1.43-4.5,4.16-6.75,8.06-6.67,3.69.07,6.45,2.48,7.63,6.67h1.75ZM85.34,74.16c-2.4-3.6-2.46-7.16-.25-10.62-.98-.98-1.95-1.94-2.94-2.92-1.46,1.83-2.39,3.97-2.65,6.4-.02.2.03.47.15.63,1.53,1.9,2.4,4.08,2.7,6.52h2.98ZM87.07,65.45c-1.93,2.66-.79,7.27,2.18,8.63.17.08.38.12.57.12,1.69,0,3.38.01,5.08,0,.26,0,.51-.11.72-.16-2.87-2.88-5.7-5.71-8.55-8.58ZM94.55,48.84c1.03-.59,1.98-1.23,3.01-1.69.69-.3.73-.7.57-1.27-.61-2.11-2-3.48-4.15-3.88-1.8-.33-3.44.14-4.75,1.57,1.73,1.73,3.41,3.41,5.09,5.09.08.08.18.14.22.17ZM52.25,54.66c.41-.77.05-1.14-.57-1.47-2.4-1.26-5.41-.48-6.9,1.81-1.6,2.45-.67,5.98,1.42,7,.47-4.93,2.06-6.87,6.05-7.35ZM65.1,74.17h10.03c-.37-2.32-2.71-4.15-5.16-4.05-2.45.09-4.7,1.95-4.87,4.05Z"/>
  <path class="cls-1" d="M50.45,39.61c4.54,3.83,11.49,3.37,15.55-.82,4.36-4.5,4.03-11.34.7-15.17-.97.98-1.93,1.95-2.89,2.92-.22.22-.44.46-.69.65-.59.44-1.2.42-1.71-.1-.52-.51-.6-1.19-.1-1.71,1.37-1.43,2.75-2.86,4.22-4.18.92-.82,2.18-.57,3.04.46,2.3,2.76,3.43,5.96,3.27,9.55-.3,6.81-4.78,12.09-11.48,13.41-4.36.86-8.31-.24-11.75-3.07-1.13-.93-1.21-2.28-.18-3.32,2.82-2.86,5.68-5.7,8.53-8.54.64-.63,1.46-.65,1.98-.09.54.57.5,1.3-.18,1.98-2.49,2.51-4.99,5-7.5,7.49-.22.22-.53.35-.82.54Z"/>
  <path class="cls-1" d="M88.07,20.77c3.11.01,6.63,2.77,7.83,6.12,0,.03.01.06.02.08.86,2.6.73,3.9-2.39,4.62-2.31.54-4.59,1.21-6.88,1.81-2.11.55-3.48-.79-2.92-2.89.68-2.6,1.38-5.19,2.09-7.79.36-1.33,1.1-1.96,2.26-1.95ZM93.67,28.82c-.19-2.28-2.75-5.23-5.37-5.25-.63,2.34-1.26,4.7-1.92,7.2,2.52-.67,4.88-1.31,7.29-1.95Z"/>
  <path class="cls-1" d="M64.66,32.33c-.31,0-.63.02-.94,0-.74-.06-1.16-.52-1.2-1.22-.04-.72.38-1.23,1.08-1.32.7-.09,1.43-.09,2.14,0,.71.08,1.13.58,1.11,1.3-.02.71-.42,1.18-1.16,1.24-.34.03-.69,0-1.03,0Z"/>
  <path class="cls-1" d="M64.5,36.42c.03.94-1.1,1.71-1.87,1.17-.71-.5-1.36-1.16-1.84-1.88-.5-.75.23-1.81,1.14-1.82.76,0,2.54,1.75,2.56,2.53Z"/>
  <path class="cls-1" d="M59.03,37.72c-.02.37.01.75-.07,1.11-.17.69-.63,1.1-1.36,1.04-.68-.05-1.12-.45-1.17-1.14-.05-.62-.06-1.26-.02-1.88.05-.83.55-1.3,1.3-1.29.73,0,1.24.51,1.3,1.31.02.28,0,.57,0,.86,0,0,.02,0,.02,0Z"/>
  <path class="cls-1" d="M80.35,50.57c-.27-.21-.78-.43-.95-.8-.16-.37-.13-1,.1-1.33.43-.62,1.03-1.15,1.61-1.65.49-.42,1.14-.46,1.55.02.3.36.59,1.16.41,1.4-.61.82-1.44,1.49-2.2,2.21-.07.07-.22.06-.52.14Z"/>
  <path class="cls-1" d="M79.07,44.35c-.34,0-.69.03-1.03,0-.73-.08-1.23-.63-1.23-1.31,0-.68.49-1.22,1.24-1.28.68-.05,1.37-.05,2.06,0,.79.05,1.32.64,1.29,1.33-.03.69-.6,1.22-1.38,1.27-.31.02-.63,0-.94,0,0,0,0,0,0,0Z"/>
</svg>