<?xml version="1.0" encoding="UTF-8"?>
<svg id="Layer_1" data-name="Layer 1" xmlns="http://www.w3.org/2000/svg" viewBox="0 0 146.72 129.73">
  <defs>
    <style>
      .cls-1 {
        fill: #05303a;
        stroke-width: 0px;
      }
    </style>
  </defs>
  <path class="cls-1" d="M67.25,26.55c1.44.24,2.91.38,4.33.74,11.7,2.98,19.33,10.27,22.4,21.94,2.38,9.04.5,17.45-4.94,25.06-.14.2-.28.4-.4.57,1.66,1.66,3.29,3.29,5.09,5.1.2-.28.38-.62.65-.88.51-.49,1.15-.47,1.68-.03.17.14.32.31.48.47,4.03,4.03,8.05,8.08,12.11,12.09,1.32,1.31,2.58,2.62,3.03,4.5v2.09c-.09.25-.19.5-.27.76-1.36,4.22-6.62,5.64-9.79,2.55-4.69-4.58-9.29-9.25-13.92-13.89-.61-.62-.6-1.26.02-1.89.22-.23.51-.4.72-.57-1.77-1.76-3.4-3.39-5.08-5.05-2.06,1.59-4.35,2.93-6.81,3.98-10.64,4.57-23.62,2.21-32.02-5.79-4.94-4.71-7.98-10.42-9.11-17.15-2.01-11.92,3.91-24.42,14.44-30.51,3.82-2.21,7.92-3.57,12.33-3.96.19-.02.38-.09.58-.13,1.5,0,2.99,0,4.49,0ZM65,28.95c-15.17,0-27.54,12.39-27.52,27.55.02,15.18,12.41,27.54,27.56,27.5,15.17-.04,27.46-12.34,27.48-27.51.02-15.17-12.35-27.55-27.52-27.54ZM90.28,86.72s.05.11.1.16c4.3,4.3,8.58,8.61,12.9,12.88.98.97,2.24,1.15,3.54.75,2.58-.8,3.28-3.97,1.31-5.96-4.18-4.21-8.38-8.39-12.57-12.58-.1-.1-.22-.18-.29-.24-1.67,1.67-3.31,3.3-4.99,4.99ZM91.69,81.64c-1.59-1.59-3.17-3.16-4.64-4.63-.51.48-1.06.99-1.55,1.45,1.54,1.55,3.12,3.12,4.7,4.7.48-.49,1-1.01,1.5-1.52Z"/>
  <path class="cls-1" d="M64.94,82.8c-14.53-.01-26.27-11.81-26.25-26.39.02-14.55,11.79-26.27,26.38-26.26,14.59.01,26.3,11.85,26.27,26.53-.03,14.39-11.9,26.13-26.4,26.12ZM68.63,56.78c-1.5.52-2.4,1.77-2.41,3.46-.02,1.94-.03,3.89.02,5.83,0,.37.19.83.45,1.09,3.22,3.26,6.47,6.5,9.72,9.74.12.12.25.23.37.34,8.48-4.66,14.05-15,11.57-26.06-2.41-10.77-12.09-18.54-23.21-18.64-11.07-.1-20.89,7.62-23.42,18.45-2.54,10.92,2.76,21.45,11.53,26.26.07-.06.15-.11.22-.18,3.35-3.35,6.7-6.69,10.03-10.06.19-.2.31-.56.31-.85.02-3.81.02-7.63,0-11.44,0-.47-.04-.95-.15-1.41-.29-1.29-1.11-2.1-2.37-2.59-.09.23-.15.39-.21.55-.83,2.14-2.34,3.56-4.61,3.9-1.12.17-2.34.01-3.47-.23-2.19-.47-4.23-1.33-5.87-2.92-.86-.83-1.4-1.82-1.26-3.06.13-1.23.86-2.1,1.78-2.83,1.81-1.44,3.92-2.27,6.18-2.64,3.79-.63,6.03.76,7.45,4.44.08.21.41.37.66.45,2.3.79,3.7,2.36,4.13,4.76.12.67.15,1.36.22,2.02.65-.28,1.3-.52,1.92-.83.24-.12.5-.37.59-.62.68-2.09,2-3.6,4.14-4.14,1-.25,2.13-.25,3.16-.1,2.42.36,4.67,1.23,6.54,2.87,2.04,1.79,2.05,3.96.1,5.8-.16.15-.33.3-.51.44-2.02,1.51-4.33,2.34-6.81,2.64-2.21.27-4.1-.45-5.48-2.22-.51-.65-.84-1.45-1.29-2.24ZM55.61,78.47c6.28,2.57,12.54,2.57,18.72.02-3.14-3.14-6.26-6.28-9.35-9.37-3.07,3.06-6.19,6.17-9.38,9.35ZM55.11,52.89c2.18,0,3.71-1.42,3.89-3.36.16-1.71-1.09-3.47-2.89-3.69-2.71-.32-5.07.73-7.16,2.36-.99.77-.95,1.45.05,2.26,1.85,1.51,4.03,2.19,6.11,2.43ZM74.93,58.87c1.96-.21,4.05-.88,5.86-2.25,1.28-.96,1.25-1.72-.04-2.71-.37-.29-.76-.59-1.2-.74-1.47-.51-2.93-1.1-4.44-1.4-2.07-.41-3.99,1.22-4.12,3.32-.13,2.04,1.57,3.79,3.93,3.78Z"/>
  <path class="cls-1" d="M65.04,72.03c.68,0,1.17.48,1.19,1.15.02.7-.51,1.24-1.19,1.23-.64,0-1.19-.53-1.21-1.16-.02-.68.52-1.22,1.21-1.22Z"/>
  <path class="cls-1" d="M60.28,79.2c-.67.01-1.24-.55-1.23-1.21,0-.65.52-1.16,1.18-1.17.71-.01,1.22.5,1.22,1.2,0,.66-.51,1.18-1.17,1.19Z"/>
  <path class="cls-1" d="M71.02,78c0,.67-.49,1.19-1.14,1.21-.67.02-1.25-.52-1.26-1.19,0-.68.54-1.21,1.24-1.2.67.01,1.16.51,1.17,1.18Z"/>
</svg>