<?xml version="1.0" encoding="UTF-8"?>
<svg id="Layer_1" data-name="Layer 1" xmlns="http://www.w3.org/2000/svg" viewBox="0 0 146.72 129.73">
  <defs>
    <style>
      .cls-1 {
        fill: #05303a;
        stroke-width: 0px;
      }
    </style>
  </defs>
  <path class="cls-1" d="M109.37,30.94c-.65-2.48-2.91-4.27-5.53-4.27-1.47,0-2.85.55-3.89,1.53-1.21-1.56-3.1-2.51-5.12-2.51-3.38,0-6.16,2.59-6.46,5.9-1.93.79-3.21,2.66-3.21,4.8,0,2.86,2.32,5.19,5.18,5.19,1.14,0,2.23-.38,3.12-1.05,1.18,2.23,3.51,3.68,6.12,3.68s4.85-1.39,6.06-3.56c.74.39,1.57.6,2.43.6,2.88,0,5.22-2.35,5.22-5.23,0-2.43-1.64-4.49-3.92-5.07ZM108.07,39.24c-.81,0-1.58-.3-2.17-.85-.25-.23-.6-.32-.93-.23-.33.08-.59.33-.7.65-.68,2.03-2.56,3.39-4.69,3.39-2.27,0-4.24-1.54-4.79-3.75-.1-.38-.41-.67-.8-.74-.06,0-.11-.01-.17-.01-.33,0-.64.16-.83.45-.59.89-1.58,1.43-2.65,1.43-1.76,0-3.18-1.43-3.18-3.19,0-1.48,1-2.75,2.43-3.1.46-.11.77-.62.76-1.09,0-2.48,2.02-4.51,4.5-4.51,1.75,0,3.36,1.04,4.09,2.64.15.33.48.56.85.58.38.02.72-.16.91-.47.69-1.11,1.87-1.77,3.16-1.77,1.87,0,3.45,1.4,3.69,3.26.06.46.42.82.88.87,1.64.18,2.88,1.56,2.88,3.22,0,1.78-1.45,3.23-3.23,3.23Z"/>
  <path class="cls-1" d="M41.39,44.91c1.54,0,2.99-.55,4.13-1.52,1.43,2.97,4.44,4.92,7.83,4.92s6.26-1.85,7.73-4.72c.98.58,2.1.88,3.26.88,3.57,0,6.47-2.91,6.47-6.48,0-3.06-2.11-5.66-5.02-6.32-.74-3.17-3.59-5.48-6.91-5.48-1.94,0-3.75.78-5.07,2.13-1.51-2.1-3.95-3.4-6.59-3.4-4.28,0-7.79,3.34-8.09,7.55-2.48.93-4.15,3.3-4.15,6,0,3.54,2.88,6.42,6.41,6.42ZM40.35,34.19c.45-.11.77-.52.76-.99v-.14c0-3.38,2.74-6.13,6.11-6.13,2.38,0,4.56,1.41,5.56,3.59.15.34.48.56.85.58.37.03.72-.16.91-.47.94-1.52,2.57-2.43,4.34-2.43,2.57,0,4.74,1.92,5.06,4.48.06.46.42.82.88.87,2.27.24,3.99,2.16,3.99,4.46,0,2.47-2.01,4.48-4.47,4.48-1.12,0-2.19-.42-3.01-1.17-.25-.23-.6-.32-.93-.23-.33.08-.59.33-.7.65-.91,2.75-3.47,4.59-6.35,4.59-3.07,0-5.74-2.09-6.49-5.07-.1-.38-.41-.67-.8-.74-.06,0-.11-.01-.17-.01-.33,0-.64.16-.83.45-.82,1.24-2.2,1.98-3.67,1.98-2.43,0-4.42-1.99-4.42-4.43,0-2.05,1.39-3.81,3.37-4.3Z"/>
  <path class="cls-1" d="M111.94,102.8h-.48l-32.11-67.11c-.17-.35-.51-.57-.9-.57h0c-.38,0-.73.22-.9.56l-9.04,18.75-3.3-6.65c-.34-.68-1.45-.68-1.79,0l-4.81,9.69c-.51-.38-1.08-.67-1.71-.83-.63-2.39-2.81-4.12-5.34-4.12-1.41,0-2.73.53-3.73,1.45-1.18-1.49-2.98-2.39-4.92-2.39-3.26,0-5.94,2.5-6.25,5.68-1.85.77-3.09,2.58-3.09,4.64,0,2.77,2.25,5.03,5.02,5.03,1.09,0,2.13-.35,2.98-.99,1.15,2.13,3.39,3.52,5.9,3.52s4.67-1.33,5.84-3.41c.28.14.57.25.87.34l-19.04,36.4h-.7c-.55,0-1,.45-1,1s.45,1,1,1h77.52c.55,0,1-.45,1-1s-.45-1-1-1ZM101.47,102.8l-13.43-29.02c-.16-.34-.49-.56-.87-.58-.37,0-.73.18-.91.51l-4.36,7.72-8.05-16.22,3.89-7.24,4.13,7.69c.35.65,1.41.65,1.76,0l4.15-7.72,21.46,44.85h-7.78ZM78.45,38.43l8.27,17.28-3.96,7.37-4.13-7.69c-.35-.65-1.41-.65-1.76,0l-4.1,7.63-3.14-6.32,8.81-18.28ZM64.32,50.49l8.89,17.92-3.92,7.29-4.13-7.69c-.35-.65-1.41-.65-1.76,0l-4.13,7.69-3.91-7.28.96-1.84s0-.01,0-.02c2.45-.36,4.34-2.45,4.34-4.99,0-.89-.23-1.73-.63-2.46l4.28-8.61ZM52.63,63.59c-.33.08-.59.33-.7.65-.64,1.93-2.44,3.23-4.47,3.23-2.16,0-4.04-1.47-4.57-3.57-.1-.38-.41-.67-.8-.74-.06,0-.11-.01-.17-.01-.33,0-.64.16-.83.45-.56.85-1.5,1.35-2.51,1.35-1.67,0-3.02-1.36-3.02-3.03,0-1.4.95-2.61,2.31-2.94.46-.11.77-.62.76-1.09,0-2.37,1.92-4.29,4.28-4.29,1.67,0,3.2.99,3.89,2.51.15.34.48.56.85.58.38.02.72-.16.91-.47.65-1.06,1.78-1.69,3.01-1.69,1.78,0,3.28,1.33,3.51,3.1.06.46.42.82.88.87,1.56.17,2.73,1.48,2.73,3.05,0,1.69-1.37,3.07-3.06,3.07-.77,0-1.5-.29-2.06-.8-.25-.23-.6-.32-.93-.23ZM54.25,70.55l4.14,7.73c.17.32.51.53.88.53s.71-.2.88-.53l4.13-7.69,4.13,7.69c.17.32.51.53.88.53s.71-.2.88-.53l4.13-7.68,6.66,13.41c.16.33.5.54.87.55.37,0,.71-.19.9-.51l4.32-7.66,12.22,26.41h-61.88l16.87-32.25Z"/>
</svg>