<?xml version="1.0" encoding="UTF-8"?>
<svg id="Layer_1" data-name="Layer 1" xmlns="http://www.w3.org/2000/svg" viewBox="0 0 146.72 129.73">
  <defs>
    <style>
      .cls-1 {
        fill: #05303a;
        stroke-width: 0px;
      }
    </style>
  </defs>
  <path class="cls-1" d="M57.27,100.03c-.75-.37-.98-.97-.97-1.79.03-4.22.01-8.43.01-12.65,0-6.25,4.49-11.43,10.68-12.39,3.14-.48,6.28-1.01,9.42-1.5.37-.06.5-.19.55-.6.14-1.27-.22-2-1.45-2.71-4.41-2.56-6.66-6.53-6.81-11.64-.06-1.9,0-3.8,0-5.81-.27,0-.51,0-.75,0-1.97,0-3.94,0-5.91,0-1.1,0-1.6-.5-1.59-1.59.01-.84-.03-1.71.13-2.53.53-2.81,2.95-4.79,5.79-4.81.76,0,1.51,0,2.23,0,1.75-7.97,6.45-12.72,14.79-12.26,7.39.4,11.45,5.1,12.86,12.2,1.14.06,2.32.01,3.46.22,2.72.49,4.71,2.95,4.74,5.71,0,.53,0,1.05,0,1.58-.01.96-.53,1.49-1.49,1.49-1.97,0-3.94,0-5.91,0-.25,0-.5,0-.85,0,0,.27,0,.52,0,.76-.04,2.22.11,4.46-.16,6.66-.58,4.79-3.18,8.29-7.45,10.52-.51.27-.69.55-.65,1.09.04.52,0,1.05,0,1.63,1.41.23,2.78.44,4.16.67,2.32.38,4.68.65,6.96,1.19,5.01,1.19,8.59,5.21,9.39,10.33.02.11.08.2.13.3v15.96h-51.31ZM71.43,50.93c0,1.23-.03,2.38,0,3.52.04,1.37-.02,2.77.22,4.11,1.01,5.81,6.52,9.64,12.19,8.93,4.79-.6,9.05-4.69,9.45-9.48.19-2.3.1-4.62.13-6.93,0-.03-.05-.07-.1-.14-1.42,0-2.86,0-4.3,0-.25,0-.51,0-.74-.09-.64-.22-.99-.87-.87-1.54.12-.67.67-1.11,1.44-1.11,4.03,0,8.07,0,12.1,0,.24,0,.48,0,.73,0,0-2.09-1.41-3.44-3.53-3.44-10.47,0-20.94,0-31.42,0-.16,0-.32,0-.48,0-2.04.15-3.26,2.04-2.97,3.43.24,0,.49,0,.74,0,4.01,0,8.02,0,12.03,0,.25,0,.51-.01.75.05.64.17,1.04.81.97,1.48-.07.68-.62,1.2-1.36,1.2-1.62.02-3.25,0-4.96,0ZM67.31,97.24h9.63c0-2.55,0-5.04,0-7.54,0-.96.53-1.48,1.49-1.49.65,0,1.3,0,1.95,0,0-.12,0-.15,0-.16-3.09-4.13-6.18-8.25-9.27-12.37-.1-.14-.35-.27-.5-.25-1.47.24-2.96.4-4.38.79-4.36,1.19-7.13,4.92-7.16,9.53-.02,3.64,0,7.29,0,10.93,0,.2.03.39.04.57h5.47c0-.28,0-.53,0-.78,0-2.27,0-4.54,0-6.81,0-.93.65-1.53,1.52-1.45.73.07,1.21.64,1.22,1.49,0,2.5,0,4.99,0,7.54ZM88.08,97.24h9.5c0-2.52,0-4.99,0-7.46,0-.97.51-1.56,1.34-1.57.86-.02,1.4.58,1.4,1.58,0,2.25,0,4.49,0,6.74,0,.24,0,.48,0,.71h5.49c0-4.07.1-8.08-.03-12.08-.14-4.36-3.03-7.86-7.23-8.97-1.25-.33-2.57-.42-3.84-.7-.53-.11-.83.01-1.14.44-2.88,3.88-5.79,7.74-8.69,11.61-.14.19-.28.39-.47.68.74,0,1.35,0,1.96,0,1.24,0,1.71.46,1.71,1.69,0,2.43,0,4.86,0,7.35ZM93.27,41.96c-.33-4.45-4.58-9.85-11.34-9.58-5.32.22-10.77,5.36-10.29,9.58h21.63ZM82.44,86.15c2.85-3.8,5.62-7.49,8.45-11.26-1.51-.25-2.93-.48-4.34-.71-.96-.16-1.35-.61-1.35-1.58,0-.84,0-1.67,0-2.39h-5.51c0,.75,0,1.58,0,2.4,0,.96-.4,1.41-1.36,1.57-1.41.24-2.82.47-4.32.72,2.83,3.77,5.6,7.47,8.44,11.26ZM79.73,90.99v6.25h5.56v-6.25h-5.56Z"/>
  <path class="cls-1" d="M39.11,100.03c-.56-.32-1-.72-.96-1.45.04-.73.58-1.27,1.34-1.29.89-.02,1.79,0,2.79,0v-.89c0-15.63,0-31.26,0-46.89,0-.63.08-1.19.67-1.55.93-.57,2.07.08,2.08,1.22.02,2.2.02,4.4,0,6.6,0,.52.17.75.65.94,6.2,2.46,12.39,4.94,18.59,7.42.13.05.26.1.38.15.63.25,1.04.66,1.03,1.38,0,.69-.41,1.09-1.01,1.33-1.61.65-3.22,1.29-4.84,1.94-4.73,1.89-9.46,3.78-14.2,5.67-.36.14-.6.27-.6.76.02,7.15.01,14.3.01,21.45,0,.13.01.27.02.47.8,0,1.58,0,2.35,0,.98,0,1.49.29,1.7.96.22.69-.06,1.24-.91,1.79h-9.08ZM60.55,65.65c-5.29-2.12-10.38-4.15-15.49-6.2v12.39c5.14-2.06,10.22-4.09,15.49-6.2Z"/>
  <path class="cls-1" d="M82.41,62.09c-1.93-.06-3.47-.88-4.56-2.48-.56-.82-.45-1.64.26-2.11.7-.46,1.43-.28,2.01.51,1.28,1.75,3.38,1.76,4.65.02.6-.81,1.36-1,2.06-.51.66.47.77,1.28.24,2.07-1.11,1.63-2.66,2.45-4.64,2.5Z"/>
  <path class="cls-1" d="M81.21,49.58c-.01-.78.58-1.39,1.36-1.4.78,0,1.38.6,1.38,1.38,0,.75-.58,1.34-1.33,1.36-.78.02-1.4-.57-1.41-1.35Z"/>
</svg>